<?xml version="1.0" encoding="utf-8"?>
<!-- Generator: Adobe Illustrator 21.0.2, SVG Export Plug-In . SVG Version: 6.00 Build 0)  -->
<svg version="1.1" id="Layer_1" xmlns="http://www.w3.org/2000/svg" xmlns:xlink="http://www.w3.org/1999/xlink" x="0px" y="0px"
	 viewBox="0 0 566.9 566.9" style="enable-background:new 0 0 566.9 566.9;" xml:space="preserve">
<style type="text/css">
	.st0{fill:#FFFFFF;}
	.st1{fill:#262626;}
	.st2{fill:#2C2C2C;}
	.st3{fill:#FF9B34;}
	.st4{fill:#232323;}
	.st5{fill:#F0F0F0;}
</style>
<g>
	<path class="st0" d="M489.8,286.5c-13.9-18.5-36.8-29.4-62.2-35.1c-20.7-39.8-74.5-71.5-122.7-78.2c-43.9-6-115.8,4.3-142.9,59.8
		c-2.5,5.2-4.6,10.6-6.2,16.2c-31.7,6.6-66.5,25.4-76.4,63.5c-7,27.1-0.1,58.6,17.1,80.8c11.7,15.1,26.7,24.3,42.8,29.2
		c-0.1,6.6,0.8,13.3,2.9,20.1c12.8,39.8,59.5,44.7,61.9,44.9c24.5,2.1,51.9-7.3,73.7-24.5c6.2,7.1,13.5,13.2,22.1,18
		c24.7,13.7,55.4,13.2,78.6-0.3c13.4-7.8,23-19.2,29.7-32.4C472.7,438,532.8,343.9,489.8,286.5z"/>
	<path class="st1" d="M507.7-541.6c-13.9-18.5-36.8-29.4-62.2-35.1c-20.7-39.8-74.5-71.5-122.7-78.2c-43.9-6-115.8,4.3-142.9,59.8
		c-2.5,5.2-4.6,10.6-6.2,16.2c-31.7,6.6-66.5,25.4-76.4,63.5c-7,27.1-0.1,58.6,17.1,80.8c11.7,15.1,26.7,24.3,42.8,29.2
		c-0.1,6.6,0.8,13.3,2.9,20.1c12.8,39.8,59.5,44.7,61.9,44.9c24.5,2.1,51.9-7.3,73.7-24.5c6.2,7.1,13.5,13.2,22.1,18
		c24.7,13.7,55.4,13.2,78.6-0.3c13.4-7.8,23-19.2,29.7-32.4C490.6-390.1,550.7-484.1,507.7-541.6z"/>
	<g>
		<path class="st2" d="M897.1-87.1h-0.3c-2.4,0-5,0-7.6,0.4c-2.4,0.3-4.7,0.9-7.3,1.6c-3,0.8-6,1.7-9,2.5c-1.5,0.4-3,0.9-4.5,1.3
			c-5.3,1.5-9.6,2.7-13.7,3.8c-5.2,1.4-10.1,3.7-14.8,5.9c-2,0.9-3.9,2.1-5.7,3.1l-0.7,0.4c-2,1.2-4,2.4-5.8,3.6l-0.8,0.5
			c-1.8,1.2-3.7,2.4-5.5,3.7l-1.5,1.1l-1.5,1.1c-1,0.8-2,1.6-3,2.4l-0.6,0.5c-0.6,0.5-1.2,1-1.7,1.6c-0.3,0.3-0.5,0.5-0.8,0.8
			c-0.7,0.7-1.7,1.6-2.6,2.5l-0.7,0.8c-0.8,0.9-1.6,1.8-2.3,2.7l-2.3,3c-1.4,1.8-2.6,3.8-3.8,5.7l-0.4,0.7c-1.2,1.9-2.3,4.1-3.5,6.5
			c-1.9,4.1-4.4,9.6-6.3,15.3c-1.1,3.1-2,6.5-3,10.6c-0.4,1.8-0.9,3.6-1.3,5.4c-0.1,0.5-0.2,1-0.3,1.4c-2.7-0.4-5.5-0.7-9-1
			c-2.5-0.2-5-0.3-7.4-0.5c-1.2-0.1-2.6-0.1-4-0.1c-1.1,0-2,0-3,0.1c-2.9,0.3-5.3,0.6-7.5,1.1c-2.3,0.5-4.6,1.1-7.5,1.9
			c-2.2,0.6-4.4,1.4-6.4,2.1c-2.4,0.9-4.9,1.9-7.3,3c-2.2,1-4.5,2.2-6.9,3.6c-0.7,0.4-1.5,0.9-2.2,1.4l-0.8,0.5
			c-0.3,0.2-0.6,0.4-0.8,0.6l-0.4,0.3c-0.2,0.2-0.5,0.3-0.7,0.5c-0.6,0.4-1.2,0.8-1.7,1.3c-1.8,1.5-3.7,3-5.4,4.7
			c-1.4,1.3-2.9,2.8-4.2,4.4c-1.7,1.9-3.1,4-4.3,5.7c-3,4.4-5.3,9.1-7.2,13.1c-2.1,4.5-3.8,9.2-5.7,14.8c-1.4,4.2-2.6,8.5-3.8,12.6
			l-0.6,1.9c-0.7,2.6-1.5,5.3-2.2,8.1c-0.5,2.1-1,4.3-1.4,6.4l-0.3,1.3c-1.1,5.2-1.9,10.6-2.7,16.4c-0.6,5.1-1,10.4-1.2,14.9
			c-0.2,3.2-0.2,5.8,0,8.2c0.2,1.8,0.4,3.5,0.8,5.2c0.4,2.1,1.2,4,1.9,6c1.7,4.6,4.6,8.7,7.3,12.6l0.5,0.7c1.1,1.6,2.5,3.4,4.2,5.4
			c0.2,0.3,0.5,0.5,0.7,0.8c0.5,0.6,1,1.2,1.6,1.8l3,3.1c0.8,0.8,1.7,1.5,2.5,2.3c0.4,0.3,0.8,0.7,1.2,1c0.7,0.6,1.5,1.3,2.3,1.8
			l0.6,0.5c1.8,1.4,3.6,2.7,5.5,3.9c2.2,1.4,4.7,2.9,7.2,4.2c2.5,1.3,5.5,2.8,8.6,3.6l3.6,1l0.7,0.2c0.7,0.2,1.5,0.4,2.2,0.5
			c0.3,0.1,0.7,0.1,1,0.2c1.5,0.3,2.8,0.6,4,0.8c0.6,0.1,1.2,0.2,1.8,0.3c0,3.7-0.1,7.4,0.3,11.2c0.2,2.5,0.5,4.9,1,7.1
			c0.1,0.5,0.2,0.9,0.2,1.4c0.2,0.9,0.3,1.9,0.6,2.8l0.2,0.7c0.5,2.3,1.1,4.6,1.7,6.9l0.2,0.7c0.4,1.2,0.7,2.5,1.2,3.7l1.6,4.5
			c0.7,2,1.6,4.1,2.5,6.2c1.5,3.3,3.5,6.6,6.1,10.2c5,6.8,11.7,11.8,18.1,16.6l1.1,0.8c1.7,1.3,3.6,2.5,6,4l0.7,0.4
			c0.6,0.4,1.3,0.8,2,1.1l2,1l2,1c2.1,1.1,4.4,2.1,7,3.1c0.3,0.1,0.7,0.3,1,0.4c0.7,0.3,1.5,0.6,2.3,0.8l2.4,0.7l1.7,0.5
			c2.2,0.7,4.4,1.1,6.6,1.6l0.4,0.1c2.6,0.5,5.2,1,8.3,1.4c2,0.3,4.1,0.5,6.1,0.7l0.9,0.1c2.5,0.2,4.9,0.4,7.4,0.6
			c2.6,0.2,5.2,0.3,7.6,0.4c0.8,0,1.6,0.1,2.4,0.1h0.5c0.4,0,0.8,0,1.3,0h0.9c0.7,0,1.3,0,1.8-0.1l1.9-0.2c2-0.2,4.1-0.3,6.1-0.6
			c0.4-0.1,0.8-0.1,1.2-0.2c0.8-0.1,1.6-0.2,2.4-0.4l4.3-0.8c2.1-0.4,4.2-0.9,6.2-1.4l0.6-0.2c2.5-0.6,4.5-1.3,6.4-2
			c2.1-0.8,4.1-1.7,6.1-2.6l0.4-0.2c4.1-1.8,8.4-3.8,12.6-6.3c2.4-1.4,4.8-3,7.3-4.9c2.7-2,4.8-3.8,6.6-5.7c2-2.1,4.1-4.5,6.2-7.2
			c0.9-1.2,1.8-2.4,2.5-3.4c0.1-0.1,0.1-0.2,0.2-0.3c0.4,0.3,0.9,0.5,1.4,0.8l0.7,0.4l1.4,0.7c1.7,0.9,3.5,1.9,5.3,2.7
			c2.3,1.1,4.6,2.2,7,3.3c2.2,1,4.4,1.7,6.6,2.5l0.6,0.2c4.3,1.5,8.9,2.5,13.3,3.5l0.5,0.1c5.2,1.2,10.7,1.7,15.3,2.1
			c2.5,0.2,5,0.3,7.5,0.5c1.4,0.1,2.8,0.2,4.3,0.2c0.9,0,1.7,0,2.4-0.1c2.5-0.2,5.1-0.5,8.2-0.9c1.9-0.3,4.2-0.6,6.4-1.2
			c2.4-0.6,4.8-1.3,7.2-2.1c2.3-0.8,4.7-1.5,7.2-2.3l2.7-0.8c1.4-0.4,2.8-0.8,4.2-1.3c0.7-0.2,1.4-0.5,2.1-0.7l1-0.3
			c0.6-0.2,1.2-0.4,1.7-0.7l0.7-0.3c0.2-0.1,0.4-0.2,0.6-0.2c0.4-0.2,0.8-0.3,1.2-0.5l0.2-0.1c2-1,4.1-2,6.1-3.2
			c2.1-1.3,4.1-2.7,6.2-4.2c2-1.5,4.4-3.2,6.4-5.1c2-1.8,3.8-3.6,5.3-5.5c2.1-2.5,3.6-4.6,5-6.7c1.3-2,2.5-4.2,3.7-6.6
			c2.5-5.2,4.6-10,6.4-14.7c0.5-0.2,0.9-0.3,1.4-0.5l0.6-0.2c4.6-1.6,9.4-3.3,14-5.4c9.7-4.4,17.8-11.9,24.5-18.7
			c1.9-1.9,3.6-3.9,5.1-5.9c2.1-2.6,3.8-5,5.4-7.4c2.1-3.3,3.7-6.8,4.8-9.5c0.5-1.1,0.9-2.2,1.2-3.3c0.2-0.4,0.3-0.9,0.5-1.3
			c0.7-2.1,1.3-4.2,1.9-6.7c1.2-4.7,2.2-9.5,3.1-14.8c0.8-4.4,1.8-10.3,2.2-16.3c0.6-8.2,1-16.6,1.3-24.7l0.3-5.8
			c0.1-2.5,0.2-5.2,0.1-7.9c-0.1-2.6-0.4-4.8-0.9-6.8c-0.3-1.5-0.8-2.9-1.1-4c-0.7-2.4-1.7-4.9-3.1-8c-0.9-1.9-2-4.3-3.4-6.5
			c-1.5-2.4-3-4.7-4.6-6.8c-1.8-2.4-3.4-4.3-4.9-6c-1.6-1.9-3.4-3.7-5.1-5.5l-0.2-0.2c-1.8-1.8-3.6-3.6-5.3-5.2
			c-3.9-3.8-7.9-7-11.8-9.7c-4.2-2.9-8.4-5.6-12.4-8.1c-3.8-2.4-8.4-5.1-13.2-6.8c-4.6-1.6-9.3-2.3-15-2.8c-2.4-0.2-4.7-0.4-7.1-0.5
			c-0.5,0-0.9,0-1.4,0c-2.3,0-4.6,0.3-6.6,0.5c-2.3,0.3-4.6,1-6.9,1.8c-2.4,0.8-4.8,1.8-7,3c-1.9,1-3.7,2.1-5.4,3.1
			c-0.3-0.8-0.7-1.5-1.1-2.3l-0.3-0.6c-1.3-2.7-2.4-4.9-3.4-7c-1-2-2.2-3.9-3.3-5.8l-0.7-0.4c-2.3-3.9-5.2-7.9-9-12.7
			c-1.5-1.9-3.2-3.7-4.8-5.5c-1.9-2-3.8-4-5.7-5.9c-3.4-3.5-6.9-6.9-10.6-10.3l-0.7-0.7c-1.7-1.6-3.5-3.2-5.3-4.6
			c-2.3-1.8-4.3-3.2-6.2-4.5l-0.6-0.4c-3.9-2.6-7.8-5.4-11.8-7.9c-4.4-2.8-9.1-5.1-13.6-7.4c-0.9-0.5-1.9-0.9-2.8-1.4
			c-2.1-1.1-4.3-2.3-6.4-3.5c-2.2-1.2-4.5-2.3-7.5-3.5c-4.2-1.7-8.8-2.9-14.6-3.7c-2.4-0.3-4.9-0.6-6.7-0.7l-1.5-0.1
			C900.8-87,898.9-87.1,897.1-87.1"/>
	</g>
	<path class="st3" d="M402.4,234.6c-7-18.1-29.1-20.3-45.6-18.7c2.6-5.2,0.4-13.8-0.2-19.3c-0.7-6.6-1.3-13.2-1.3-19.8
		c0-15.1-0.6-29.1-6-43.5c-3.5-9.3-8.7-16.8-17-22.1c-6-3.8-11.9-8.2-17.8-12.1c-3.2-2.1-7.3-3.4-10.6-0.1c-0.3-1.3-1.4-2.1-2.5-2.4
		c-1.4,2.7-35.1,1.1-35.7-2.3c-1.2,0.4-2.2,0.7-3,0.9c0.2,0.4,0.4,0.7,0.5,1c-7.2,2.6-14.6,6.7-21.5,10.1c-7.9,3.9-16.3,7-18.1,16.5
		c-2,11.1-4.9,22.2-6.8,33.3c-1.1,6.2-1.1,12.8-3.3,18.8l0.2-0.1c-2.3,5.5-2.3,11.4-3.2,17.2c-1.1,7-4,15.4-0.5,22.3
		c-13.7-0.1-36.2,0.5-37.4,18.4c-0.6,9.8,0.9,22.1,7.4,29.9c5.7,6.7,17.7,10.1,26,12.1c8.4,2.1,16,3.3,24.7,2.6
		c1.6-0.1,6.7-1.5,7.8-0.4c1.8,1.8-0.5,7.9-0.9,10.1c-2.3,12,9,12,18.4,12.2c8.3,0.2,16.7-0.5,25-0.9c5.5-0.2,10.8-0.7,16.1-1.9
		c3.5-0.8,10.9-1.6,13.3-4.7c3.8,3.8,12,1.1,13.5-3.5c15.1,0,26.5,0.5,40.9-5.8c10.3-4.5,20-12.1,27-20.8
		C397.4,254.8,406.4,243.7,402.4,234.6z"/>
	<g>
		<path class="st3" d="M161.6,309.2c-10.1,2.7-16.5,13-20.8,21.7c-4.8,9.5-5.7,19.8-5,30.4c1.5,23,24.2,33.2,45,29.6
			c10.8-1.9,15.9-10.5,19.4-20.1c3.8-10.4,3.1-19.1-8.7-22.9c-7.6-2.4-20.9-7.2-25,2.8c-1.5,3.6-0.7,7.8,1.9,10.8
			c1.4,1.6,3,2.5,5,3.2c1.8,0.6,6.4,0.4,7.7,1.6c-2.5,5.7-6.6,5.1-12.5,4.3c-5.2-0.7-11.7-2.5-13.3-8.3c-1.6-5.5-0.5-14.1,1.4-19.3
			c1.8-4.9,5.8-13.3,11.3-14.7c6.6-1.7,12.8,2.9,19.1,2c5.7-0.8,9.3-7,8-12.4C192.3,305.7,170.7,306.6,161.6,309.2"/>
		<path class="st3" d="M224.1,329c-2.2,10.5-2.5,21.4-2.5,32.1c0.1,10.2-1.6,22.6,3.4,32c4.8,9,15.1,12.6,24.8,12.9
			c11.5,0.3,19.7-5.1,24.2-15.8c4.4-10.5,3.9-22.1,4.1-33.2c0.1-8.2,3.6-24.8-3.8-30.7c-3.2-2.5-7.7-2.8-11-0.5
			c-4.3,3-4.4,7.7-4.2,12.5c0.4,11.4,0.8,23.6-0.6,35c-0.6,4.7-1.1,11.1-6.3,12.1c-2.8,0.5-8.6-0.3-10.3-2.9
			c-2.3-3.6-0.8-13.6-0.7-17.7c0.1-6.9-0.2-13.7,0.5-20.6c-0.4,6,0.2-1.9,0.4-3.1c0.2-2.3,0.7-4.4,1.1-6.7c0.6-4.1,0.4-7.8-2.7-10.8
			C234.7,318.1,225.6,321.7,224.1,329"/>
		<path class="st3" d="M308.5,321.5c-12.1,2.1-6.8,18.6-6.6,26.4c0.4,11.5,2.4,22.9,4.1,34.2c1.1,7.5-0.6,21,7.5,25
			c12,5.9,14.1-10.4,14.9-17.9c0.6-5.9,1.1-11.9,1.6-17.8c0.5-4.9,0-11.6,2.2-16c2.2-4.3,7.6-7.5,11.7-9.6c4.1-2.1,10.2-2.8,13.6-6
			c8.2-7.7-0.5-19.5-10.3-17c-9.8,2.4-19.6,8.3-26.5,15.6C320.3,330.6,318.1,321,308.5,321.5"/>
		<path class="st3" d="M422.3,310.9c-5.1,0.3-8.9,5-9.1,9.9c-0.1,2.8,1.2,5.3,1.9,7.9c0.5,1.8,0.8,3.6,1.2,5.4
			c0.2,1.1,1.2,6.3,0.2,0.9c1,6,1.7,11.9,2.3,18c0.5,5.4,2.7,12.9,1.5,18.4c-0.7,3.2-2.5,4.3-6,5.1c-5.5,1.3-7.6,0.2-9.7-5
			c-4.5-11.1-4.7-25.4-5.7-37.3c-0.4-4.5,0.1-9.6-3.1-13.3c-3.1-3.5-8.3-4.3-12.3-1.6c-4.1,2.8-4.6,7.5-4.1,12
			c0.6,5.8,1.1,11.6,1.9,17.4c1.5,11.9,2,24.4,7.8,35.2c5.8,10.7,15.1,14.8,26.9,13.1c9.9-1.5,19.6-7.1,22.8-17.1
			c3.6-11.5,0.1-27.2-1.5-38.9C436.1,332.2,435.3,310.2,422.3,310.9L422.3,310.9z"/>
	</g>
	<g>
		<path class="st0" d="M237.3,230.3c-0.1,1.6,0.4,2.1,1.1,2.9c1.5,1.7,3.3,2.8,5,4.2c1.1,0.9,2.1,1.8,3.2,2.7c2.9,2.3,6.3,4,8.9,6.6
			c1.1,1.1,2.3,2,3.4,3c1.4,1.3,2.7,3.2,3.5,4.9c0-0.1,0-0.1,0-0.2c0.6,1.2,1.3,2.4,1.7,3.7c0.4,1.3,0.7,2.7,1.2,4
			c0.5,1.4,1,2.9,1.6,4.3c0.2,0.7,0.9,1.2,1.1,1.8c0.2,0.5-0.1,0.9-0.3,1.4c-0.7,1.5-1.5,2.9-1.9,4.5c-0.2,0.9-0.5,1.8-0.8,2.8
			c-0.4,1.4-0.7,3.1,0.3,4.3c0.7,0.8,2.8,1.4,3.8,0.9c-0.4,0.4-0.3,1.7-0.2,2.3c0.2,0.7,0.6,1.3,1.2,1.7c1.1,0.9,2.6,1.2,3.8,0.5
			c0.5-0.3,0.4-0.4,0.9,0c0.2,0.2,0.5,0.3,0.7,0.4c0.6,0.3,1.4,0.5,2.1,0.3c1.5-0.4,1.9-1.9,2.3-3.2c0,0.5,0.9,1,1.3,1.2
			c0.6,0.3,1.3,0.5,1.9,0.6c1.3,0.2,2.2-1,2.2-2.3c0.7,0.7,2.1,1.3,3.1,1.2c1.5-0.1,1.9-1.9,2.4-3c0,0.3,1.4,0,1.5,0
			c0.7-0.2,1.3-0.4,1.6-1c0.8-1.3,0-2.8,0-4.1c0.4,0.8,1.9,0.8,2.7,0.8c0.8,0,1.5-0.3,1.8-1.1c0.3-0.7,0.1-1.6,0.1-2.4
			c0-1.1-0.4-2.4,0.1-3.4c1-2,2.3-3.9,3.4-5.9c0.5-1,1.1-2,1.6-2.9c0.3-0.5,0.4-0.9,0.9-1.2c0.4-0.3,0.7-0.3,0.8-0.8
			c0.2-0.5,0-0.9,0-1.3c0-0.5,0.3-1.1,0.6-1.6c0.7-1.6,1.5-3.2,2.4-4.7c0.5-0.8,0.8-1.5,1.5-2.3c0.7-0.8,1.4-1.6,2.1-2.4
			c1.4-1.6,3-2.9,5.1-3.6c1.6-0.6,3.2-1.5,4.7-2.4c1.5-0.9,6.8-4.2,9.2-6.2c2.4-2,3.8-3.2,4.4-4.1s-2.8-4.5-7.1-7.2
			c-1.7-1.1-3.7-1.7-5.8-1.7c-0.7,0-1.5,0-2.2,0c-0.2,0-2.6,0-3.1,0.2c-0.3,0.1-0.6,0.4-0.9,0.5c-1,0.5-2.2,2.2-5.7,4.4
			c-3.5,2.2-21.3,12.1-21.5,12.2c-0.3,0.1-0.4,0-0.8-0.2c-0.8-0.3-1.6-0.6-2.4-0.9c-1.1-0.4-2.3-0.9-3.4-1.3
			c-2.4-0.9-4.8-1.9-7.2-2.7c-1.7-0.6-3.4-1.2-5-2c-2.1-1.2-4.1-2.5-5.9-3.9c-1.1-0.8-2.2-1.7-3.2-2.5c-0.7-0.6-2.9-3.8-5.5-4.1
			C255.8,221.9,240.4,222.4,237.3,230.3z"/>
		<path class="st0" d="M275.7,39.7c-3.2,1.3-6.1,3.7-8.2,6.4c-1.1,1.4-1.8,3.2-2.3,4.9c-0.6,2-1.1,4-1.2,6.1c-0.1,2-0.1,3.9-0.1,5.9
			c0,0.4,0,0.8,0,1.2c0,0.6,0.2,2.1-0.2,2.6c-0.3,0.3-1,0.4-1.4,0.5c-1,0.4-1.6,1.1-2.1,2c-1,1.9-0.9,4-0.9,6.1
			c0,2.2,0.4,4.6,1.1,6.7c0.7,2,1.7,3.3,3.6,4.4c0.4,0.2,0.8,0.4,1.1,0.8c0.7,0.7,0.5,2,0.5,2.9c0.1,3.7,0.5,7.2,3.1,10.1
			c1.1,1.2,1.8,3.1,1.4,4.8c-0.2,0.8-0.8,1.5-1.3,2.1c-0.6,0.8-1,1.7-1.5,2.5c-0.7,1.3-1.8,4.2-0.4,5.4c0.7,0.6,2.1,0.7,3.1,0.8
			c0.8,0.1,1.6,0.2,2.4,0.3c2.7,0.2,5.5,0.1,8.2,0.1c1.8,0,3.5-0.3,5.2-0.6c2-0.4,3.7-1.4,5.5-2.2c1.2-0.5,2.3-1.2,3.4-1.8
			c2-1.1,3.2-2.8,4.3-4.8c1.7-2.8,2-6,2.2-9.2c0.1-0.8,0.6-1.5,0.9-2.2c0.5-1.1,0.8-2.3,1-3.5c0.1-0.5,0.1-1.1,0.1-1.6
			c0-0.3,0.1-0.7,0-1c0-0.1-0.3-1.4,0.3-1.7c3.1-1.3,4-5.1,4.5-8.1c0.4-2.3,0.5-4.6,0.6-6.9c0.1-2.2-0.4-3.7-2.6-4.6
			c-0.5-0.2-1.1-0.3-1.4-0.8c-0.4-0.6-0.3-1.8-0.3-2.5c-0.1-2.4-0.1-4.7-0.5-7.1c-0.3-1.8-0.4-3.7-1-5.4c-0.6-1.8-1.5-3.3-2.5-4.9
			c-1.1-1.6-2.2-3.2-3.7-4.3c-1.7-1.3-3.8-2.5-5.9-3.1c-2.2-0.6-4.8-0.7-7.1-0.8c-1.4-0.1-2.9-0.1-4.3,0.1
			C278,39.4,276.7,39.4,275.7,39.7z"/>
	</g>
	
		<image style="overflow:visible;" width="290" height="300" xlink:href="18224029.jpg"  transform="matrix(2.7768 0 0 2.7768 -1157.463 -266.145)">
	</image>
	<path class="st2" d="M952.8,2.9c0,0-67.5,41.5-90.8,54s-61,83.5-60.8,93s-2.5,18,3.8,17.3s12.8-3.1,12.8-3.1s-8.3,9.6-4.3,13.9
		s8.2,2,12.2-0.3c-1.8,3.2,1.1,11.1,8.6,7.1s17.2-12.8,17.2-12.8s44.3-30.7,51.8-45.4s2.3-28.3,16-41s95.6-59.3,95.6-59.3
		S1006.4,5.4,952.8,2.9z"/>
	
		<image style="overflow:visible;" width="960" height="720" xlink:href="1822402B.jpg"  transform="matrix(3.639624e-17 -0.5944 -0.5944 -3.639624e-17 -1228.035 362.9099)">
	</image>
	<path d="M-629.7,286.8c-2,0.7-17.6,13.4-31.7,19.7s-22.3,13.6-31.5,15.2c-9.2,1.5-8.2-0.6-22.1,3.4c-13.9,4-18.2,5.4-22.8,8.1
		s-6.8,4.9-14.2,8.6c-7.4,3.7-9.1,4.2-10.8,5.6s-3.3,3.4-3.6,4.9c-0.3,1.5-4.5,7.5-4.6,7.9c-0.2,0.4-0.3,0.9-0.3,0.9s-6.8,5-6.7,6.6
		c0,0-0.8,1.4-0.1,2.8s3.8,5.3,11.7,2.1c7.9-3.1,15.8-7.1,15.5-10.2c0,0,3.3,0.4,12-6.6c0,0-1.5,4.7-3.5,6.6
		c-1.9,1.9-23.8,26.9-28.4,30.2c-4.6,3.3-4.8,5-6.1,6.5c-1.3,1.5-3.5,3.8-4.9,5.3c-1.4,1.5-5.6,8.5-5.7,10s-0.1,3.9,2,5.5
		s3.3,2.4,6.1,1c0,0-5.5,4.2-6.4,5.3s-3,4.1-0.2,7.8c2.8,3.7,6,2.4,7.5,1.7s4.4-2.5,5.8-2.6c0,0-3.6,4.3,0.3,7.7s8.7-0.1,9.9-0.6
		c1.2-0.5,3.9-1.2,6.9-2.6c3-1.4,5.7-3.9,8.2-4.5c0,0-0.3,1.8,0.7,3.2c1,1.3,2.1,2.6,5.5,1.8c3.4-0.8,5.7-2,7.3-2.5
		c1.6-0.5,3.7-1.6,5.8-3.1s8-4.9,10.4-6.5c2.4-1.6,9.4-7.6,16.1-12.3c6.7-4.7,7.7-5,10-7.4c2.3-2.3,4.2-5.8,8.3-11
		c4.1-5.2,4.3-4.6,7.6-9c3.3-4.4,7.8-11.6,9.9-14.4c2.1-2.8,6.7-6.6,10.5-8.6c3.8-2,6.6-4.2,10.8-6.7c4.2-2.5,65.8-37.5,67.2-39
		c1.4-1.5-7.6-16.2-20.9-23.3C-611.5,287.6-627.7,286.1-629.7,286.8z"/>
	<path class="st4" d="M-810.7,287.6c1.8,1,15.2,16.1,28.1,24.6c12.9,8.5,19.8,17.1,28.6,20.1c8.8,3,8.2,0.7,21.2,6.9
		c13.1,6.3,17.1,8.3,21.1,11.7s5.9,5.9,12.6,10.8s8.3,5.6,9.8,7.3c1.5,1.7,2.7,3.9,2.8,5.4c0.1,1.5,3.2,8.1,3.3,8.5
		c0.1,0.4,0.1,0.9,0.1,0.9s5.9,6,5.6,7.6c0,0,0.5,1.5-0.4,2.8c-0.9,1.2-4.6,4.6-11.9,0.2s-14.5-9.6-13.6-12.5c0,0-3.3-0.1-10.7-8.5
		c0,0,0.7,4.9,2.3,7.1s19.1,30.4,23.1,34.4c4,4,3.9,5.7,5,7.4c1.1,1.7,2.8,4.4,3.9,6c1.2,1.7,4.1,9.3,4,10.8s-0.5,3.8-2.9,5.1
		c-2.4,1.3-3.7,1.8-6.2,0c0,0,4.8,5,5.4,6.3c0.6,1.3,2.3,4.6-1.1,7.7s-6.3,1.4-7.7,0.5s-3.9-3.1-5.3-3.5c0,0,2.8,4.8-1.6,7.5
		c-4.4,2.7-8.6-1.5-9.7-2.2c-1.1-0.7-3.6-1.8-6.4-3.7c-2.8-1.9-5-4.8-7.4-5.7c0,0,0,1.9-1.2,3c-1.2,1.2-2.5,2.3-5.7,0.9
		s-5.3-2.9-6.8-3.7c-1.5-0.8-3.4-2.2-5.3-4s-7.1-6.2-9.2-8.1c-2.1-2-8-9-13.9-14.7c-5.9-5.7-6.7-6.2-8.7-8.9
		c-1.9-2.7-3.2-6.4-6.4-12.2c-3.2-5.8-3.5-5.2-6-10.1c-2.6-4.9-5.8-12.8-7.4-15.9s-5.6-7.7-9-10.2s-5.8-5.2-9.6-8.4
		s-58.9-47.7-60-49.4c-1.1-1.7,10.2-14.8,24.4-19.6C-828.8,285.4-812.5,286.6-810.7,287.6z"/>
	<path d="M-114.3-99.2c-2,0.7-17.6,13.4-31.7,19.7c-14.1,6.3-22.3,13.6-31.5,15.2c-9.2,1.5-8.2-0.6-22.1,3.4s-18.2,5.4-22.8,8.1
		c-4.5,2.7-6.8,4.9-14.2,8.6c-7.4,3.7-9.1,4.2-10.8,5.6c-1.7,1.4-3.3,3.4-3.6,4.9c-0.3,1.5-4.5,7.5-4.6,7.9
		c-0.2,0.4-0.3,0.9-0.3,0.9s-6.8,5-6.7,6.6c0,0-0.8,1.4-0.1,2.8c0.7,1.4,3.8,5.3,11.7,2.1s15.8-7.1,15.5-10.2c0,0,3.3,0.4,12-6.6
		c0,0-1.5,4.7-3.5,6.6c-1.9,1.9-23.8,26.9-28.4,30.2s-4.8,5-6.1,6.5s-3.5,3.8-4.9,5.3c-1.4,1.5-5.6,8.5-5.7,10
		c-0.2,1.5-0.1,3.9,2,5.5c2.1,1.7,3.3,2.4,6.1,1c0,0-5.5,4.2-6.4,5.3c-0.8,1.2-3,4.1-0.2,7.8c2.8,3.7,6,2.4,7.5,1.7s4.4-2.5,5.8-2.6
		c0,0-3.6,4.3,0.3,7.7s8.7-0.1,9.9-0.6c1.2-0.5,3.9-1.2,6.9-2.6c3-1.4,5.7-3.9,8.2-4.5c0,0-0.3,1.8,0.7,3.2c1,1.3,2.1,2.6,5.5,1.8
		c3.4-0.8,5.7-2,7.3-2.5c1.6-0.5,3.7-1.6,5.8-3.1c2.2-1.5,8-4.9,10.4-6.5c2.4-1.6,9.4-7.6,16.1-12.3s7.7-5,10-7.4
		c2.3-2.3,4.2-5.8,8.3-11s4.3-4.6,7.6-9c3.3-4.4,7.8-11.6,9.9-14.4c2.1-2.8,6.7-6.6,10.5-8.6s6.6-4.2,10.8-6.7s65.8-37.5,67.2-39
		c1.4-1.5-7.6-16.2-20.9-23.3C-96.1-98.5-112.4-99.9-114.3-99.2z"/>
	<path class="st4" d="M-295.4-98.4c1.8,1,15.2,16.1,28.1,24.6c12.9,8.5,19.8,17.1,28.6,20.1c8.8,3,8.2,0.7,21.2,6.9
		s17.1,8.3,21.1,11.7s5.9,5.9,12.6,10.8s8.3,5.6,9.8,7.3c1.5,1.7,2.7,3.9,2.8,5.4s3.2,8.1,3.3,8.5c0.1,0.4,0.1,0.9,0.1,0.9
		s5.9,6,5.6,7.6c0,0,0.5,1.5-0.4,2.8s-4.6,4.6-11.9,0.2S-188.9-1.1-188-4.1c0,0-3.3-0.1-10.7-8.5c0,0,0.7,4.9,2.3,7.1
		c1.6,2.2,19.1,30.4,23.1,34.4s3.9,5.7,5,7.4c1.1,1.7,2.8,4.4,3.9,6c1.2,1.7,4.1,9.3,4,10.8c-0.1,1.5-0.5,3.8-2.9,5.1
		c-2.4,1.3-3.7,1.8-6.2,0c0,0,4.8,5,5.4,6.3c0.6,1.3,2.3,4.6-1.1,7.7c-3.4,3.2-6.3,1.4-7.7,0.5c-1.3-0.9-3.9-3.1-5.3-3.5
		c0,0,2.8,4.8-1.6,7.5c-4.4,2.7-8.6-1.5-9.7-2.2c-1.1-0.7-3.6-1.8-6.4-3.7c-2.8-1.9-5-4.8-7.4-5.7c0,0,0,1.9-1.2,3
		c-1.2,1.2-2.5,2.3-5.7,0.9c-3.2-1.4-5.3-2.9-6.8-3.7c-1.5-0.8-3.4-2.2-5.3-4c-1.9-1.8-7.1-6.2-9.2-8.1c-2.1-2-8-9-13.9-14.7
		s-6.7-6.2-8.7-8.9s-3.2-6.4-6.4-12.2c-3.2-5.8-3.5-5.2-6-10.1c-2.6-4.9-5.8-12.8-7.4-15.9s-5.6-7.7-9-10.2s-5.8-5.2-9.6-8.4
		c-3.7-3.2-58.9-47.7-60-49.4c-1.1-1.7,10.2-14.8,24.4-19.6C-313.5-100.7-297.2-99.4-295.4-98.4z"/>
</g>
<g>
	<path class="st5" d="M-323,1795.8c-4.1,0.8-7.8,2.9-11.7,4.2c-1.3,0.4-2.6,0.8-3.8,1.3c-2.1,0.7-3.8,3-4.5,4.9
		c-0.8,2.2-0.7,4.6,0.3,6.7c1,2.1,2.8,3.7,4.9,4.5c0.8,0.2,1.5,0.3,2.3,0.5c1.5,0.1,3-0.1,4.4-0.8c1.1-0.4,2.2-0.7,3.3-1.1
		c-0.4,2.1-0.8,4.3-1.3,6.4c-0.6,2.7-0.9,5.4-1.3,8.1c-0.4,2.8-0.5,5.5-0.1,8.3c0.6,4.7,5.7,7.9,10.2,7.1c2.2-0.4,4.3-1.7,5.6-3.5
		c1.4-2,1.8-4.3,1.5-6.6c0,0,0-0.1,0-0.1c0-1.6,0.3-3.2,0.5-4.8c0.3-2.3,0.7-4.7,1.2-7c1.1-5,2-10.1,2.8-15.2
		c0.4-2.6,0.5-5.4-0.7-7.8c-1.7-3.3-4.7-5-8.2-5.4c-0.3,0-0.7-0.1-1-0.1C-320.3,1795.3-321.7,1795.6-323,1795.8"/>
	<path class="st5" d="M-327.1,1772.9c-1.8,1.5-2.9,3.7-3.1,6c-0.2,2.3,0.5,4.5,2,6.3c1.4,1.7,3.8,3.1,6,3.1c2.4,0,4.4-0.4,6.3-2
		c1.8-1.5,2.9-3.7,3.1-6c0.2-2.3-0.5-4.5-2-6.3c-1.4-1.7-3.8-3.1-6-3.1C-323.1,1770.9-325.2,1771.3-327.1,1772.9"/>
</g>
<path class="st5" d="M-557.8,1963.1c-0.5-0.5-1-1.1-1.5-1.6c-1.2-1-2.6-1.6-4.2-1.9c-2.5-0.7-5.1-1.1-7.6-1.5
	c-2.1-0.3-4.3-0.3-6.4-0.3c-0.5,0-0.9,0-1.4,0c-1,0-2.1,0-3.1,0c-1.2,0-2.4,0.1-3.6,0.1c-2.1,0.1-4,0.6-6,1.1
	c-1.4,0.4-2.9,0.7-4.3,1.2c-4.5,1.6-6.8,6.9-5.1,11.3c1.7,4.5,6.8,6.7,11.3,5.1c0.5-0.2,1.1-0.3,1.6-0.4c-0.2,1.3-0.4,2.6-0.6,3.9
	c-0.4,2.5-0.5,5-0.8,7.5c-0.3,2.5-0.7,5-1.1,7.5c-0.4,2.2-0.6,4.4-0.9,6.7c-0.3,2.3-0.7,4.7-1.1,7c-0.3,2-0.5,4.1-0.8,6.1
	c-0.2,1.1-0.3,2.2-0.4,3.4c-0.2,2.4,0.1,4.5,1.5,6.5c1.3,1.9,3.4,3.2,5.7,3.5c2.3,0.4,4.6-0.2,6.5-1.5c1.8-1.3,3.3-3.5,3.5-5.7
	c0.3-3.1,0.8-6.2,1.2-9.3c0.3-2.3,0.8-4.7,1.1-7c0.3-2.3,0.6-4.6,0.9-6.9c0.4-2.4,0.8-4.9,1.1-7.3c0.3-2.5,0.4-5,0.8-7.5
	c0.4-2.4,0.8-4.8,1.1-7.2c1.3,0.2,2.6,0.5,3.9,0.8c2.1,0.6,4.8-0.3,6.5-1.5c1.9-1.3,3.2-3.4,3.5-5.7
	C-555.9,1967.3-556.5,1965-557.8,1963.1z"/>
<path class="st5" d="M-379.1,1830.6c-0.2-2.9-0.7-5.8-1.9-8.5c-0.8-1.7-1.7-3.4-2.8-4.8c-1.4-1.9-2.9-3-4.9-4.2
	c-1.1-0.7-2.7-0.9-4.1-1.1c-1.8-0.3-3.6-0.4-5.5-0.4c-1.3,0-2.6,0.1-3.9,0.3c-2.9,0.4-5.7,1-8.5,2c-0.1-0.8-0.2-1.7-0.3-2.5
	c-0.3-2.3-0.7-4.6-1-6.9c-0.3-2.6-0.9-5.1-1.1-7.8c-0.3-4.5-4.4-7.8-8.8-7.8c-0.3,0-0.6,0-0.9,0c-4.8,0.5-8.2,4.9-7.8,9.6
	c0.2,2.5,0.7,4.9,1,7.4c0.3,2.4,0.7,4.7,1,7.1c0.4,2.4,0.5,4.9,0.8,7.4c0.3,2.5,0.6,4.9,0.9,7.4c0.3,2.3,0.5,4.6,0.7,6.9
	c0.2,2.4,0.3,4.8,0.8,7.3c0.4,2.3,0.6,4.6,1,6.9c0.3,1.6,0.5,3.3,0.8,4.9c0.5,2.3,1.2,4.3,3.1,5.8c1.8,1.5,4.2,2.2,6.5,2
	c2.3-0.2,4.4-1.4,5.8-3.1c1.4-1.7,2.4-4.3,2-6.5c-0.8-3.8-1.1-7.7-1.7-11.5c-0.4-2.4-0.6-4.8-0.8-7.3c0-0.6-0.1-1.2-0.2-1.8
	c0.5-0.2,0.9-0.3,1.4-0.4c1.5-0.4,3-1,4.5-1.4c1.7-0.3,3.3-0.6,5-0.6c0.2,0,0.4,0,0.6,0c0.1,0.2,0.2,0.4,0.2,0.6
	c0.2,1.5,0.3,3,0.4,4.5c0.1,1.6,0.1,3.3,0.2,4.9c-0.1,1.8-0.4,3.6-0.7,5.3c-0.2,1.1-0.4,2.2-0.5,3.4c0,0.8,0,1.6-0.1,2.3
	c0.2,1.5,0.7,2.9,1.6,4.2c1.3,1.9,3.4,3.2,5.7,3.5s4.6-0.2,6.5-1.5c1.7-1.2,3.4-3.5,3.5-5.7c0.1-1.2,0.3-2.4,0.5-3.6
	c0.5-2.9,0.7-5.8,0.8-8.7C-378.8,1835.6-378.9,1833.1-379.1,1830.6z"/>
<path class="st5" d="M502,1156.9c2.7-0.6,5.3-1.3,7.8-2.6c1.4-0.7,2.6-1.7,3.8-2.6c0.7-0.6,1.4-1.2,2-1.9c1.5-1.8,3-3.6,3.9-5.8
	c0.9-2.1,1.7-4.1,2.3-6.4c0.9-3.1,0.8-6.1,0.1-9.3c-0.3-1.5-0.9-3.1-1.7-4.4c-0.6-0.9-1.3-1.9-2.1-2.6c-0.7-0.7-1.5-1.3-2.4-1.9
	c-1-0.8-2.1-1.6-3.2-2.3c-2.2-1.3-4.8-2.2-7.2-2.9c-2-0.6-4-1.2-6-1.6c-1.8-0.4-3.6-0.8-5.4-1.5c-2-0.9-3.9-2-5.7-3.2
	c-0.3-0.3-0.7-0.6-1-1c-0.4-0.6-0.7-1.2-1-1.8c-0.2-0.5-0.4-1.1-0.5-1.7c0-0.1,0-0.2,0-0.3c0.1-0.5,0.2-1,0.3-1.5
	c0.2-0.4,0.5-0.9,0.8-1.3c0.2-0.2,0.5-0.5,0.7-0.7c0.1,0,0.1-0.1,0.2-0.1c0.9-0.3,1.8-0.6,2.7-0.8c1.2-0.1,2.4,0,3.6,0.1
	c1.4,0.2,2.8,0.5,4.1,0.9c0.3,0.6,0.7,1.2,1,1.9c0.2,0.6,0.4,1.1,0.6,1.7c1.2,4.6,6.1,7.4,10.7,6.2c4.6-1.2,7.4-6.1,6.2-10.7
	c-0.1-0.5-0.3-0.9-0.5-1.4c-0.5-1.3-0.9-2.6-1.5-3.8c-0.4-1-0.9-1.9-1.5-2.9c-1.3-2.3-2.9-3.9-5-5.4c-1.6-1.1-3.4-1.9-5.3-2.4
	c-2.8-0.8-5.7-1.2-8.6-1.6c-1-0.1-1.9-0.2-2.9-0.2c-1.9,0-3.8,0.3-5.7,0.7c-1.1,0.2-2.1,0.6-3.1,1c-1.3,0.5-2.5,0.9-3.7,1.6
	c-1.7,1-3.2,2.2-4.5,3.6c-2.2,2.4-3.7,5.1-4.9,8.2c-0.4,1-0.5,2.1-0.7,3.1c-0.2,1.3-0.4,2.6-0.5,3.9c-0.1,1.2,0.2,2.5,0.4,3.6
	c0.3,1.9,1.1,3.7,1.9,5.5c0.6,1.3,1.2,2.7,2,3.9c1.7,2.6,3.9,4.5,6.4,6.3c4,2.9,8.8,5,13.5,6.2c3.6,1,7.2,1.7,10.7,3
	c0.7,0.3,1.3,0.7,1.9,1.2c-0.2,1-0.5,2-0.9,2.9c-0.3,0.6-0.7,1.2-1,1.8c-0.3,0.3-0.5,0.6-0.8,0.8c-0.3,0.2-0.7,0.4-1,0.6
	c-1.3,0.4-2.7,0.8-4,1c-0.9,0.1-1.9,0.1-2.8,0.1c-0.8-0.2-1.5-0.4-2.3-0.7c-1.4-0.7-2.7-1.5-4-2.4c-0.5-0.4-1-0.9-1.4-1.4
	c-0.2-0.3-0.3-0.5-0.5-0.8c-1.3-4.5-6.1-7.3-10.7-6.1c-4.6,1.2-7.4,6.1-6.2,10.7c0.9,3.3,2.9,6.2,5.1,8.7c1.5,1.6,3.3,2.9,5.1,4.1
	c4.5,2.9,9.6,5.1,15,5.3c0.3,0,0.5,0,0.8,0C497.5,1157.7,499.8,1157.4,502,1156.9"/>
<path class="st5" d="M-449.5,1689.8c-2.3,0.4-4.4,1.5-6.5,2.5c-1.1,0.6-2.3,1.1-3.3,1.9c-2.4,1.7-4.8,3.7-6.6,6
	c-1.8,2.3-3.3,4.5-4.7,7c-1.5,2.8-2.6,5.9-3.3,8.9c-0.7,3-1.2,6.1-1.3,9.2c-0.1,2.5-0.2,5,0.1,7.4c0.6,6.1,2.4,11.9,4.9,17.5
	c1.2,2.8,2.7,5.4,4.7,7.6c1.9,2.2,4.3,4.1,6.9,5.5c1.6,0.9,3.4,1.5,5.1,2.1c1.1,0.4,2.1,0.6,3.2,0.9c3.3,0.6,6.9,1,10.2,0.7
	c1.2-0.1,2.5-0.3,3.7-0.6c1.3-0.3,2.5-0.9,3.8-1.5c1.4-0.6,2.7-1.8,3.8-2.8c1-0.8,1.7-1.7,2.5-2.6c0,0,0,0.1-0.1,0.1
	c0,0,0,0,0.1-0.1c0.4-0.5,0.8-1,1.1-1.5c0.1-0.1,0.1-0.1,0.2-0.2c0,0.1-0.1,0.1-0.1,0.2c0.9-1.4,1.4-2.9,1.4-4.7
	c0-2.3-0.9-4.6-2.6-6.2c-3.2-3.2-9.2-3.6-12.4,0c-0.3,0.4-0.6,0.7-0.9,1.1c-0.3,0.3-0.7,0.7-1,1c-0.1,0-0.2,0.1-0.2,0.1
	c-0.2,0-0.4,0.1-0.5,0.1c-1.4,0.1-2.9,0-4.3-0.1c-1.4-0.3-2.7-0.7-4-1.1c-0.6-0.3-1.2-0.7-1.8-1.1c-0.4-0.4-0.8-0.8-1.2-1.2
	c-0.8-1.3-1.5-2.6-2.2-4c-0.7-1.9-1.4-3.8-1.9-5.7c1.9-0.1,3.8-0.1,5.7,0c2.3,0.1,4.6,0.4,6.9,0.4c2.2,0,4.4,0,6.7,0.2
	c2.5,0.2,5,0.2,7.5-0.2c2.3-0.4,5-2.1,6.5-3.9c0.8-0.9,1.5-1.9,2.1-2.8c0.8-1.3,1.3-2.8,1.8-4.2c0.6-2,0.8-4.3,0.8-6.4
	c0-1.2,0-2.4,0-3.7c0-4.1-1.3-7.9-3.1-11.6c-1.3-2.6-3-5-4.9-7.2c-2.9-3.4-7.1-5.2-11.3-6.5c-1-0.3-2.1-0.4-3.2-0.6
	c-1.7-0.3-3.3-0.5-5-0.5C-447.2,1689.5-448.3,1689.6-449.5,1689.8 M-446.1,1707c0.5,0,1,0,1.5,0.1c1.3,0.2,2.5,0.5,3.7,1
	c0.4,0.2,0.8,0.4,1.1,0.6c0.2,0.2,0.5,0.5,0.7,0.7c0.9,1.3,1.7,2.5,2.3,3.9c0.2,0.7,0.4,1.4,0.6,2.1c0.1,1.4,0.1,2.8,0,4.1
	c-0.6,0-1.2-0.1-1.8-0.1c-2.3-0.1-4.6-0.1-6.9-0.1c-2.4-0.1-4.8-0.4-7.2-0.5c-1.5,0-3,0-4.4,0.1c0.2-0.8,0.5-1.6,0.8-2.3
	c0.8-1.6,1.7-3.1,2.7-4.6c0.9-1,1.9-2,2.9-2.9c1.2-0.8,2.5-1.4,3.7-2.1C-446.3,1707.1-446.2,1707-446.1,1707"/>
<path class="st5" d="M-326.2,1996.1c0-1.1,0-2.1,0-3.2c0-1.6-0.3-3.2-0.5-4.9c-0.2-1.6-0.5-3.2-0.8-4.8c-0.6-3.8-2-7.6-4.3-10.8
	c-1-1.4-2-2.8-3.2-4c-1.1-1.1-2.4-2-3.8-2.8c-2.3-1.4-4.8-2.7-7.4-3.4c-2.5-0.7-5.2-1.1-7.8-1.1c-0.4,0-0.9,0-1.3,0
	c-1.1,0.1-2.3,0.2-3.4,0.5c-1.1,0.2-2.4,0.9-3.3,1.3c-1,0.4-1.9,1-2.8,1.6c0,0,0,0,0,0c0.1,0,0.1-0.1,0.2-0.1
	c-0.1,0-0.1,0.1-0.2,0.1c-0.4-1.2-1.1-2.3-2-3.3c-1.6-1.6-3.9-2.6-6.2-2.6c-2.3,0-4.6,0.9-6.2,2.6c-1.5,1.5-2.8,4-2.6,6.2
	c0.2,2.3,0.3,4.6,0.3,6.9c0,2.3,0.2,4.6,0.3,6.9c0.1,2.5,0,5,0.3,7.4c0.3,2.8,0.8,5.6,1.2,8.3c0.4,4.3,0.9,8.6,1.1,12.9
	c0.1,2,0.3,4,0.4,6c0.1,1.7,0,3.3,0.5,5c1.3,4.6,6.1,7.4,10.8,6.1c4.4-1.2,7.2-5.8,6.2-10.3c0-0.8,0-1.6-0.1-2.3
	c-0.2-2.6-0.4-5.3-0.5-7.9c-0.2-2.7-0.5-5.4-0.8-8c-0.2-1.8-0.4-3.6-0.7-5.5c0-0.1,0.1-0.2,0.1-0.3c0.3-1.3,0.9-2.6,1.3-3.9
	c0.2-0.5,0.3-1,0.5-1.4c1.1-2.3,2.5-4.4,4-6.5c0.6-0.7,1.2-1.3,1.8-1.9c0.2-0.1,0.4-0.3,0.7-0.4c0.7,0,1.3,0,2,0
	c0.9,0.2,1.8,0.5,2.7,0.8c0.8,0.4,1.7,0.9,2.4,1.4c0.2,0.2,0.4,0.4,0.6,0.6c0.5,0.6,0.9,1.3,1.3,2c0.9,2.5,1.3,5.2,1.7,7.9
	c0.2,2.1,0.1,4.2,0.1,6.2c0,2.3,0,4.6,0,6.9c0,2-0.2,4-0.3,6c-0.1,2-0.1,4-0.3,6c-0.2,2.2,1.1,4.7,2.6,6.2c1.6,1.6,3.9,2.6,6.2,2.6
	c2.3,0,4.6-0.9,6.2-2.6c0.5-0.6,0.9-1.2,1.4-1.8c0.8-1.4,1.2-2.8,1.2-4.4c0.3-3,0.3-6.1,0.4-9.1
	C-326.1,2003.6-326.2,1999.8-326.2,1996.1z"/>
<path class="st5" d="M340.9,800c-1.9,8.8-2.1,18-2.1,27c0,8.6-1.3,19,2.9,26.8c4,7.5,12.7,10.6,20.8,10.8
	c9.6,0.3,16.5-4.3,20.3-13.3c3.7-8.8,3.3-18.5,3.4-27.9c0.1-6.9,3.1-20.8-3.2-25.8c-2.7-2.1-6.4-2.4-9.3-0.4
	c-3.6,2.5-3.7,6.5-3.6,10.5c0.3,9.6,0.7,19.9-0.5,29.4c-0.5,4-0.9,9.4-5.3,10.2c-2.3,0.4-7.2-0.3-8.6-2.5c-1.9-3-0.6-11.4-0.6-14.9
	c0.1-5.8-0.1-11.5,0.4-17.3c-0.4,5.1,0.2-1.6,0.3-2.6c0.2-1.9,0.6-3.7,0.9-5.6c0.5-3.4,0.3-6.5-2.3-9.1
	C349.8,790.8,342.2,793.9,340.9,800"/>
<g>
	<path class="st5" d="M-173.2,754c-1.1,0.1-2.5,0.2-3.5,0.7c-1.2,0.4-2.3,1.1-3.2,1.9c-0.8,0.8-1.5,1.7-2,2.7
		c-0.1,0.1-0.1,0.2-0.2,0.4c-0.2,0.6-0.4,1.2-0.6,1.8c-1,5-2,10-2.6,15.1c-0.6,5.1-1.5,10.1-2.4,15.2c-0.4,2.4-0.6,4.8-0.9,7.2
		c-0.3,2.6-0.6,5.1-0.9,7.7c-0.3,2.9-0.5,5.9-0.5,8.9c0,1.3,0.5,2.6,0.8,3.8c0.3,1.1,0.9,2.1,1.5,3.1c0.9,1.5,2.2,2.8,3.6,3.8
		c2,1.5,4,2.2,6.4,2.8c2.7,0.7,5.4,0.9,8.2,0.9c1,0,2-0.2,3-0.4c1.8-0.4,3.6-0.9,5.4-1.4c1.1-0.4,2.3-0.7,3.4-1.1
		c1.7-0.6,3.3-1.5,4.7-2.5c2.6-1.7,4.9-3.8,6.9-6.2c3.8-4.6,6-10.4,7.5-16.1c1.4-5.1,2.3-10.4,2.2-15.7c-0.1-2.9-0.5-6-1.7-8.6
		c-1.1-2.6-2.6-5.1-4.1-7.4c-2.3-3.4-5-6.7-8.2-9.2c-1.5-1.1-3.2-2.2-4.9-3c-1.8-0.8-3.6-1.6-5.4-2.3c-1.9-0.6-3.7-1.3-5.7-1.6
		c-0.9-0.2-1.9-0.3-2.8-0.5c-0.8-0.1-1.7-0.2-2.6-0.2C-172.2,753.9-172.7,754-173.2,754 M-171.4,803.2c0.3-2,0.4-4,0.7-6
		c0.4-2.3,0.8-4.7,1.2-7c0.3-2.1,0.7-4.1,1-6.2c0.3-2.2,0.6-4.4,0.9-6.6c0.2-1.6,0.5-3.2,0.8-4.8c1.8,0.7,3.6,1.5,5.3,2.4
		c0.7,0.5,1.4,1.1,2,1.7c1.7,2,3.3,4.2,4.6,6.5c0.3,0.7,0.6,1.4,0.9,2.1c0.2,1.2,0.2,2.4,0.3,3.6c-0.3,3.6-1,7.2-2,10.7
		c-0.8,2.3-1.7,4.5-2.8,6.7c-0.7,1-1.5,1.8-2.3,2.7c-0.7,0.6-1.5,1.1-2.3,1.7c-1.1,0.4-2.2,0.7-3.3,1.1c-0.9,0.3-1.7,0.6-2.6,0.8
		c-0.5,0.1-1,0.1-1.5,0.2c-0.6-0.1-1.2-0.2-1.8-0.3C-172.2,809.3-171.8,806.3-171.4,803.2"/>
	<path class="st5" d="M156,831.7c2.7-0.6,5.3-1.3,7.8-2.6c1.4-0.7,2.6-1.7,3.8-2.6c0.7-0.6,1.4-1.2,2-1.9c1.5-1.8,3-3.6,3.9-5.8
		c0.9-2.1,1.7-4.1,2.3-6.4c0.9-3.1,0.8-6.1,0.1-9.3c-0.3-1.5-0.9-3.1-1.7-4.4c-0.6-0.9-1.3-1.9-2.1-2.6c-0.7-0.7-1.5-1.3-2.4-1.9
		c-1-0.8-2.1-1.6-3.2-2.3c-2.2-1.3-4.8-2.2-7.2-2.9c-2-0.6-4-1.2-6-1.6c-1.8-0.4-3.6-0.8-5.4-1.5c-2-0.9-3.9-2-5.7-3.2
		c-0.3-0.3-0.7-0.6-1-1c-0.4-0.6-0.7-1.2-1-1.8c-0.2-0.5-0.4-1.1-0.5-1.7c0-0.1,0-0.2,0-0.3c0.1-0.5,0.2-1,0.3-1.5
		c0.2-0.4,0.5-0.9,0.8-1.3c0.2-0.2,0.5-0.5,0.7-0.7c0.1,0,0.1-0.1,0.2-0.1c0.9-0.3,1.8-0.6,2.7-0.8c1.2-0.1,2.4,0,3.6,0.1
		c1.4,0.2,2.8,0.5,4.1,0.9c0.3,0.6,0.7,1.2,1,1.9c0.2,0.6,0.4,1.1,0.6,1.7c1.2,4.6,6.1,7.4,10.7,6.2c4.6-1.2,7.4-6.1,6.2-10.7
		c-0.1-0.5-0.3-0.9-0.5-1.4c-0.5-1.3-0.9-2.6-1.5-3.8c-0.4-1-0.9-1.9-1.5-2.9c-1.3-2.3-2.9-3.9-5-5.4c-1.6-1.1-3.4-1.9-5.3-2.4
		c-2.8-0.8-5.7-1.2-8.6-1.6c-1-0.1-1.9-0.2-2.9-0.2c-1.9,0-3.8,0.3-5.7,0.7c-1.1,0.2-2.1,0.6-3.1,1c-1.3,0.5-2.5,0.9-3.7,1.6
		c-1.7,1-3.2,2.2-4.5,3.6c-2.2,2.4-3.7,5.1-4.9,8.2c-0.4,1-0.5,2.1-0.7,3.1c-0.2,1.3-0.4,2.6-0.5,3.9c-0.1,1.2,0.2,2.5,0.4,3.6
		c0.3,1.9,1.1,3.7,1.9,5.5c0.6,1.3,1.2,2.7,2,3.9c1.7,2.6,3.9,4.5,6.4,6.3c4,2.9,8.8,5,13.5,6.2c3.6,1,7.2,1.7,10.7,3
		c0.7,0.3,1.3,0.7,1.9,1.2c-0.2,1-0.5,2-0.9,2.9c-0.3,0.6-0.7,1.2-1,1.8c-0.3,0.3-0.5,0.6-0.8,0.8c-0.3,0.2-0.7,0.4-1,0.6
		c-1.3,0.4-2.7,0.8-4,1c-0.9,0.1-1.9,0.1-2.8,0.1c-0.8-0.2-1.5-0.4-2.3-0.7c-1.4-0.7-2.7-1.5-4-2.4c-0.5-0.5-1-0.9-1.4-1.4
		c-0.2-0.3-0.3-0.5-0.5-0.8c-1.3-4.5-6.1-7.3-10.7-6.1c-4.6,1.2-7.4,6.1-6.2,10.7c0.9,3.3,2.9,6.2,5.1,8.7c1.5,1.6,3.3,2.9,5.1,4.1
		c4.5,2.9,9.6,5.1,15,5.3c0.3,0,0.5,0,0.8,0C151.5,832.5,153.8,832.2,156,831.7"/>
	<path class="st5" d="M-90.3,756.2c-2.7,0.4-5.3,1.7-7.7,2.9c-1,0.5-2.1,1.2-3,1.9c-1.6,1.1-3.2,2.3-4.6,3.7c-2.2,2-4.2,4.5-5.6,7.1
		c-1.5,2.8-2.6,5.8-3.7,8.8c-1.1,3.2-1.6,6.6-1.9,10c-0.5,5.6,0.5,11.3,2.2,16.6c1.3,3.8,3.5,7,6,10.2c1.9,2.4,4.1,4.5,6.7,6.2
		c1.9,1.3,3.8,2.3,6,3.1c2.5,1,5.1,1.4,7.8,1.6c2.3,0.1,4.5,0,6.8-0.4c1.7-0.3,3.4-1.1,5-1.8c0.8-0.3,1.6-0.7,2.3-1.2
		c2.5-1.6,5-3.4,7.2-5.5c1.3-1.2,2.4-2.7,3.4-4.1c0.7-1,1.5-2,2.1-3c2.9-4.5,4.7-9.8,6.3-14.8c0.6-1.9,1.1-3.7,1.4-5.7
		c0.4-2.7,0.6-5.3,0.6-8c0-2.5-0.1-4.9-0.7-7.3c-0.4-1.4-1.1-2.8-1.7-4.2c-0.2-0.4-0.4-0.8-0.6-1.2c-0.5-0.8-1-1.7-1.5-2.5
		c-1.3-2-2.9-4-4.7-5.6c-1-0.8-2-1.6-3.1-2.4c-1-0.7-2.2-1.1-3.4-1.6c-0.9-0.4-1.8-0.7-2.8-1c-0.7-0.4-1.5-0.8-2.3-1
		c-3.5-0.9-7-1.1-10.6-1.1c-0.1,0-0.3,0-0.4,0C-86.7,755.9-88.4,756-90.3,756.2 M-83.3,773.4c0.7,0,1.4,0,2.2,0
		c0.7,0.3,1.5,0.5,2.3,0.6c1.3,0.3,2.5,0.7,3.7,1.2c0.2,0.1,0.3,0.2,0.5,0.3c0.6,0.5,1.2,1.1,1.7,1.7c0.8,1.2,1.5,2.4,2.2,3.7
		c0.1,0.2,0.1,0.3,0.1,0.5c0,0.8,0,1.7,0,2.5c0,1.3-0.1,2.7-0.2,4c-0.4,2-1,3.9-1.6,5.8c-0.6,1.7-1.2,3.5-1.8,5.2
		c-1.1,2.2-2.3,4.4-3.8,6.4c-0.8,1-1.8,1.8-2.8,2.7c-1.1,0.8-2.3,1.6-3.6,2.2c-0.4,0.1-0.9,0.3-1.3,0.4c-0.9,0-1.8,0-2.7-0.1
		c-0.7-0.1-1.3-0.3-2-0.6c-0.9-0.5-1.8-1-2.6-1.6c-0.9-0.9-1.8-1.8-2.6-2.8c-0.8-1.1-1.6-2.3-2.2-3.5c-0.6-1.9-1.1-3.8-1.4-5.8
		c-0.2-2.2-0.1-4.4,0-6.6c0.5-2.6,1.3-5.1,2.2-7.6c0.6-1.1,1.2-2.2,1.8-3.2c0.8-1,1.7-1.8,2.7-2.7c1.4-1,2.9-1.9,4.5-2.6
		c0.3-0.1,0.7-0.2,1-0.3C-85.8,773.3-84.6,773.4-83.3,773.4"/>
	<path class="st5" d="M-12.2,756.2c-2.7,0.4-5.3,1.7-7.7,2.9c-1,0.5-2.1,1.2-3,1.9c-1.6,1.1-3.2,2.3-4.6,3.7c-2.2,2-4.2,4.5-5.6,7.1
		c-1.5,2.8-2.6,5.8-3.7,8.8c-1.1,3.2-1.6,6.6-1.9,10c-0.5,5.6,0.5,11.3,2.2,16.6c1.3,3.8,3.5,7,6,10.2c1.9,2.4,4.1,4.5,6.7,6.2
		c1.9,1.3,3.8,2.3,6,3.1c2.5,1,5.1,1.4,7.8,1.6c2.3,0.1,4.5,0,6.8-0.4c1.7-0.3,3.4-1.1,5-1.8c0.8-0.3,1.6-0.7,2.3-1.2
		c2.5-1.6,5-3.4,7.2-5.5c1.3-1.2,2.4-2.7,3.4-4.1c0.7-1,1.5-2,2.1-3c2.9-4.5,4.7-9.8,6.3-14.8c0.6-1.9,1.1-3.7,1.4-5.7
		c0.4-2.7,0.6-5.3,0.6-8c0-2.5-0.1-4.9-0.7-7.3c-0.4-1.4-1.1-2.8-1.7-4.2c-0.2-0.4-0.4-0.8-0.6-1.2c-0.5-0.8-1-1.7-1.5-2.5
		c-1.3-2-2.9-4-4.7-5.6c-1-0.8-2-1.6-3.1-2.4c-1-0.7-2.2-1.1-3.4-1.6c-0.9-0.4-1.8-0.7-2.7-1c-0.7-0.4-1.5-0.8-2.3-1
		c-3.5-0.9-7-1.1-10.6-1.1c-0.1,0-0.3,0-0.4,0C-8.6,755.9-10.3,756-12.2,756.2 M-5.3,773.4c0.7,0,1.4,0,2.2,0
		c0.7,0.3,1.5,0.5,2.3,0.6c1.3,0.3,2.5,0.7,3.7,1.2c0.2,0.1,0.3,0.2,0.5,0.3c0.6,0.5,1.2,1.1,1.7,1.7c0.8,1.2,1.5,2.4,2.2,3.7
		c0.1,0.2,0.1,0.3,0.1,0.5c0,0.8,0,1.7,0,2.5c0,1.3-0.1,2.7-0.2,4c-0.4,2-1,3.9-1.6,5.8c-0.6,1.7-1.2,3.5-1.8,5.2
		c-1.1,2.2-2.3,4.4-3.8,6.4c-0.8,1-1.8,1.8-2.8,2.7c-1.1,0.8-2.3,1.6-3.6,2.2c-0.4,0.1-0.9,0.3-1.3,0.4c-0.9,0-1.8,0-2.7-0.1
		c-0.7-0.1-1.3-0.3-2-0.6c-0.9-0.5-1.8-1-2.6-1.6c-0.9-0.9-1.8-1.8-2.6-2.8c-0.8-1.1-1.6-2.3-2.2-3.5c-0.6-1.9-1.1-3.8-1.4-5.8
		c-0.2-2.2-0.1-4.4,0-6.6c0.5-2.6,1.3-5.1,2.2-7.6c0.6-1.1,1.2-2.2,1.8-3.2c0.8-1,1.7-1.8,2.7-2.7c1.4-1,2.9-1.9,4.5-2.6
		c0.3-0.1,0.7-0.2,1-0.3C-7.7,773.3-6.5,773.4-5.3,773.4"/>
	<path class="st5" d="M52.5,755.6c-10.2,1.7-5.7,15.6-5.5,22.2c0.3,9.7,2,19.2,3.5,28.7c0.9,6.3-0.5,17.6,6.3,21
		c10.1,5,11.9-8.8,12.5-15.1c0.5-5,0.9-10,1.4-14.9c0.4-4.1,0-9.7,1.8-13.4c1.8-3.6,6.4-6.3,9.8-8.1c3.5-1.8,8.6-2.4,11.4-5
		c6.9-6.5-0.4-16.3-8.6-14.3c-8.2,2-16.5,6.9-22.3,13.1C62.5,763.3,60.6,755.2,52.5,755.6"/>
</g>
<path class="st5" d="M-475.4,1870.4c-0.3-2.9-0.8-5.9-1.4-8.8c-0.9-4.7-1.5-9.5-2.5-14.2c-0.5-2.5-1.3-4.9-1.9-7.3
	c-0.9-3.1-2-6-3.3-9c-0.7-1.7-1.6-3.3-2.6-4.9c-1-1.5-2-2.9-3.4-4c-1.3-1.1-2.6-2-4.1-2.8c-2-1.1-4.2-2.1-6.4-2.4
	c-1.9-0.3-3.7-0.4-5.6-0.5c-0.5,0-1,0-1.5,0c-0.4,0-0.8,0-1.1,0.1c-2.5,0.3-4.1,0.6-6.5,1.9c-1.4,0.8-2.6,1.8-3.8,2.9
	c-4,3.6-6.4,8.5-8.5,13.4c-0.9,2.2-1.4,4.5-1.9,6.8c-0.5,2.6-1,5.3-1.3,7.9c-0.2,1.5-0.4,3-0.6,4.5c-0.1,1.2-0.2,2.3-0.3,3.5
	c-0.3,2.6-0.3,5.2-0.4,7.8c-0.1,2.9-0.1,5.8-0.1,8.7c0,1.8-0.1,3.5,0,5.3c0.2,4.8,3.9,8.8,8.8,8.8c4.6,0,8.9-4,8.8-8.8
	c-0.1-1.6,0-3.2,0-4.8c0-2.6,0-5.1,0.1-7.7c2.4-0.2,4.9-0.3,7.3-0.6c4.6-0.4,9.2-0.6,13.8-0.6c0.3,1.8,0.6,3.5,0.9,5.3
	c0.2,2.1,0.2,4.1-0.1,6.2c0,0.3-0.1,0.6-0.1,0.9c0,1.6,0.4,3.1,1.2,4.4c1.1,2,3,3.4,5.2,4c2.3,0.6,4.7,0.3,6.7-0.9
	c1.8-1,3.7-3.1,4-5.2C-475.4,1876.9-475.1,1873.7-475.4,1870.4z M-513.5,1849.1c0.5-3.1,1.2-6.2,2.3-9.1c0.8-1.6,1.6-3.2,2.6-4.7
	c0.4-0.4,0.8-0.9,1.2-1.3c0.2,0,0.4,0,0.5,0c0.8,0,1.5,0,2.3,0.1c0.2,0.1,0.5,0.1,0.7,0.2c0.6,0.3,1.1,0.6,1.7,1
	c0.1,0.1,0.1,0.1,0.2,0.2c0.9,1.3,1.6,2.7,2.2,4.1c0.9,2.4,1.6,4.9,2.3,7.3c0.1,0.4,0.2,0.7,0.3,1.1c-3.5,0.1-6.9,0.3-10.4,0.6
	C-509.5,1848.8-511.5,1848.9-513.5,1849.1z"/>
<g>
	<path class="st5" d="M-1661.4,757.4c-2.7,0.4-5.3,1.7-7.7,2.9c-1,0.5-2.1,1.2-3,1.9c-1.6,1.1-3.2,2.3-4.6,3.7
		c-2.2,2-4.2,4.5-5.6,7.1c-1.5,2.8-2.6,5.8-3.7,8.8c-1.1,3.2-1.6,6.6-1.9,10c-0.5,5.6,0.5,11.3,2.2,16.6c1.3,3.8,3.5,7,6,10.2
		c1.9,2.4,4.1,4.5,6.7,6.2c1.9,1.3,3.8,2.3,6,3.1c2.5,1,5.1,1.4,7.8,1.6c2.3,0.1,4.5,0,6.8-0.4c1.7-0.3,3.4-1.1,5-1.8
		c0.8-0.3,1.6-0.7,2.3-1.2c2.5-1.6,5-3.4,7.2-5.5c1.3-1.2,2.4-2.7,3.4-4.1c0.7-1,1.5-2,2.1-3c2.9-4.5,4.7-9.8,6.3-14.8
		c0.6-1.9,1.1-3.7,1.4-5.7c0.4-2.7,0.6-5.3,0.6-8c0-2.5-0.1-4.9-0.7-7.3c-0.4-1.4-1.1-2.8-1.7-4.2c-0.2-0.4-0.4-0.8-0.6-1.2
		c-0.5-0.8-1-1.7-1.5-2.5c-1.3-2-2.9-4-4.7-5.6c-1-0.8-2-1.6-3.1-2.4c-1-0.7-2.2-1.1-3.4-1.6c-0.9-0.4-1.8-0.7-2.8-1
		c-0.7-0.4-1.5-0.8-2.3-1c-3.5-0.9-7-1.1-10.6-1.1c-0.1,0-0.3,0-0.4,0C-1657.8,757-1659.5,757.1-1661.4,757.4 M-1654.4,774.5
		c0.7,0,1.4,0,2.2,0c0.7,0.3,1.5,0.5,2.3,0.6c1.3,0.3,2.5,0.7,3.7,1.2c0.2,0.1,0.3,0.2,0.5,0.3c0.6,0.5,1.2,1.1,1.7,1.7
		c0.8,1.2,1.5,2.4,2.2,3.7c0.1,0.2,0.1,0.3,0.1,0.5c0,0.8,0,1.7,0,2.5c0,1.3-0.1,2.7-0.2,4c-0.4,2-1,3.9-1.6,5.8
		c-0.6,1.7-1.2,3.5-1.8,5.2c-1.1,2.2-2.3,4.4-3.8,6.4c-0.8,1-1.8,1.8-2.8,2.7c-1.1,0.8-2.3,1.6-3.6,2.2c-0.4,0.1-0.9,0.3-1.3,0.4
		c-0.9,0-1.8,0-2.7-0.1c-0.7-0.1-1.3-0.3-2-0.6c-0.9-0.5-1.8-1-2.6-1.6c-0.9-0.9-1.8-1.8-2.6-2.8c-0.8-1.1-1.6-2.3-2.2-3.5
		c-0.6-1.9-1.1-3.8-1.4-5.8c-0.2-2.2-0.1-4.4,0-6.6c0.5-2.6,1.3-5.1,2.2-7.6c0.6-1.1,1.2-2.2,1.8-3.2c0.8-1,1.7-1.8,2.7-2.7
		c1.4-1,2.9-1.9,4.5-2.6c0.3-0.1,0.7-0.2,1-0.3C-1656.9,774.5-1655.6,774.5-1654.4,774.5"/>
	<path class="st5" d="M-1573.6,758.2c-1.2,0-2.3,0-3.5,0.1c-6.5,0.5-12.2,3.7-16.6,8.4c-1.8,1.9-3.4,4.3-4.5,6.7
		c-1.3,2.6-2.4,5.3-3.3,8c-1.7,5.2-2.5,10.6-2.9,16c-0.6,7.4-0.3,14.8-0.6,22.2c-0.2,4.8,4.1,8.8,8.8,8.8c2.3,0,4.6-0.9,6.2-2.6
		c1.7-1.7,2.5-3.8,2.6-6.2c0.2-4.5,0.2-9,0.2-13.4c0-0.9,0-1.8,0.1-2.7c0.5,0.2,0.9,0.4,1.4,0.6c2.2,0.9,4.5,1.2,6.9,1.4
		c1.2,0.1,2.4,0,3.6,0c1.8-0.1,3.6-0.3,5.4-0.7c2.8-0.5,5.6-1.7,8-3.2c2.2-1.4,4.3-2.9,6.1-4.8c2.1-2.2,4.1-5.3,4.7-8.3
		c0.7-3.8,0.5-7.7-0.3-11.5c-0.2-1.1-0.5-2.1-0.9-3.2c-0.7-2-1.6-3.7-2.8-5.5c-1-1.6-2.1-3.1-3.6-4.3c-1.5-1.3-3.3-2.8-5.2-3.7
		c-3-1.5-6.2-2-9.5-2C-1573.5,758.2-1573.6,758.2-1573.6,758.2 M-1572.4,775.7c0.1,0,0.2,0.1,0.4,0.1c0.3,0.2,0.6,0.4,0.9,0.6
		c0.3,0.2,0.5,0.5,0.8,0.7c0.4,0.6,0.8,1.2,1.2,1.8c0.3,0.9,0.6,1.9,0.8,2.8c0.1,0.8,0.1,1.7,0.1,2.5c0,0,0,0.1-0.1,0.1
		c-0.4,0.4-0.7,0.7-1.1,1.1c-0.9,0.6-1.8,1.2-2.7,1.7c-0.8,0.3-1.6,0.5-2.4,0.6c-1.4,0.1-2.8,0.1-4.1,0.1c-0.6-0.1-1.2-0.3-1.7-0.5
		c-1.4-0.6-2.7-1.3-4-2.1c0.1-0.3,0.2-0.6,0.3-0.9c0.8-1.8,1.7-3.6,2.8-5.2c0.6-0.6,1.2-1.2,1.8-1.7c0.6-0.4,1.2-0.8,1.9-1.1
		c0.5-0.2,1-0.3,1.5-0.4C-1575,775.7-1573.7,775.6-1572.4,775.7"/>
	<path class="st5" d="M-1394,796.2c0-1.1,0-2.1,0-3.2c0-1.6-0.3-3.2-0.5-4.9c-0.2-1.6-0.5-3.2-0.8-4.8c-0.6-3.8-2-7.6-4.3-10.8
		c-1-1.4-2-2.8-3.2-4c-1.1-1.1-2.4-2-3.8-2.8c-2.3-1.4-4.8-2.7-7.4-3.4c-2.5-0.7-5.2-1.1-7.8-1.1c-0.4,0-0.9,0-1.3,0
		c-1.1,0.1-2.3,0.2-3.4,0.5c-1.1,0.2-2.4,0.9-3.3,1.3c-1,0.4-1.9,1-2.8,1.6c0,0,0,0,0,0c0.1,0,0.1-0.1,0.2-0.1
		c-0.1,0-0.1,0.1-0.2,0.1c-0.4-1.2-1.1-2.3-2-3.3c-1.6-1.6-3.9-2.6-6.2-2.6c-2.3,0-4.6,0.9-6.2,2.6c-1.5,1.5-2.8,4-2.6,6.2
		c0.2,2.3,0.3,4.6,0.3,6.9c0,2.3,0.2,4.6,0.3,6.9c0.1,2.5,0,5,0.3,7.4c0.3,2.8,0.8,5.6,1.2,8.3c0.4,4.3,0.9,8.6,1.1,12.9
		c0.1,2,0.3,4,0.4,6c0.1,1.7,0,3.3,0.5,5c1.3,4.6,6.1,7.4,10.8,6.1c4.4-1.2,7.2-5.8,6.2-10.3c0-0.8,0-1.6-0.1-2.3
		c-0.2-2.6-0.4-5.3-0.5-7.9c-0.2-2.7-0.5-5.4-0.8-8c-0.2-1.8-0.4-3.6-0.7-5.5c0-0.1,0.1-0.2,0.1-0.3c0.3-1.3,0.9-2.6,1.3-3.9
		c0.2-0.5,0.3-1,0.5-1.4c1.1-2.3,2.5-4.4,4-6.5c0.6-0.7,1.2-1.3,1.8-1.9c0.2-0.1,0.4-0.3,0.7-0.4c0.7,0,1.3,0,2,0
		c0.9,0.2,1.8,0.5,2.7,0.8c0.8,0.4,1.7,0.9,2.4,1.4c0.2,0.2,0.4,0.4,0.6,0.6c0.5,0.6,0.9,1.3,1.3,2c0.9,2.5,1.3,5.2,1.7,7.9
		c0.2,2.1,0.1,4.2,0.1,6.2c0,2.3,0,4.6,0,6.9c0,2-0.2,4-0.3,6c-0.1,2-0.1,4-0.3,6c-0.2,2.2,1.1,4.7,2.6,6.2c1.6,1.6,3.9,2.6,6.2,2.6
		c2.3,0,4.6-0.9,6.2-2.6c0.5-0.6,0.9-1.2,1.4-1.8c0.8-1.4,1.2-2.8,1.2-4.4c0.3-3,0.3-6.1,0.4-9.1
		C-1393.9,803.7-1394,799.9-1394,796.2z"/>
	<path class="st5" d="M-1237.8,796.2c0-1.1,0-2.1,0-3.2c0-1.6-0.3-3.2-0.5-4.9c-0.2-1.6-0.5-3.2-0.8-4.8c-0.6-3.8-2-7.6-4.3-10.8
		c-1-1.4-2-2.8-3.2-4c-1.1-1.1-2.4-2-3.8-2.8c-2.3-1.4-4.8-2.7-7.4-3.4c-2.5-0.7-5.2-1.1-7.8-1.1c-0.4,0-0.9,0-1.3,0
		c-1.1,0.1-2.3,0.2-3.4,0.5c-1.1,0.2-2.4,0.9-3.3,1.3c-1,0.4-1.9,1-2.8,1.6c0,0,0,0,0,0c0.1,0,0.1-0.1,0.2-0.1
		c-0.1,0-0.1,0.1-0.2,0.1c-0.4-1.2-1.1-2.3-2-3.3c-1.6-1.6-3.9-2.6-6.2-2.6c-2.3,0-4.6,0.9-6.2,2.6c-1.5,1.5-2.8,4-2.6,6.2
		c0.2,2.3,0.3,4.6,0.3,6.9c0,2.3,0.2,4.6,0.3,6.9c0.1,2.5,0,5,0.3,7.4c0.3,2.8,0.8,5.6,1.2,8.3c0.4,4.3,0.9,8.6,1.1,12.9
		c0.1,2,0.3,4,0.4,6c0.1,1.7,0,3.3,0.5,5c1.3,4.6,6.1,7.4,10.8,6.1c4.4-1.2,7.2-5.8,6.2-10.3c0-0.8,0-1.6-0.1-2.3
		c-0.2-2.6-0.4-5.3-0.5-7.9c-0.2-2.7-0.5-5.4-0.8-8c-0.2-1.8-0.4-3.6-0.7-5.5c0-0.1,0.1-0.2,0.1-0.3c0.3-1.3,0.9-2.6,1.3-3.9
		c0.2-0.5,0.3-1,0.5-1.4c1.1-2.3,2.5-4.4,4-6.5c0.6-0.7,1.2-1.3,1.8-1.9c0.2-0.1,0.4-0.3,0.7-0.4c0.7,0,1.3,0,2,0
		c0.9,0.2,1.8,0.5,2.7,0.8c0.8,0.4,1.7,0.9,2.4,1.4c0.2,0.2,0.4,0.4,0.6,0.6c0.5,0.6,0.9,1.3,1.3,2c0.9,2.5,1.3,5.2,1.7,7.9
		c0.2,2.1,0.1,4.2,0.1,6.2c0,2.3,0,4.6,0,6.9c0,2-0.2,4-0.3,6c-0.1,2-0.1,4-0.3,6c-0.2,2.2,1.1,4.7,2.6,6.2c1.6,1.6,3.9,2.6,6.2,2.6
		c2.3,0,4.6-0.9,6.2-2.6c0.5-0.6,0.9-1.2,1.4-1.8c0.8-1.4,1.2-2.8,1.2-4.4c0.3-3,0.3-6.1,0.4-9.1
		C-1237.7,803.7-1237.8,799.9-1237.8,796.2z"/>
	<path class="st5" d="M-1193.7,759.3c-8.5,2.3-13.8,10.9-17.5,18.3c-4,8-4.8,16.7-4.2,25.5c1.2,19.3,20.3,27.9,37.8,24.8
		c9.1-1.6,13.4-8.9,16.3-16.9c3.2-8.8,2.6-16.1-7.3-19.2c-6.4-2-17.6-6.1-21,2.4c-1.2,3.1-0.6,6.6,1.6,9c1.2,1.3,2.5,2.1,4.2,2.7
		c1.5,0.5,5.4,0.3,6.5,1.3c-2.1,4.7-5.5,4.3-10.5,3.6c-4.4-0.6-9.8-2.1-11.2-7c-1.3-4.6-0.4-11.8,1.2-16.2
		c1.5-4.1,4.9-11.1,9.5-12.3c5.5-1.4,10.8,2.5,16,1.7c4.8-0.7,7.8-5.9,6.8-10.4C-1167.9,756.4-1186.1,757.1-1193.7,759.3"/>
	<path class="st5" d="M-1512,763.8c-1.5,1.1-3,2.2-4.3,3.6c-0.4,0.5-0.9,0.9-1.3,1.4c-0.8,0.9-1.5,1.9-2.3,2.9
		c0.2-0.3,0.4-0.5,0.6-0.8c-1,1.3-1.9,2.6-2.7,4c-1.1,2-2,4.1-2.8,6.2c-1.6,4.1-2,8.6-2,13c0,1.8,0,3.6,0.3,5.5
		c0.4,2.8,0.7,5.5,1.7,8.1c0.7,1.8,1.4,3.6,2.5,5.1c1.1,1.5,2.3,3.1,3.6,4.4c1.2,1.1,2.4,2,3.6,3c-0.6-0.5-1.2-0.9-1.8-1.4
		c1.6,1.2,3.1,2.5,4.9,3.5c1.7,0.9,3.5,1.6,5.3,2.2c2.7,0.9,5.7,1.2,8.5,1.2c2.1,0,4.3,0.1,6.5,0c1.8-0.2,3.6-0.5,5.3-1
		c1.4-0.4,2.9-1,4.1-1.7c1.9-1.2,3.4-3,4-5.2c0.6-2.3,0.3-4.7-0.9-6.7c-2.3-4-7.8-5.7-11.8-3.2c-0.6,0.2-1.1,0.4-1.7,0.5
		c-1.3,0-2.6,0-3.8,0c-1.3,0-2.6,0-3.9-0.1c-0.7-0.2-1.5-0.4-2.2-0.7c-0.8-0.4-1.6-0.9-2.4-1.5c-0.9-0.7-1.7-1.5-2.4-2.4
		c-0.3-0.5-0.6-0.9-0.8-1.4c0-0.1-0.1-0.2-0.1-0.3c2.3,0.4,4.6,0.7,6.9,0.7c2.1,0,4.2,0.1,6.3,0.1c0.6,0,1.3,0,1.9,0
		c1.4,0,2.8,0,4.2,0.1c1.2,0.1,2.4,0.2,3.6,0.2c1.1,0,2.3,0,3.4-0.4c1.8-0.6,2.9-1.2,4.3-2.5c0.7-0.7,1.2-1.5,1.7-2.2
		c0.4-0.5,0.6-1.1,0.9-1.7c0.7-1.5,1.4-3.1,1.7-4.8c0.6-3.2,0.7-6.5,0-9.7c-0.5-2.4-1.6-4.8-2.7-7c-2.3-4.2-5.8-8.2-10-10.5
		c-2.1-1.1-4.5-2.1-6.8-2.8c-2.2-0.6-4.5-0.7-6.8-0.7h-0.1C-1504.2,760.6-1508.4,761.3-1512,763.8 M-1499.8,778.1c0.6,0,1.1,0,1.7,0
		c0.9,0.2,1.8,0.5,2.6,0.8c0.4,0.2,0.8,0.4,1.2,0.7c0.6,0.6,1.3,1.2,1.9,1.8c0.5,0.8,1,1.7,1.4,2.5c0.1,0.4,0.3,0.8,0.4,1.1
		c-0.8,0-1.7,0-2.5,0c-2.1,0-4.2-0.1-6.2-0.1c-1.9,0-3.7,0-5.6-0.2c-0.7-0.1-1.4-0.2-2.1-0.3c0.8,0.1,1.6,0.2,2.3,0.3
		c-0.8-0.1-1.5-0.2-2.3-0.3c-0.1,0-0.2,0-0.3-0.1c0.6-1.1,1.2-2.1,1.9-3.1c0.4-0.4,0.8-0.9,1.2-1.3c0.4-0.4,0.8-0.9,1.2-1.3
		c0.3-0.2,0.7-0.4,1-0.6c0.1,0,0.2,0,0.2-0.1C-1501.1,778.1-1500.5,778.1-1499.8,778.1 M-1506.5,804.8c0.4,0.3,0.8,0.6,1.2,1
		c0,0,0,0-0.1,0C-1505.8,805.4-1506.2,805.1-1506.5,804.8"/>
	<path class="st5" d="M-1328.1,813.6c-0.6-2.2-2.1-4.1-4-5.2c-0.6-0.2-1.2-0.5-1.7-0.7c-0.1-0.9-0.2-1.8-0.3-2.7
		c-0.1-1.5-0.1-3.1-0.1-4.6c0-1.7-0.3-3.5-0.4-5.2c-0.1-1.7-0.2-3.4-0.3-5.2c-0.1-1.8,0-3.6-0.1-5.4c-0.1-2.1-0.2-4.2-0.2-6.3
		c0.2-0.1,0.4-0.2,0.6-0.3c2-1.2,3.5-3.1,4-5.3c0.6-2.2,0.3-4.6-0.9-6.6c-0.5-0.6-0.9-1.2-1.4-1.8c-1.1-1.1-2.4-1.9-4-2.3
		c-1.6-0.6-3.3-0.9-5-0.9c-1.4,0-2.7,0.2-4.1,0.4c-1,0.2-2,0.5-3.1,0.6c0.8-0.1,1.5-0.2,2.2-0.3c-1.3,0.2-2.6,0.4-4,0.6
		c-0.8,0.1-1.6,0.2-2.4,0.4c-4.6,1.1-7.3,6.3-6.1,10.8c0.9,3.2,3.4,5.4,6.4,6.1c0,1.5,0.1,3,0.2,4.6c0.1,1.8,0,3.6,0.1,5.4
		c0.1,1.8,0.2,3.6,0.3,5.4c0.1,1.6,0.4,3.2,0.4,4.8c0,1.7,0,3.4,0.1,5.2c0.1,1,0.2,1.9,0.3,2.9c-1.6,0.4-3.1,1-4.4,2.3
		c-1.7,1.7-2.6,4-2.6,6.3c0,2.3,1,4.5,2.6,6.1c1.5,1.5,4.1,2.8,6.3,2.6c2.3-0.2,4.6-0.1,7-0.1c0.9,0,1.8,0,2.7,0
		c1.9,0,3.8-0.4,5.6-0.7c2.1-0.4,4.2-2.3,5.2-4C-1327.8,818.3-1327.5,815.9-1328.1,813.6z"/>
</g>
<g>
	<path class="st5" d="M-595.8,755.2c-2.5,0.9-1.9,0.6-4,2.2c-0.6,0.5-1.5,1.8-1.6,1.9c-0.6,0.8-1,1.8-1.3,2.8
		c-0.7,2.1-1,4.4-1.4,6.5c-0.4,2.2-0.8,4.4-1.1,6.7c-0.9,5.3-2,10.5-2.8,15.8c-0.4,2.7-0.8,5.5-1.1,8.2c-0.3,2.6-0.6,5.1-0.7,7.7
		c-0.1,2.8-0.1,5.6-0.3,8.4c-0.1,2.4-0.1,4.8-0.3,7.2c-0.4,4.8,4,8.8,8.6,8.9c2.3,0,4.6-0.8,6.2-2.4c1.7-1.7,2.5-3.8,2.7-6.1
		c0.2-2.2,0.2-4.5,0.3-6.7c0.1-2.6,0.2-5.2,0.3-7.8c0.1-4.9,0.7-9.8,1.4-14.7c0.1-0.7,0.2-1.4,0.3-2.1c0.3-1.6,0.6-3.2,0.9-4.7
		c0.2,0.5,0.3,1,0.5,1.6c0.5,1.6,1,3.3,1.4,5c0.2,0.6,0.4,1.3,0.5,2c0.7,2.4,1.9,4.5,4.1,5.9c1.3,0.8,2.8,1.3,4.4,1.3
		c1.6,0,3.1-0.3,4.4-1.1c0.6-0.4,1.2-0.9,1.8-1.3c1.3-1.3,1.7-2.2,2.4-3.9c0.1-0.4,0.2-0.8,0.3-1.2c0.1-0.6,0.3-1.1,0.4-1.7
		c0.3,3.7,0.5,7.3,0.6,11c0.1,5.6-0.1,11.2-0.3,16.7c-0.1,4.8,3.8,8.8,8.6,8.9c4.8,0.1,8.8-3.8,8.9-8.6c0.1-4.1,0.2-8.2,0.2-12.3
		c0-2.5,0.1-5-0.1-7.5c-0.1-2.5-0.2-4.9-0.4-7.4c-0.2-2.5-0.4-5-0.7-7.4c-0.4-3.3-0.8-6.6-1.4-9.9c-0.5-2.3-1.1-4.4-1.8-6.6
		c-0.9-2.8-1.7-5.7-3.1-8.3c-1-1.9-2.4-3.5-4.2-4.7c-2.6-1.9-6.8-2.1-9.5-0.3c-1.6,1-2.6,2-3.7,3.7c-0.2,0.3-0.4,0.6-0.5,0.9
		c-0.9,1.4-1.6,3-2.4,4.5c-0.4-0.7-0.8-1.3-1.2-2c-2.3-3.6-5-7.3-9.2-8.9c-1.3-0.5-3.4-0.7-5.1-0.4
		C-595,755-595.4,755.1-595.8,755.2"/>
	<path class="st5" d="M-508,757.4c-2.7,0.4-5.3,1.7-7.7,2.9c-1,0.5-2.1,1.2-3,1.9c-1.6,1.1-3.2,2.3-4.6,3.7c-2.2,2-4.2,4.5-5.6,7.1
		c-1.5,2.8-2.6,5.8-3.7,8.8c-1.1,3.2-1.6,6.6-1.9,10c-0.5,5.6,0.5,11.3,2.2,16.6c1.3,3.8,3.5,7,6,10.2c1.9,2.4,4.1,4.5,6.7,6.2
		c1.9,1.3,3.8,2.3,6,3.1c2.5,1,5.1,1.4,7.8,1.6c2.3,0.1,4.5,0,6.8-0.4c1.7-0.3,3.4-1.1,5-1.8c0.8-0.3,1.6-0.7,2.3-1.2
		c2.5-1.6,5-3.4,7.2-5.5c1.3-1.2,2.4-2.7,3.4-4.1c0.7-1,1.5-2,2.1-3c2.9-4.5,4.7-9.8,6.3-14.8c0.6-1.9,1.1-3.7,1.4-5.7
		c0.4-2.7,0.6-5.3,0.6-8c0-2.5-0.1-4.9-0.7-7.3c-0.4-1.4-1.1-2.8-1.7-4.2c-0.2-0.4-0.4-0.8-0.6-1.2c-0.5-0.8-1-1.7-1.5-2.5
		c-1.3-2-2.9-4-4.7-5.6c-1-0.8-2-1.6-3.1-2.4c-1-0.7-2.2-1.1-3.4-1.6c-0.9-0.4-1.8-0.7-2.8-1c-0.7-0.4-1.5-0.8-2.3-1
		c-3.5-0.9-7-1.1-10.6-1.1c-0.1,0-0.3,0-0.4,0C-504.4,757-506.2,757.1-508,757.4 M-501.1,774.5c0.7,0,1.4,0,2.2,0
		c0.7,0.3,1.5,0.5,2.3,0.6c1.3,0.3,2.5,0.7,3.7,1.2c0.2,0.1,0.3,0.2,0.5,0.3c0.6,0.5,1.2,1.1,1.7,1.7c0.8,1.2,1.5,2.4,2.2,3.7
		c0.1,0.2,0.1,0.3,0.1,0.5c0,0.8,0,1.7,0,2.5c0,1.3-0.1,2.7-0.2,4c-0.4,2-1,3.9-1.6,5.8c-0.6,1.7-1.2,3.5-1.8,5.2
		c-1.1,2.2-2.3,4.4-3.8,6.4c-0.8,1-1.8,1.8-2.8,2.7c-1.1,0.8-2.3,1.6-3.6,2.2c-0.4,0.1-0.9,0.3-1.3,0.4c-0.9,0-1.8,0-2.7-0.1
		c-0.7-0.1-1.3-0.3-2-0.6c-0.9-0.5-1.8-1-2.6-1.6c-0.9-0.9-1.8-1.8-2.6-2.8c-0.8-1.1-1.6-2.3-2.2-3.5c-0.6-1.9-1.1-3.8-1.4-5.8
		c-0.2-2.2-0.1-4.4,0-6.6c0.5-2.6,1.3-5.1,2.2-7.6c0.6-1.1,1.2-2.2,1.8-3.2c0.8-1,1.7-1.8,2.7-2.7c1.4-1,2.9-1.9,4.5-2.6
		c0.3-0.1,0.7-0.2,1-0.3C-503.5,774.5-502.3,774.5-501.1,774.5"/>
	<path class="st5" d="M-443.3,756.7c-10.2,1.7-5.7,15.6-5.5,22.2c0.3,9.7,2,19.2,3.5,28.7c0.9,6.3-0.5,17.6,6.3,21
		c10.1,5,11.9-8.8,12.5-15.1c0.5-5,0.9-10,1.4-14.9c0.4-4.1,0-9.7,1.8-13.4c1.8-3.6,6.4-6.3,9.8-8.1c3.5-1.8,8.6-2.4,11.4-5
		c6.9-6.5-0.4-16.3-8.6-14.3c-8.2,2-16.5,6.9-22.3,13.1C-433.3,764.4-435.2,756.3-443.3,756.7"/>
	<path class="st5" d="M-358.6,763.8c-1.5,1.1-3,2.2-4.3,3.6c-0.4,0.5-0.9,0.9-1.3,1.4c-0.8,0.9-1.5,1.9-2.3,2.9l0.6-0.8
		c-1,1.3-1.9,2.6-2.7,4c-1.1,2-2,4.1-2.8,6.2c-1.6,4.1-2,8.6-2,13c0,1.8,0,3.6,0.3,5.5c0.4,2.8,0.7,5.5,1.7,8.1
		c0.7,1.8,1.4,3.6,2.5,5.1c1.1,1.5,2.3,3.1,3.6,4.4c1.2,1.1,2.4,2,3.6,3c-0.6-0.5-1.2-0.9-1.8-1.4c1.6,1.2,3.1,2.5,4.9,3.5
		c1.7,0.9,3.5,1.6,5.3,2.2c2.7,0.9,5.7,1.2,8.5,1.2c2.1,0,4.3,0.1,6.5,0c1.8-0.2,3.6-0.5,5.3-1c1.4-0.4,2.9-1,4.1-1.7
		c1.9-1.2,3.4-3,4-5.2c0.6-2.3,0.3-4.7-0.9-6.7c-2.3-4-7.8-5.7-11.8-3.2c-0.6,0.2-1.1,0.4-1.7,0.5c-1.3,0-2.6,0-3.8,0
		c-1.3,0-2.6,0-3.9-0.1c-0.7-0.2-1.5-0.4-2.2-0.7c-0.8-0.4-1.6-0.9-2.4-1.5c-0.9-0.7-1.7-1.5-2.4-2.4c-0.3-0.5-0.6-0.9-0.8-1.4
		c0-0.1-0.1-0.2-0.1-0.3c2.3,0.4,4.6,0.7,6.9,0.7c2.1,0,4.2,0.1,6.3,0.1c0.6,0,1.3,0,1.9,0c1.4,0,2.8,0,4.2,0.1
		c1.2,0.1,2.4,0.2,3.6,0.2c1.1,0,2.3,0,3.4-0.4c1.8-0.6,2.9-1.2,4.3-2.5c0.7-0.7,1.2-1.5,1.7-2.2c0.4-0.5,0.6-1.1,0.9-1.7
		c0.7-1.5,1.4-3.1,1.7-4.8c0.6-3.2,0.7-6.5,0-9.7c-0.5-2.4-1.6-4.8-2.7-7c-2.3-4.2-5.8-8.2-10-10.5c-2.1-1.1-4.5-2.1-6.8-2.8
		c-2.2-0.6-4.5-0.7-6.8-0.7h-0.1C-350.9,760.6-355,761.3-358.6,763.8 M-346.4,778.1c0.6,0,1.1,0,1.7,0c0.9,0.2,1.8,0.5,2.6,0.8
		c0.4,0.2,0.8,0.4,1.2,0.7c0.6,0.6,1.3,1.2,1.9,1.8c0.5,0.8,1,1.7,1.4,2.5c0.1,0.4,0.3,0.8,0.4,1.1c-0.8,0-1.7,0-2.5,0
		c-2.1,0-4.2-0.1-6.2-0.1c-1.9,0-3.7,0-5.6-0.2c-0.7-0.1-1.4-0.2-2.1-0.3c0.8,0.1,1.6,0.2,2.3,0.3c-0.8-0.1-1.5-0.2-2.3-0.3
		c-0.1,0-0.2,0-0.3-0.1c0.6-1.1,1.2-2.1,1.9-3.1c0.4-0.4,0.8-0.9,1.2-1.3c0.4-0.4,0.8-0.9,1.2-1.3c0.3-0.2,0.7-0.4,1-0.6
		c0.1,0,0.2,0,0.2-0.1C-347.8,778.1-347.1,778.1-346.4,778.1 M-353.2,804.8c0.4,0.3,0.8,0.6,1.2,1c0,0,0,0-0.1,0
		C-352.4,805.4-352.8,805.1-353.2,804.8"/>
</g>
<g>
	<path class="st5" d="M-740,796.3c0-1.1,0-2.1,0-3.2c0-1.6-0.3-3.2-0.5-4.9c-0.2-1.6-0.5-3.2-0.8-4.8c-0.6-3.8-2-7.6-4.3-10.8
		c-1-1.4-2-2.8-3.2-4c-1.1-1.1-2.4-2-3.8-2.8c-2.3-1.4-4.8-2.7-7.4-3.4c-2.5-0.7-5.2-1.1-7.8-1.1c-0.4,0-0.9,0-1.3,0
		c-1.1,0.1-2.3,0.2-3.4,0.5c-1.1,0.2-2.4,0.9-3.3,1.3c-1,0.4-1.9,1-2.8,1.6c0,0,0,0,0,0c0.1,0,0.1-0.1,0.2-0.1
		c-0.1,0-0.1,0.1-0.2,0.1c-0.4-1.2-1.1-2.3-2-3.3c-1.6-1.6-3.9-2.6-6.2-2.6c-2.3,0-4.6,0.9-6.2,2.6c-1.5,1.5-2.8,4-2.6,6.2
		c0.2,2.3,0.3,4.6,0.3,6.9c0,2.3,0.2,4.6,0.3,6.9c0.1,2.5,0,5,0.3,7.4c0.3,2.8,0.8,5.6,1.2,8.3c0.4,4.3,0.9,8.6,1.1,12.9
		c0.1,2,0.3,4,0.4,6c0.1,1.7,0,3.3,0.5,5c1.3,4.6,6.1,7.4,10.8,6.1c4.4-1.2,7.2-5.8,6.2-10.3c0-0.8,0-1.6-0.1-2.3
		c-0.2-2.6-0.4-5.3-0.5-7.9c-0.2-2.7-0.5-5.4-0.8-8c-0.2-1.8-0.4-3.6-0.7-5.5c0-0.1,0.1-0.2,0.1-0.3c0.3-1.3,0.9-2.6,1.3-3.9
		c0.2-0.5,0.3-1,0.5-1.4c1.1-2.3,2.5-4.4,4-6.5c0.6-0.7,1.2-1.3,1.8-1.9c0.2-0.1,0.4-0.3,0.7-0.4c0.7,0,1.3,0,2,0
		c0.9,0.2,1.8,0.5,2.7,0.8c0.8,0.4,1.7,0.9,2.4,1.4c0.2,0.2,0.4,0.4,0.6,0.6c0.5,0.6,0.9,1.3,1.3,2c0.9,2.5,1.3,5.2,1.7,7.9
		c0.2,2.1,0.1,4.2,0.1,6.2c0,2.3,0,4.6,0,6.9c0,2-0.2,4-0.3,6c-0.1,2-0.1,4-0.3,6c-0.2,2.2,1.1,4.7,2.6,6.2c1.6,1.6,3.9,2.6,6.2,2.6
		c2.3,0,4.6-0.9,6.2-2.6c0.5-0.6,0.9-1.2,1.4-1.8c0.8-1.4,1.2-2.8,1.2-4.4c0.3-3,0.3-6.1,0.4-9.1C-739.9,803.8-740,800-740,796.3z"
		/>
	<path class="st5" d="M-984.2,759.5c-4,0.3-7.9,0.9-11.9,1.3c-2.1,0.2-4.2,0.5-6.2,0.7c-1.5,0.1-2.9,0.1-4.4,0.1
		c-2.6-0.1-5.1-0.3-7.6-0.7c-1.8-0.3-3.6-0.5-5.4-0.9c-1-0.2-2-0.2-3,0c-1.3,0.3-2.6,0.9-3.5,1.6c-1.8,1.4-3,3.4-3.4,5.7
		c-0.3,2.3,0.3,4.7,1.7,6.6c0.5,0.5,1,1.1,1.6,1.6c1.2,0.9,2.6,1.5,4.1,1.8c2.5,0.6,5.1,0.9,7.6,1.2c0.1,0,0.1,0,0.2,0
		c0,0.6,0,1.2,0,1.8c-0.1,2.8-0.3,5.6-0.4,8.5c-0.1,3.2-0.4,6.4-0.5,9.6c-0.1,3.8-0.2,7.7,0.1,11.5c0.3,3.4,1,6.6,1.8,9.8
		c-0.1-0.5-0.3-1.1-0.4-1.6c0.1,0.4,0.2,0.9,0.3,1.3c0.7,4.7,4.9,8.2,9.7,7.7c4.6-0.6,8.3-5,7.7-9.7c-0.1-1-0.4-1.9-0.7-2.9
		c-0.2-0.7-0.3-1.4-0.5-2.1c-0.3-1.5-0.4-3.1-0.6-4.6c-0.2-2.3-0.2-4.6-0.2-6.9c0.1-3.3,0.4-6.6,0.5-9.8c0.1-3.9,0.4-7.8,0.4-11.7
		c0-0.3,0-0.6,0.1-0.8c5-0.5,10-1.3,15-1.7c4.8-0.4,8.2-5.1,7.7-9.7C-975.1,762.3-979.5,759.1-984.2,759.5z"/>
	<path class="st5" d="M-857.2,764c-1.6,1.1-3.1,2.2-4.5,3.6c-1.1,1-2,2.3-2.9,3.4c-0.9,1-1.6,2.1-2.3,3.3c-1.6,2.9-2.9,6-3.7,9.2
		c-0.8,3-1.2,6.1-1.5,9.2c-0.4,3.9-0.5,8,0.5,11.8c0.6,2,1.5,4,2.4,5.9c0.8,1.7,1.9,3.2,3,4.7c1.5,2.1,3.9,3.7,6.3,4.7
		c2.4,0.9,5,1.1,7.6,1.2c1.5,0.1,2.9,0,4.4-0.1c2.1-0.2,4-1,5.9-1.8c0.6-0.3,1.1-0.6,1.7-1c1-0.7,2-1.4,2.9-2.2
		c0.4,1.7,0.9,3.4,1.6,5c0.9,2,3,3.6,5,4.3c2.2,0.7,4.7,0.5,6.8-0.6c2-1.1,3.6-2.9,4.3-5c0.6-1.8,0.5-3.5,0-5.2l0.2,0.5
		c-0.6-1.6-0.9-3.4-1.3-5.1c-0.5-2.2-1.1-4.4-1.5-6.7c-0.1-2.4-0.1-4.7-0.5-7.1c-0.2-1.4-0.5-2.7-0.7-4.1c-0.1-1.5-0.2-3.1-0.5-4.6
		c-0.1-0.8-0.3-1.7-0.4-2.5c0-1.5,0-3-0.2-4.5c-0.1-0.8-0.4-1.5-0.8-2.2c0.2-1.7,0-3.5-0.9-5.2c-0.7-1.2-1.4-2.2-2.2-3.3
		c-1.1-1.5-2.3-2.6-3.8-3.8c-1.4-1.1-3-1.9-4.7-2.6c-1.9-0.8-3.8-1.2-5.8-1.5c-1.3-0.2-2.6-0.3-3.9-0.4c-0.3,0-0.7,0-1,0
		C-851.1,761.1-854.4,762.1-857.2,764 M-847.6,778.6c0.9,0,1.8,0.1,2.7,0.2c0.5,0.1,1,0.3,1.6,0.5c0.2,0.1,0.4,0.2,0.6,0.4
		c0.2,0.2,0.3,0.3,0.5,0.5c0.1,0.2,0.3,0.4,0.4,0.7l0,0c-0.3,1.4-0.4,2.9-0.6,4.3c-1,4.6-2.1,9.3-4,13.6c-0.6,1.1-1.2,2.1-1.9,3.1
		c-0.4,0.4-0.8,0.8-1.2,1.2c-0.2,0.1-0.5,0.3-0.7,0.4c-0.1,0-0.2,0-0.3,0.1c-0.9,0-1.8-0.1-2.6-0.1c-0.5-0.9-1-1.8-1.4-2.8
		c-0.2-0.6-0.3-1.2-0.4-1.7c0-3,0.3-6,0.7-8.9c0.4-1.8,0.9-3.5,1.6-5.3c0.8-1.4,1.7-2.7,2.6-4c0.6-0.6,1.2-1.2,1.9-1.7
		C-848,778.8-847.8,778.7-847.6,778.6 M-853.9,803.1c0.1,0.1,0.2,0.2,0.3,0.3c0,0,0,0,0,0C-853.7,803.3-853.8,803.2-853.9,803.1
		 M-853.1,803.6c0.1,0,0.1,0,0.2,0C-853,803.6-853,803.6-853.1,803.6C-853.1,803.6-853.1,803.6-853.1,803.6"/>
	<path class="st5" d="M-947.3,760.8c-1.7,1.8-2.3,3.9-2.4,6.4c-0.1,2.4-0.4,4.7-0.5,7c-0.1,2.2,0,4.4,0,6.6c0,4.6,0,9.1,0.1,13.7
		c0.1,4.3,0,8.6,0.1,12.9c0,2.1,0.3,4.1,0.2,6.1c0,0.8-0.1,1.7-0.1,2.5c0,0.4-0.1,0.9,0,1.4c0.1,1.5,0.5,3,1.3,4.3
		c0.8,1.3,1.9,2.3,3.2,3.1c1.4,0.8,2.9,1.1,4.5,1.1l2.2-0.4c1.5-0.5,2.7-1.2,3.8-2.3c1.3-1.8,1.6-2.1,2.3-4.2c0.2-0.5,0.3-1,0.5-1.5
		c0.2-0.7,0.4-1.4,0.5-2.1c0.3-1.4,0.5-2.8,0.6-4.2c0.3-2.1,0.7-4.2,1.3-6.3c0.8-1.6,1.9-3,2.8-4.5c0.7-1.2,1.5-2.3,2.2-3.5
		c0.9-1.1,1.9-2.2,3-3.2c0.3-0.2,0.6-0.3,0.8-0.5c0.7-0.3,1.4-0.5,2.1-0.7c0.5,0,0.9,0,1.4,0c0.3,0,0.6,0.1,0.9,0.2
		c0.1,0.1,0.2,0.2,0.3,0.3c0.1,0.1,0.2,0.2,0.2,0.4c0.1,0.3,0.2,0.5,0.2,0.8c0.4,3.1,0.4,6.3,0.2,9.4c-0.2,3,0,6-0.2,9
		c-0.1,0.8-0.2,1.5-0.2,2.3c-0.2,1.6-0.5,3.4-0.4,5.1c0.3,2.3,1,4.4,2.7,6c1.7,1.6,4,2.5,6.4,2.4c2.3-0.1,4.4-1.1,6-2.7
		c1.5-1.6,2.6-4.1,2.4-6.4c0-0.4,0-0.7,0-1.1c0.3-2.5,0.6-5.1,0.7-7.7c0.1-2.4,0-4.8,0.1-7.2c0.2-2.6,0.2-5.1,0-7.7
		c-0.2-2.5-0.5-5-1.2-7.4c-1-3.4-3.4-6.7-6.1-8.9c-1.9-1.6-3.6-2.5-5.9-3.2c-0.9-0.3-1.8-0.4-2.7-0.6c-2.1-0.3-4.2-0.5-6.3-0.3
		c-3.2,0.3-6.2,1.4-9,2.7c-1.3,0.6-2.5,1.4-3.6,2.3c0-2-0.1-4.1,0-6.2c0.1-2.5,0.4-5,0.5-7.4c0.1-2.2-1.2-4.6-2.7-6
		c-1.7-1.6-4-2.5-6.4-2.4c-0.2,0-0.3,0-0.5,0C-943.9,758.3-945.8,759.3-947.3,760.8 M-898.7,817.1c0,0.1,0,0.3,0,0.4
		C-898.8,817.4-898.8,817.2-898.7,817.1"/>
</g>
<g>
	<path class="st5" d="M445.2,656c-0.3,0-0.7,0.1-1,0.2c-0.3,0.1-0.7,0.3-0.9,0.6c-0.2,0.2-0.4,0.5-0.6,0.8c0,0,0,0.1,0,0.1
		c-0.1,0.2-0.1,0.3-0.2,0.5c-0.3,1.5-0.6,2.9-0.8,4.4c-0.2,1.5-0.4,2.9-0.7,4.4c-0.1,0.7-0.2,1.4-0.3,2.1c-0.1,0.7-0.2,1.5-0.3,2.2
		c-0.1,0.9-0.1,1.7-0.1,2.6c0,0.4,0.1,0.7,0.2,1.1c0.1,0.3,0.3,0.6,0.4,0.9c0.3,0.4,0.6,0.8,1,1.1c0.6,0.4,1.2,0.6,1.9,0.8
		c0.8,0.2,1.6,0.3,2.4,0.3c0.3,0,0.6,0,0.9-0.1c0.5-0.1,1.1-0.3,1.6-0.4c0.3-0.1,0.7-0.2,1-0.3c0.5-0.2,0.9-0.4,1.4-0.7
		c0.8-0.5,1.4-1.1,2-1.8c1.1-1.3,1.7-3,2.2-4.7c0.4-1.5,0.7-3,0.6-4.6c0-0.8-0.2-1.7-0.5-2.5c-0.3-0.8-0.7-1.5-1.2-2.2
		c-0.7-1-1.4-1.9-2.4-2.7c-0.4-0.3-0.9-0.6-1.4-0.9c-0.5-0.2-1-0.5-1.6-0.7c-0.5-0.2-1.1-0.4-1.6-0.5c-0.3,0-0.5-0.1-0.8-0.1
		c-0.2,0-0.5-0.1-0.7-0.1C445.5,656,445.3,656,445.2,656 M445.7,670.2c0.1-0.6,0.1-1.2,0.2-1.7c0.1-0.7,0.2-1.4,0.3-2
		c0.1-0.6,0.2-1.2,0.3-1.8c0.1-0.6,0.2-1.3,0.3-1.9c0.1-0.5,0.1-0.9,0.2-1.4c0.5,0.2,1.1,0.4,1.5,0.7c0.2,0.2,0.4,0.3,0.6,0.5
		c0.5,0.6,0.9,1.2,1.3,1.9c0.1,0.2,0.2,0.4,0.3,0.6c0.1,0.3,0.1,0.7,0.1,1c-0.1,1-0.3,2.1-0.6,3.1c-0.2,0.7-0.5,1.3-0.8,1.9
		c-0.2,0.3-0.4,0.5-0.7,0.8c-0.2,0.2-0.4,0.3-0.7,0.5c-0.3,0.1-0.6,0.2-1,0.3c-0.3,0.1-0.5,0.2-0.8,0.2c-0.1,0-0.3,0-0.4,0.1
		c-0.2,0-0.4,0-0.5-0.1C445.5,672,445.6,671.1,445.7,670.2"/>
	<path class="st5" d="M540.7,678.5c0.8-0.2,1.5-0.4,2.2-0.8c0.4-0.2,0.8-0.5,1.1-0.8c0.2-0.2,0.4-0.3,0.6-0.6
		c0.4-0.5,0.9-1.1,1.1-1.7c0.3-0.6,0.5-1.2,0.7-1.8c0.3-0.9,0.2-1.8,0-2.7c-0.1-0.4-0.3-0.9-0.5-1.3c-0.2-0.3-0.4-0.5-0.6-0.8
		c-0.2-0.2-0.4-0.4-0.7-0.5c-0.3-0.2-0.6-0.5-0.9-0.7c-0.6-0.4-1.4-0.6-2.1-0.8c-0.6-0.2-1.2-0.3-1.7-0.5c-0.5-0.1-1.1-0.2-1.6-0.4
		c-0.6-0.3-1.1-0.6-1.7-0.9c-0.1-0.1-0.2-0.2-0.3-0.3c-0.1-0.2-0.2-0.4-0.3-0.5c-0.1-0.2-0.1-0.3-0.1-0.5c0,0,0-0.1,0-0.1
		c0-0.1,0.1-0.3,0.1-0.4c0.1-0.1,0.1-0.3,0.2-0.4c0.1-0.1,0.1-0.1,0.2-0.2c0,0,0,0,0.1,0c0.3-0.1,0.5-0.2,0.8-0.2c0.3,0,0.7,0,1,0
		c0.4,0.1,0.8,0.1,1.2,0.3c0.1,0.2,0.2,0.4,0.3,0.5c0.1,0.2,0.1,0.3,0.2,0.5c0.3,1.3,1.8,2.1,3.1,1.8c1.3-0.4,2.1-1.8,1.8-3.1
		c0-0.1-0.1-0.3-0.1-0.4c-0.1-0.4-0.3-0.7-0.4-1.1c-0.1-0.3-0.3-0.6-0.4-0.8c-0.4-0.7-0.8-1.1-1.4-1.6c-0.5-0.3-1-0.5-1.5-0.7
		c-0.8-0.2-1.6-0.4-2.5-0.4c-0.3,0-0.6-0.1-0.8-0.1c-0.6,0-1.1,0.1-1.7,0.2c-0.3,0.1-0.6,0.2-0.9,0.3c-0.4,0.1-0.7,0.3-1.1,0.5
		c-0.5,0.3-0.9,0.6-1.3,1.1c-0.7,0.7-1.1,1.5-1.4,2.4c-0.1,0.3-0.1,0.6-0.2,0.9c-0.1,0.4-0.1,0.8-0.1,1.1c0,0.3,0.1,0.7,0.1,1.1
		c0.1,0.6,0.3,1.1,0.5,1.6c0.2,0.4,0.4,0.8,0.6,1.1c0.5,0.8,1.1,1.3,1.8,1.8c1.2,0.8,2.5,1.4,3.9,1.8c1,0.3,2.1,0.5,3.1,0.9
		c0.2,0.1,0.4,0.2,0.6,0.3c-0.1,0.3-0.2,0.6-0.3,0.8c-0.1,0.2-0.2,0.3-0.3,0.5c-0.1,0.1-0.2,0.2-0.2,0.2c-0.1,0.1-0.2,0.1-0.3,0.2
		c-0.4,0.1-0.8,0.2-1.2,0.3c-0.3,0-0.5,0-0.8,0c-0.2-0.1-0.4-0.1-0.7-0.2c-0.4-0.2-0.8-0.4-1.2-0.7c-0.1-0.1-0.3-0.3-0.4-0.4
		c0-0.1-0.1-0.1-0.1-0.2c-0.4-1.3-1.8-2.1-3.1-1.8c-1.3,0.4-2.2,1.8-1.8,3.1c0.3,1,0.8,1.8,1.5,2.5c0.4,0.5,0.9,0.9,1.5,1.2
		c1.3,0.9,2.8,1.5,4.4,1.5c0.1,0,0.2,0,0.2,0C539.4,678.7,540,678.6,540.7,678.5"/>
	<path class="st5" d="M469.2,656.6c-0.8,0.1-1.5,0.5-2.2,0.9c-0.3,0.2-0.6,0.3-0.9,0.5c-0.5,0.3-0.9,0.7-1.3,1.1
		c-0.6,0.6-1.2,1.3-1.6,2.1c-0.4,0.8-0.8,1.7-1.1,2.5c-0.3,0.9-0.5,1.9-0.5,2.9c-0.1,1.6,0.1,3.3,0.6,4.8c0.4,1.1,1,2,1.7,2.9
		c0.5,0.7,1.2,1.3,1.9,1.8c0.6,0.4,1.1,0.7,1.7,0.9c0.7,0.3,1.5,0.4,2.2,0.5c0.7,0,1.3,0,2-0.1c0.5-0.1,1-0.3,1.4-0.5
		c0.2-0.1,0.5-0.2,0.7-0.3c0.7-0.5,1.5-1,2.1-1.6c0.4-0.4,0.7-0.8,1-1.2c0.2-0.3,0.4-0.6,0.6-0.9c0.8-1.3,1.4-2.8,1.8-4.3
		c0.2-0.5,0.3-1.1,0.4-1.6c0.1-0.8,0.2-1.5,0.2-2.3c0-0.7,0-1.4-0.2-2.1c-0.1-0.4-0.3-0.8-0.5-1.2c-0.1-0.1-0.1-0.2-0.2-0.4
		c-0.1-0.2-0.3-0.5-0.4-0.7c-0.4-0.6-0.8-1.2-1.4-1.6c-0.3-0.2-0.6-0.5-0.9-0.7c-0.3-0.2-0.6-0.3-1-0.5c-0.3-0.1-0.5-0.2-0.8-0.3
		c-0.2-0.1-0.4-0.2-0.7-0.3c-1-0.3-2-0.3-3.1-0.3c0,0-0.1,0-0.1,0C470.3,656.5,469.8,656.5,469.2,656.6 M471.2,661.6
		c0.2,0,0.4,0,0.6,0c0.2,0.1,0.4,0.1,0.7,0.2c0.4,0.1,0.7,0.2,1.1,0.3c0.1,0,0.1,0.1,0.2,0.1c0.2,0.2,0.3,0.3,0.5,0.5
		c0.2,0.3,0.4,0.7,0.6,1.1c0,0.1,0,0.1,0,0.2c0,0.2,0,0.5,0,0.7c0,0.4,0,0.8-0.1,1.2c-0.1,0.6-0.3,1.1-0.5,1.7
		c-0.2,0.5-0.3,1-0.5,1.5c-0.3,0.7-0.7,1.3-1.1,1.9c-0.2,0.3-0.5,0.5-0.8,0.8c-0.3,0.2-0.7,0.5-1,0.6c-0.1,0-0.3,0.1-0.4,0.1
		c-0.3,0-0.5,0-0.8,0c-0.2,0-0.4-0.1-0.6-0.2c-0.3-0.1-0.5-0.3-0.8-0.5c-0.3-0.3-0.5-0.5-0.8-0.8c-0.2-0.3-0.5-0.7-0.6-1
		c-0.2-0.5-0.3-1.1-0.4-1.7c-0.1-0.6,0-1.3,0-1.9c0.1-0.8,0.4-1.5,0.7-2.2c0.2-0.3,0.3-0.6,0.5-0.9c0.2-0.3,0.5-0.5,0.8-0.8
		c0.4-0.3,0.8-0.5,1.3-0.8c0.1,0,0.2-0.1,0.3-0.1C470.5,661.6,470.9,661.6,471.2,661.6"/>
	<path class="st5" d="M491.9,656.6c-0.8,0.1-1.5,0.5-2.2,0.9c-0.3,0.2-0.6,0.3-0.9,0.5c-0.5,0.3-0.9,0.7-1.3,1.1
		c-0.6,0.6-1.2,1.3-1.6,2.1c-0.4,0.8-0.8,1.7-1.1,2.5c-0.3,0.9-0.5,1.9-0.5,2.9c-0.1,1.6,0.1,3.3,0.6,4.8c0.4,1.1,1,2,1.7,2.9
		c0.5,0.7,1.2,1.3,1.9,1.8c0.6,0.4,1.1,0.7,1.7,0.9c0.7,0.3,1.5,0.4,2.2,0.5c0.7,0,1.3,0,2-0.1c0.5-0.1,1-0.3,1.4-0.5
		c0.2-0.1,0.5-0.2,0.7-0.3c0.7-0.5,1.5-1,2.1-1.6c0.4-0.4,0.7-0.8,1-1.2c0.2-0.3,0.4-0.6,0.6-0.9c0.8-1.3,1.4-2.8,1.8-4.3
		c0.2-0.5,0.3-1.1,0.4-1.6c0.1-0.8,0.2-1.5,0.2-2.3c0-0.7,0-1.4-0.2-2.1c-0.1-0.4-0.3-0.8-0.5-1.2c-0.1-0.1-0.1-0.2-0.2-0.4
		c-0.1-0.2-0.3-0.5-0.4-0.7c-0.4-0.6-0.8-1.2-1.4-1.6c-0.3-0.2-0.6-0.5-0.9-0.7c-0.3-0.2-0.6-0.3-1-0.5c-0.3-0.1-0.5-0.2-0.8-0.3
		c-0.2-0.1-0.4-0.2-0.7-0.3c-1-0.3-2-0.3-3.1-0.3c0,0-0.1,0-0.1,0C492.9,656.5,492.4,656.5,491.9,656.6 M493.9,661.6
		c0.2,0,0.4,0,0.6,0c0.2,0.1,0.4,0.1,0.7,0.2c0.4,0.1,0.7,0.2,1.1,0.3c0.1,0,0.1,0.1,0.2,0.1c0.2,0.2,0.3,0.3,0.5,0.5
		c0.2,0.3,0.4,0.7,0.6,1.1c0,0.1,0,0.1,0,0.2c0,0.2,0,0.5,0,0.7c0,0.4,0,0.8-0.1,1.2c-0.1,0.6-0.3,1.1-0.5,1.7
		c-0.2,0.5-0.3,1-0.5,1.5c-0.3,0.7-0.7,1.3-1.1,1.9c-0.2,0.3-0.5,0.5-0.8,0.8c-0.3,0.2-0.7,0.5-1,0.6c-0.1,0-0.3,0.1-0.4,0.1
		c-0.3,0-0.5,0-0.8,0c-0.2,0-0.4-0.1-0.6-0.2c-0.3-0.1-0.5-0.3-0.8-0.5c-0.3-0.3-0.5-0.5-0.8-0.8c-0.2-0.3-0.5-0.7-0.6-1
		c-0.2-0.5-0.3-1.1-0.4-1.7c-0.1-0.6,0-1.3,0-1.9c0.1-0.8,0.4-1.5,0.7-2.2c0.2-0.3,0.3-0.6,0.5-0.9c0.2-0.3,0.5-0.5,0.8-0.8
		c0.4-0.3,0.8-0.5,1.3-0.8c0.1,0,0.2-0.1,0.3-0.1C493.2,661.6,493.5,661.6,493.9,661.6"/>
	<path class="st5" d="M510.6,656.4c-2.9,0.5-1.7,4.5-1.6,6.4c0.1,2.8,0.6,5.6,1,8.3c0.3,1.8-0.2,5.1,1.8,6.1
		c2.9,1.4,3.4-2.5,3.6-4.4c0.1-1.4,0.3-2.9,0.4-4.3c0.1-1.2,0-2.8,0.5-3.9c0.5-1.1,1.8-1.8,2.8-2.3c1-0.5,2.5-0.7,3.3-1.5
		c2-1.9-0.1-4.7-2.5-4.1c-2.4,0.6-4.8,2-6.5,3.8C513.5,658.7,513,656.3,510.6,656.4"/>
</g>
<g>
	<path class="st5" d="M36.5,595.2c-0.8-0.2-1.6-0.1-2.4-0.1c-0.3,0-0.7,0.1-1,0.2c-0.6,0.1-1.1,0.3-1.6,0.5
		c-0.8,0.3-1.6,0.8-2.3,1.3c-0.7,0.6-1.3,1.3-1.9,2c-0.7,0.7-1.1,1.6-1.6,2.5c-0.7,1.4-1.1,3.1-1.2,4.7c-0.1,1.2,0.2,2.3,0.5,3.4
		c0.2,0.9,0.6,1.7,1.1,2.4c0.4,0.6,0.8,1,1.3,1.5c0.6,0.5,1.2,0.9,1.9,1.3c0.6,0.3,1.2,0.5,1.9,0.6c0.5,0.1,1,0.1,1.5,0.1
		c0.2,0,0.5,0,0.7-0.1c0.9-0.1,1.7-0.4,2.5-0.7c0.5-0.2,0.9-0.5,1.4-0.7c0.3-0.2,0.6-0.4,0.9-0.6c1.3-0.9,2.3-2.1,3.3-3.3
		c0.4-0.4,0.7-0.9,1-1.4c0.4-0.7,0.7-1.4,1-2.1c0.3-0.7,0.5-1.3,0.6-2c0.1-0.4,0-0.9,0-1.3c0-0.1,0-0.3,0-0.4c0-0.3-0.1-0.6-0.1-0.8
		c-0.1-0.7-0.3-1.4-0.7-2c-0.2-0.3-0.4-0.7-0.6-1c-0.2-0.3-0.5-0.5-0.7-0.8c-0.2-0.2-0.4-0.4-0.6-0.6c-0.1-0.2-0.3-0.4-0.5-0.5
		c-0.8-0.6-1.8-1.1-2.7-1.5c0,0-0.1,0-0.1,0C37.5,595.5,37,595.3,36.5,595.2 M36.5,600.5c0.2,0.1,0.4,0.2,0.6,0.2
		c0.2,0.2,0.4,0.3,0.6,0.4c0.3,0.2,0.6,0.5,0.9,0.7c0,0,0.1,0.1,0.1,0.1c0.1,0.2,0.2,0.4,0.3,0.6c0.1,0.4,0.1,0.8,0.2,1.2
		c0,0.1,0,0.1,0,0.2c-0.1,0.2-0.2,0.4-0.3,0.7c-0.2,0.4-0.3,0.7-0.5,1.1c-0.3,0.5-0.7,0.9-1.1,1.4c-0.3,0.4-0.7,0.8-1.1,1.2
		c-0.5,0.5-1.1,0.9-1.7,1.3c-0.3,0.2-0.7,0.3-1,0.4c-0.4,0.1-0.8,0.2-1.2,0.2c-0.1,0-0.3,0-0.4,0c-0.2-0.1-0.5-0.2-0.7-0.3
		c-0.2-0.1-0.3-0.2-0.5-0.4c-0.2-0.2-0.4-0.5-0.5-0.7c-0.2-0.3-0.3-0.7-0.4-1c-0.1-0.4-0.2-0.8-0.2-1.2c0-0.6,0.1-1.1,0.2-1.7
		c0.2-0.6,0.4-1.2,0.7-1.8c0.4-0.6,0.9-1.2,1.4-1.8c0.3-0.2,0.6-0.5,0.8-0.7c0.3-0.2,0.7-0.3,1-0.4c0.5-0.1,1-0.2,1.5-0.2
		c0.1,0,0.2,0,0.3,0C35.8,600.2,36.1,600.4,36.5,600.5"/>
	<path class="st5" d="M59.9,605c-0.3-0.1-0.6-0.2-1-0.3c-1.8-0.6-3.7-0.4-5.4,0.4c-0.7,0.3-1.4,0.8-2,1.3c-0.6,0.6-1.2,1.1-1.8,1.8
		c-1,1.2-1.8,2.6-2.5,4c-1,1.9-1.7,3.9-2.6,5.9c-0.6,1.3,0.2,2.8,1.4,3.3c0.6,0.3,1.3,0.3,1.9,0c0.6-0.3,1.1-0.8,1.4-1.4
		c0.5-1.2,1-2.4,1.5-3.6c0.1-0.2,0.2-0.5,0.3-0.7c0.1,0.1,0.2,0.2,0.3,0.3c0.5,0.5,1.1,0.8,1.7,1.1c0.3,0.2,0.7,0.3,1,0.4
		c0.5,0.2,1,0.3,1.5,0.4c0.8,0.2,1.7,0.2,2.5,0c0.7-0.1,1.5-0.3,2.2-0.6c0.8-0.4,1.7-1,2.2-1.7c0.6-0.9,1-2,1.2-3.1
		c0.1-0.3,0.1-0.6,0.1-1c0-0.6,0-1.2-0.1-1.8c-0.1-0.5-0.2-1.1-0.5-1.6c-0.3-0.5-0.6-1.1-1-1.6C61.7,605.9,60.9,605.4,59.9,605
		C60,605,60,605,59.9,605 M58.4,609.8C58.4,609.9,58.4,609.9,58.4,609.8c0.1,0.2,0.2,0.2,0.3,0.3c0,0.1,0.1,0.2,0.1,0.3
		c0,0.2,0.1,0.4,0.1,0.6c0,0.3-0.1,0.6-0.1,0.8c-0.1,0.2-0.2,0.5-0.3,0.7c0,0,0,0,0,0c-0.1,0.1-0.3,0.1-0.4,0.2
		c-0.3,0.1-0.6,0.1-0.9,0.2c-0.2,0-0.5-0.1-0.7-0.1c-0.4-0.1-0.8-0.3-1.1-0.4c-0.1-0.1-0.3-0.2-0.4-0.3c-0.3-0.3-0.6-0.6-0.8-1
		c0.1-0.1,0.1-0.1,0.2-0.2c0.4-0.4,0.8-0.8,1.3-1.1c0.2-0.1,0.4-0.2,0.7-0.3c0.2,0,0.4-0.1,0.6-0.1c0.1,0,0.3,0,0.4,0.1
		C57.7,609.6,58,609.7,58.4,609.8"/>
	<path class="st5" d="M104,634.9c0.1-0.3,0.2-0.6,0.3-0.8c0.2-0.4,0.3-0.9,0.4-1.4c0.1-0.5,0.2-0.9,0.3-1.4c0.3-1.1,0.3-2.3,0-3.4
		c-0.1-0.5-0.2-1-0.4-1.4c-0.2-0.4-0.4-0.8-0.7-1.2c-0.5-0.6-1-1.2-1.6-1.7c-0.6-0.5-1.3-0.9-2-1.1c-0.1,0-0.2-0.1-0.4-0.1
		c-0.3-0.1-0.6-0.2-1-0.2c-0.3-0.1-0.8,0-1,0c-0.3,0-0.6,0.1-0.9,0.1c0,0,0,0,0,0c0,0,0,0,0.1,0c0,0,0,0-0.1,0c0-0.4,0-0.7-0.2-1.1
		c-0.3-0.6-0.8-1.1-1.4-1.4c-0.6-0.3-1.3-0.3-1.9,0c-0.6,0.2-1.2,0.8-1.4,1.4c-0.2,0.6-0.4,1.3-0.7,1.9c-0.3,0.6-0.5,1.3-0.7,1.9
		c-0.2,0.7-0.5,1.3-0.7,2c-0.2,0.8-0.4,1.6-0.6,2.4c-0.4,1.2-0.7,2.4-1.1,3.6c-0.2,0.6-0.4,1.1-0.5,1.7c-0.2,0.5-0.4,0.9-0.4,1.4
		c-0.1,1.4,0.8,2.7,2.2,2.8c1.3,0.2,2.6-0.8,2.8-2.1c0.1-0.2,0.2-0.4,0.2-0.6c0.2-0.7,0.5-1.5,0.7-2.2c0.3-0.7,0.4-1.5,0.7-2.2
		c0.2-0.5,0.3-1,0.4-1.5c0,0,0,0,0.1-0.1c0.2-0.3,0.5-0.6,0.8-0.9c0.1-0.1,0.2-0.2,0.3-0.3c0.5-0.5,1.2-0.9,1.8-1.3
		c0.2-0.1,0.5-0.2,0.7-0.3c0.1,0,0.1,0,0.2,0c0.2,0.1,0.4,0.1,0.5,0.2c0.2,0.2,0.4,0.3,0.6,0.5c0.2,0.2,0.4,0.4,0.5,0.6
		c0,0.1,0.1,0.1,0.1,0.2c0.1,0.2,0.1,0.4,0.1,0.7c0,0.8-0.2,1.5-0.4,2.3c-0.2,0.6-0.4,1.1-0.7,1.7c-0.3,0.6-0.5,1.2-0.8,1.8
		c-0.2,0.5-0.5,1-0.7,1.6c-0.2,0.5-0.5,1.1-0.7,1.6c-0.3,0.6-0.2,1.4,0,1.9c0.3,0.6,0.8,1.1,1.4,1.4c0.6,0.3,1.3,0.3,1.9,0
		c0.2-0.1,0.4-0.2,0.6-0.3c0.4-0.3,0.6-0.6,0.8-1.1c0.4-0.8,0.7-1.6,1.1-2.4C103.2,637,103.6,635.9,104,634.9z"/>
	<path class="st5" d="M145.9,652.1c0.1-0.3,0.2-0.6,0.3-0.8c0.2-0.4,0.3-0.9,0.4-1.4c0.1-0.5,0.2-0.9,0.3-1.4c0.3-1.1,0.3-2.3,0-3.4
		c-0.1-0.5-0.2-1-0.4-1.4c-0.2-0.4-0.4-0.8-0.7-1.2c-0.5-0.6-1-1.2-1.6-1.7c-0.6-0.5-1.3-0.9-2-1.1c-0.1,0-0.2-0.1-0.4-0.1
		c-0.3-0.1-0.6-0.2-1-0.2c-0.3-0.1-0.8,0-1,0c-0.3,0-0.6,0.1-0.9,0.1c0,0,0,0,0,0c0,0,0,0,0.1,0c0,0,0,0-0.1,0c0-0.4,0-0.7-0.2-1.1
		c-0.3-0.6-0.8-1.1-1.4-1.4c-0.6-0.3-1.3-0.3-1.9,0c-0.6,0.2-1.2,0.8-1.4,1.4c-0.2,0.6-0.4,1.3-0.7,1.9c-0.3,0.6-0.5,1.3-0.7,1.9
		c-0.2,0.7-0.5,1.3-0.7,2c-0.2,0.8-0.4,1.6-0.6,2.4c-0.4,1.2-0.7,2.4-1.1,3.6c-0.2,0.6-0.4,1.1-0.5,1.7c-0.2,0.5-0.4,0.9-0.4,1.4
		c-0.1,1.4,0.8,2.7,2.2,2.8c1.3,0.2,2.6-0.8,2.8-2.1c0.1-0.2,0.2-0.4,0.2-0.6c0.2-0.7,0.5-1.5,0.7-2.2c0.3-0.7,0.4-1.5,0.7-2.2
		c0.2-0.5,0.3-1,0.4-1.5c0,0,0,0,0.1-0.1c0.2-0.3,0.5-0.6,0.8-0.9c0.1-0.1,0.2-0.2,0.3-0.3c0.5-0.5,1.2-0.9,1.8-1.3
		c0.2-0.1,0.5-0.2,0.7-0.3c0.1,0,0.1,0,0.2,0c0.2,0.1,0.4,0.1,0.5,0.2c0.2,0.2,0.4,0.3,0.6,0.5c0.2,0.2,0.4,0.4,0.5,0.6
		c0,0.1,0.1,0.1,0.1,0.2c0.1,0.2,0.1,0.4,0.1,0.7c0,0.8-0.2,1.5-0.4,2.3c-0.2,0.6-0.4,1.1-0.7,1.7c-0.3,0.6-0.5,1.2-0.8,1.8
		c-0.2,0.5-0.5,1-0.7,1.6c-0.2,0.5-0.5,1.1-0.7,1.6c-0.3,0.6-0.2,1.4,0,1.9c0.3,0.6,0.8,1.1,1.4,1.4c0.6,0.3,1.3,0.3,1.9,0
		c0.2-0.1,0.4-0.2,0.6-0.3c0.4-0.3,0.6-0.6,0.8-1.1c0.4-0.8,0.7-1.6,1.1-2.4C145.1,654.1,145.5,653.1,145.9,652.1z"/>
	<path class="st5" d="M161.8,647c-2.5-0.3-4.9,1.4-6.7,3c-2,1.7-3.1,3.9-3.9,6.4c-1.8,5.3,2.4,9.7,7.4,10.8c2.6,0.6,4.6-0.9,6.2-2.7
		c1.8-2,2.5-4,0.2-6c-1.5-1.2-4.1-3.6-5.9-1.7c-0.7,0.7-0.9,1.7-0.6,2.6c0.2,0.5,0.4,0.8,0.8,1.2c0.3,0.3,1.4,0.7,1.6,1.1
		c-1.1,1-2,0.5-3.2-0.2c-1.1-0.6-2.4-1.7-2.2-3.1c0.2-1.4,1.2-3.2,2.1-4.2c0.9-0.9,2.5-2.5,3.9-2.3c1.6,0.2,2.6,1.8,4.1,2.2
		c1.4,0.3,2.7-0.7,3-2.1C169,649.1,164.1,647.3,161.8,647"/>
	<path class="st5" d="M75.9,613.3c-0.5,0.1-1.1,0.3-1.5,0.5c-0.2,0.1-0.3,0.2-0.5,0.2c-0.3,0.1-0.6,0.3-0.9,0.5
		c0.1,0,0.2-0.1,0.2-0.1c-0.4,0.2-0.8,0.5-1.2,0.8c-0.5,0.4-1,0.9-1.4,1.3c-0.9,0.9-1.5,2.1-2,3.3c-0.2,0.5-0.4,1-0.5,1.5
		c-0.2,0.8-0.4,1.5-0.4,2.4c0,0.5,0,1.1,0.1,1.7c0.1,0.5,0.3,1.1,0.5,1.6c0.2,0.4,0.4,0.8,0.6,1.2c-0.1-0.2-0.2-0.4-0.3-0.6
		c0.3,0.5,0.6,1,0.9,1.5c0.3,0.4,0.8,0.8,1.2,1.2c0.6,0.5,1.4,0.9,2.1,1.3c0.6,0.2,1.1,0.5,1.7,0.7c0.5,0.2,1,0.3,1.5,0.3
		c0.4,0,0.9,0.1,1.3,0c0.7-0.1,1.2-0.4,1.7-1c0.4-0.5,0.6-1.2,0.5-1.9c-0.2-1.3-1.5-2.4-2.8-2.2c-0.2,0-0.3,0-0.5-0.1
		c-0.3-0.1-0.7-0.3-1-0.4c-0.3-0.1-0.7-0.3-1-0.5c-0.2-0.1-0.4-0.3-0.5-0.4c-0.2-0.2-0.3-0.4-0.5-0.6c-0.2-0.3-0.3-0.6-0.4-0.9
		c0-0.2-0.1-0.3-0.1-0.5c0,0,0-0.1,0-0.1c0.6,0.3,1.2,0.7,1.8,0.9c0.6,0.2,1.1,0.5,1.7,0.7c0.2,0.1,0.3,0.1,0.5,0.2
		c0.4,0.2,0.8,0.3,1.1,0.5c0.3,0.1,0.6,0.3,0.9,0.4c0.3,0.1,0.6,0.3,0.9,0.3c0.5,0,0.9,0,1.4-0.2c0.3-0.1,0.5-0.3,0.7-0.4
		c0.2-0.1,0.3-0.2,0.4-0.3c0.4-0.3,0.7-0.7,1-1.1c0.5-0.8,0.9-1.7,1.1-2.6c0.1-0.7,0.1-1.5,0-2.2c-0.1-1.4-0.6-2.8-1.5-3.9
		c-0.4-0.5-1-1-1.5-1.5c-0.5-0.4-1.1-0.7-1.7-0.9l0,0C78.3,613.3,77.1,613,75.9,613.3 M77.6,618.5c0.1,0.1,0.3,0.1,0.4,0.2
		c0.2,0.2,0.4,0.3,0.6,0.5c0.1,0.1,0.2,0.2,0.3,0.3c0.1,0.2,0.2,0.5,0.3,0.7c0.1,0.3,0.1,0.6,0.1,0.8c0,0.1,0,0.2,0,0.3
		c-0.2-0.1-0.4-0.2-0.7-0.3c-0.6-0.2-1.1-0.5-1.7-0.7c-0.5-0.2-1-0.4-1.5-0.7c-0.2-0.1-0.4-0.2-0.5-0.3c0.2,0.1,0.4,0.2,0.6,0.3
		c-0.2-0.1-0.4-0.2-0.6-0.3c0,0,0,0-0.1,0c0.3-0.2,0.5-0.4,0.8-0.6c0.2-0.1,0.3-0.1,0.5-0.2c0.2-0.1,0.3-0.1,0.5-0.2
		c0.1,0,0.2,0,0.3-0.1c0,0,0,0,0.1,0C77.2,618.3,77.4,618.4,77.6,618.5 M72.8,624.9c0.1,0.1,0.2,0.3,0.2,0.4c0,0,0,0,0,0
		C73,625.1,72.9,625,72.8,624.9"/>
	<path class="st5" d="M119.7,646.8c0.1-0.7-0.1-1.3-0.5-1.8c-0.1-0.1-0.3-0.3-0.4-0.4c0.1-0.3,0.1-0.5,0.2-0.7
		c0.1-0.4,0.3-0.8,0.5-1.2c0.2-0.5,0.3-1,0.5-1.4c0.1-0.5,0.3-1,0.5-1.4c0.2-0.5,0.4-1,0.6-1.5c0.2-0.6,0.4-1.1,0.6-1.7
		c0.1,0,0.1,0,0.2,0c0.7-0.1,1.3-0.5,1.7-1c0.4-0.5,0.6-1.2,0.5-1.9c-0.1-0.2-0.1-0.4-0.2-0.6c-0.2-0.4-0.5-0.8-0.8-1
		c-0.4-0.3-0.8-0.6-1.2-0.8c-0.4-0.1-0.8-0.3-1.1-0.3c-0.3-0.1-0.6-0.1-0.9-0.2c0.2,0.1,0.4,0.1,0.6,0.2c-0.4-0.1-0.8-0.2-1.1-0.3
		c-0.2-0.1-0.5-0.1-0.7-0.2c-1.4-0.2-2.7,0.9-2.8,2.2c-0.1,1,0.3,1.8,1.1,2.3c-0.2,0.4-0.3,0.8-0.5,1.2c-0.2,0.5-0.4,1-0.6,1.5
		c-0.2,0.5-0.3,1-0.5,1.5c-0.1,0.4-0.2,0.9-0.4,1.3c-0.2,0.5-0.4,0.9-0.5,1.4c-0.1,0.3-0.2,0.5-0.2,0.8c-0.5-0.1-0.9-0.1-1.4,0.1
		c-0.6,0.3-1.1,0.8-1.4,1.4c-0.2,0.6-0.2,1.3,0,1.9c0.2,0.6,0.8,1.2,1.4,1.4c0.6,0.2,1.3,0.5,1.9,0.7c0.2,0.1,0.5,0.2,0.7,0.3
		c0.5,0.2,1,0.3,1.6,0.4c0.6,0.1,1.4-0.1,1.8-0.5C119.3,648.2,119.7,647.5,119.7,646.8z"/>
</g>
<g>
	<path class="st5" d="M341.4,656.3c-0.7,0.3-0.5,0.2-1.2,0.6c-0.2,0.1-0.4,0.5-0.5,0.5c-0.2,0.2-0.3,0.5-0.4,0.8
		c-0.2,0.6-0.3,1.3-0.4,1.9c-0.1,0.6-0.2,1.3-0.3,1.9c-0.3,1.5-0.6,3-0.8,4.6c-0.1,0.8-0.2,1.6-0.3,2.4c-0.1,0.7-0.2,1.5-0.2,2.2
		c0,0.8,0,1.6-0.1,2.4c0,0.7,0,1.4-0.1,2.1c-0.1,1.4,1.2,2.6,2.5,2.6c0.7,0,1.3-0.2,1.8-0.7c0.5-0.5,0.7-1.1,0.8-1.8
		c0.1-0.6,0-1.3,0.1-1.9c0-0.8,0.1-1.5,0.1-2.3c0-1.4,0.2-2.9,0.4-4.3c0-0.2,0.1-0.4,0.1-0.6c0.1-0.5,0.2-0.9,0.3-1.4
		c0,0.2,0.1,0.3,0.1,0.5c0.1,0.5,0.3,1,0.4,1.4c0.1,0.2,0.1,0.4,0.2,0.6c0.2,0.7,0.6,1.3,1.2,1.7c0.4,0.2,0.8,0.4,1.3,0.4
		c0.5,0,0.9-0.1,1.3-0.3c0.2-0.1,0.4-0.3,0.5-0.4c0.4-0.4,0.5-0.6,0.7-1.1c0-0.1,0.1-0.2,0.1-0.3c0-0.2,0.1-0.3,0.1-0.5
		c0.1,1.1,0.1,2.1,0.2,3.2c0,1.6,0,3.2-0.1,4.9c0,1.4,1.1,2.6,2.5,2.6c1.4,0,2.6-1.1,2.6-2.5c0-1.2,0.1-2.4,0.1-3.6
		c0-0.7,0-1.4,0-2.2c0-0.7-0.1-1.4-0.1-2.1c0-0.7-0.1-1.4-0.2-2.2c-0.1-1-0.2-1.9-0.4-2.9c-0.1-0.7-0.3-1.3-0.5-1.9
		c-0.3-0.8-0.5-1.7-0.9-2.4c-0.3-0.5-0.7-1-1.2-1.4c-0.8-0.5-2-0.6-2.8-0.1c-0.5,0.3-0.8,0.6-1.1,1.1c-0.1,0.1-0.1,0.2-0.2,0.3
		c-0.3,0.4-0.5,0.9-0.7,1.3c-0.1-0.2-0.2-0.4-0.3-0.6c-0.7-1.1-1.5-2.1-2.7-2.6c-0.4-0.1-1-0.2-1.5-0.1
		C341.6,656.2,341.5,656.3,341.4,656.3"/>
	<path class="st5" d="M366.8,656.9c-0.8,0.1-1.5,0.5-2.2,0.9c-0.3,0.2-0.6,0.3-0.9,0.5c-0.5,0.3-0.9,0.7-1.3,1.1
		c-0.6,0.6-1.2,1.3-1.6,2.1c-0.4,0.8-0.8,1.7-1.1,2.5c-0.3,0.9-0.5,1.9-0.5,2.9c-0.1,1.6,0.1,3.3,0.6,4.8c0.4,1.1,1,2,1.7,2.9
		c0.5,0.7,1.2,1.3,1.9,1.8c0.6,0.4,1.1,0.7,1.7,0.9c0.7,0.3,1.5,0.4,2.2,0.5c0.7,0,1.3,0,2-0.1c0.5-0.1,1-0.3,1.4-0.5
		c0.2-0.1,0.5-0.2,0.7-0.3c0.7-0.5,1.5-1,2.1-1.6c0.4-0.4,0.7-0.8,1-1.2c0.2-0.3,0.4-0.6,0.6-0.9c0.8-1.3,1.4-2.8,1.8-4.3
		c0.2-0.5,0.3-1.1,0.4-1.6c0.1-0.8,0.2-1.5,0.2-2.3c0-0.7,0-1.4-0.2-2.1c-0.1-0.4-0.3-0.8-0.5-1.2c-0.1-0.1-0.1-0.2-0.2-0.4
		c-0.1-0.2-0.3-0.5-0.4-0.7c-0.4-0.6-0.8-1.2-1.4-1.6c-0.3-0.2-0.6-0.5-0.9-0.7c-0.3-0.2-0.6-0.3-1-0.5c-0.3-0.1-0.5-0.2-0.8-0.3
		c-0.2-0.1-0.4-0.2-0.7-0.3c-1-0.3-2-0.3-3.1-0.3c0,0-0.1,0-0.1,0C367.9,656.8,367.4,656.9,366.8,656.9 M368.8,661.9
		c0.2,0,0.4,0,0.6,0c0.2,0.1,0.4,0.1,0.7,0.2c0.4,0.1,0.7,0.2,1.1,0.3c0.1,0,0.1,0.1,0.2,0.1c0.2,0.2,0.3,0.3,0.5,0.5
		c0.2,0.3,0.4,0.7,0.6,1.1c0,0.1,0,0.1,0,0.2c0,0.2,0,0.5,0,0.7c0,0.4,0,0.8-0.1,1.2c-0.1,0.6-0.3,1.1-0.5,1.7
		c-0.2,0.5-0.3,1-0.5,1.5c-0.3,0.7-0.7,1.3-1.1,1.9c-0.2,0.3-0.5,0.5-0.8,0.8c-0.3,0.2-0.7,0.5-1,0.6c-0.1,0-0.3,0.1-0.4,0.1
		c-0.3,0-0.5,0-0.8,0c-0.2,0-0.4-0.1-0.6-0.2c-0.3-0.1-0.5-0.3-0.8-0.5c-0.3-0.3-0.5-0.5-0.8-0.8c-0.2-0.3-0.5-0.7-0.6-1
		c-0.2-0.5-0.3-1.1-0.4-1.7c-0.1-0.6,0-1.3,0-1.9c0.1-0.8,0.4-1.5,0.7-2.2c0.2-0.3,0.3-0.6,0.5-0.9c0.2-0.3,0.5-0.5,0.8-0.8
		c0.4-0.3,0.8-0.5,1.3-0.8c0.1,0,0.2-0.1,0.3-0.1C368.1,661.9,368.5,661.9,368.8,661.9"/>
	<path class="st5" d="M385.6,656.8c-2.9,0.5-1.7,4.5-1.6,6.4c0.1,2.8,0.6,5.6,1,8.3c0.3,1.8-0.2,5.1,1.8,6.1
		c2.9,1.4,3.4-2.5,3.6-4.4c0.1-1.4,0.3-2.9,0.4-4.3c0.1-1.2,0-2.8,0.5-3.9c0.5-1.1,1.8-1.8,2.8-2.3c1-0.5,2.5-0.7,3.3-1.5
		c2-1.9-0.1-4.7-2.5-4.1c-2.4,0.6-4.8,2-6.5,3.8C388.5,659,387.9,656.6,385.6,656.8"/>
	<path class="st5" d="M410.1,658.8c-0.4,0.3-0.9,0.6-1.2,1c-0.1,0.1-0.3,0.3-0.4,0.4c-0.2,0.3-0.4,0.6-0.7,0.8l0.2-0.2
		c-0.3,0.4-0.5,0.7-0.8,1.2c-0.3,0.6-0.6,1.2-0.8,1.8c-0.5,1.2-0.6,2.5-0.6,3.8c0,0.5,0,1.1,0.1,1.6c0.1,0.8,0.2,1.6,0.5,2.4
		c0.2,0.5,0.4,1,0.7,1.5c0.3,0.4,0.7,0.9,1.1,1.3c0.3,0.3,0.7,0.6,1.1,0.9c-0.2-0.1-0.3-0.3-0.5-0.4c0.5,0.4,0.9,0.7,1.4,1
		c0.5,0.3,1,0.5,1.5,0.6c0.8,0.3,1.6,0.3,2.5,0.3c0.6,0,1.3,0,1.9,0c0.5,0,1-0.1,1.5-0.3c0.4-0.1,0.9-0.3,1.2-0.5
		c0.6-0.4,1-0.9,1.2-1.5c0.2-0.7,0.1-1.4-0.3-2c-0.7-1.2-2.3-1.6-3.4-0.9c-0.2,0.1-0.3,0.1-0.5,0.1c-0.4,0-0.7,0-1.1,0
		c-0.4,0-0.7,0-1.1,0c-0.2,0-0.4-0.1-0.6-0.2c-0.2-0.1-0.5-0.3-0.7-0.4c-0.3-0.2-0.5-0.4-0.7-0.7c-0.1-0.1-0.2-0.3-0.2-0.4
		c0,0,0-0.1,0-0.1c0.7,0.1,1.3,0.2,2,0.2c0.6,0,1.2,0,1.8,0c0.2,0,0.4,0,0.6,0c0.4,0,0.8,0,1.2,0c0.3,0,0.7,0,1,0c0.3,0,0.7,0,1-0.1
		c0.5-0.2,0.8-0.3,1.2-0.7c0.2-0.2,0.3-0.4,0.5-0.6c0.1-0.1,0.2-0.3,0.3-0.5c0.2-0.4,0.4-0.9,0.5-1.4c0.2-0.9,0.2-1.9,0-2.8
		c-0.2-0.7-0.5-1.4-0.8-2c-0.7-1.2-1.7-2.4-2.9-3c-0.6-0.3-1.3-0.6-2-0.8c-0.6-0.2-1.3-0.2-2-0.2h0
		C412.4,657.9,411.2,658.1,410.1,658.8 M413.7,663c0.2,0,0.3,0,0.5,0c0.3,0.1,0.5,0.1,0.8,0.2c0.1,0.1,0.2,0.1,0.4,0.2
		c0.2,0.2,0.4,0.3,0.5,0.5c0.2,0.2,0.3,0.5,0.4,0.7c0,0.1,0.1,0.2,0.1,0.3c-0.2,0-0.5,0-0.7,0c-0.6,0-1.2,0-1.8,0
		c-0.5,0-1.1,0-1.6-0.1c-0.2,0-0.4-0.1-0.6-0.1c0.2,0,0.4,0.1,0.7,0.1c-0.2,0-0.4-0.1-0.7-0.1c0,0-0.1,0-0.1,0
		c0.2-0.3,0.3-0.6,0.5-0.9c0.1-0.1,0.2-0.3,0.4-0.4c0.1-0.1,0.2-0.3,0.4-0.4c0.1-0.1,0.2-0.1,0.3-0.2c0,0,0,0,0.1,0
		C413.3,663,413.5,663,413.7,663 M411.7,670.7c0.1,0.1,0.2,0.2,0.4,0.3c0,0,0,0,0,0C412,670.9,411.8,670.8,411.7,670.7"/>
</g>
<g>
	<path class="st5" d="M321.6,678.4c0-0.3,0-0.6,0-0.9c0-0.5-0.1-0.9-0.1-1.4c-0.1-0.5-0.1-0.9-0.2-1.4c-0.2-1.1-0.6-2.2-1.2-3.1
		c-0.3-0.4-0.6-0.8-0.9-1.2c-0.3-0.3-0.7-0.6-1.1-0.8c-0.7-0.4-1.4-0.8-2.2-1c-0.7-0.2-1.5-0.3-2.3-0.3c-0.1,0-0.3,0-0.4,0
		c-0.3,0-0.7,0.1-1,0.1c-0.3,0.1-0.7,0.3-1,0.4c-0.3,0.1-0.6,0.3-0.8,0.5c0,0,0,0,0,0c0,0,0,0,0.1,0c0,0,0,0-0.1,0
		c-0.1-0.4-0.3-0.7-0.6-0.9c-0.5-0.5-1.1-0.7-1.8-0.7c-0.7,0-1.3,0.3-1.8,0.7c-0.4,0.4-0.8,1.2-0.7,1.8c0.1,0.7,0.1,1.3,0.1,2
		c0,0.7,0,1.3,0.1,2c0,0.7,0,1.4,0.1,2.1c0.1,0.8,0.2,1.6,0.3,2.4c0.1,1.2,0.2,2.5,0.3,3.7c0,0.6,0.1,1.2,0.1,1.7c0,0.5,0,1,0.1,1.4
		c0.4,1.3,1.8,2.1,3.1,1.8c1.3-0.3,2.1-1.7,1.8-3c0-0.2,0-0.5,0-0.7c-0.1-0.8-0.1-1.5-0.2-2.3c0-0.8-0.2-1.6-0.2-2.3
		c0-0.5-0.1-1.1-0.2-1.6c0,0,0-0.1,0-0.1c0.1-0.4,0.3-0.7,0.4-1.1c0-0.1,0.1-0.3,0.2-0.4c0.3-0.7,0.7-1.3,1.2-1.9
		c0.2-0.2,0.3-0.4,0.5-0.5c0.1,0,0.1-0.1,0.2-0.1c0.2,0,0.4,0,0.6,0c0.3,0.1,0.5,0.1,0.8,0.2c0.2,0.1,0.5,0.3,0.7,0.4
		c0.1,0.1,0.1,0.1,0.2,0.2c0.1,0.2,0.3,0.4,0.4,0.6c0.2,0.7,0.4,1.5,0.5,2.3c0.1,0.6,0,1.2,0,1.8c0,0.7,0,1.3,0,2
		c0,0.6-0.1,1.2-0.1,1.7c0,0.6,0,1.2-0.1,1.7c-0.1,0.6,0.3,1.4,0.7,1.8c0.5,0.5,1.1,0.7,1.8,0.7c0.7,0,1.3-0.3,1.8-0.7
		c0.1-0.2,0.3-0.3,0.4-0.5c0.2-0.4,0.3-0.8,0.3-1.3c0.1-0.9,0.1-1.8,0.1-2.6C321.7,680.6,321.6,679.5,321.6,678.4z"/>
	<path class="st5" d="M250.8,667.7c-1.2,0.1-2.3,0.2-3.4,0.4c-0.6,0.1-1.2,0.1-1.8,0.2c-0.4,0-0.8,0-1.3,0c-0.7,0-1.5-0.1-2.2-0.2
		c-0.5-0.1-1-0.1-1.6-0.3c-0.3-0.1-0.6-0.1-0.9,0c-0.4,0.1-0.7,0.3-1,0.5c-0.5,0.4-0.9,1-1,1.6c-0.1,0.7,0.1,1.4,0.5,1.9
		c0.2,0.2,0.3,0.3,0.5,0.5c0.4,0.3,0.7,0.4,1.2,0.5c0.7,0.2,1.5,0.3,2.2,0.3c0,0,0,0,0.1,0c0,0.2,0,0.3,0,0.5c0,0.8-0.1,1.6-0.1,2.5
		c0,0.9-0.1,1.9-0.1,2.8c0,1.1-0.1,2.2,0,3.3c0.1,1,0.3,1.9,0.5,2.9c0-0.2-0.1-0.3-0.1-0.5c0,0.1,0.1,0.3,0.1,0.4
		c0.2,1.4,1.4,2.4,2.8,2.2c1.3-0.2,2.4-1.4,2.2-2.8c0-0.3-0.1-0.6-0.2-0.8c0-0.2-0.1-0.4-0.1-0.6c-0.1-0.4-0.1-0.9-0.2-1.3
		c-0.1-0.7-0.1-1.3,0-2c0-1,0.1-1.9,0.2-2.9c0-1.1,0.1-2.3,0.1-3.4c0-0.1,0-0.2,0-0.2c1.5-0.1,2.9-0.4,4.3-0.5
		c1.4-0.1,2.4-1.5,2.2-2.8C253.5,668.5,252.2,667.6,250.8,667.7z"/>
	<path class="st5" d="M287.7,669.1c-0.5,0.3-0.9,0.6-1.3,1c-0.3,0.3-0.6,0.7-0.8,1c-0.2,0.3-0.5,0.6-0.7,1c-0.5,0.8-0.8,1.7-1.1,2.7
		c-0.2,0.9-0.3,1.8-0.4,2.7c-0.1,1.1-0.1,2.3,0.2,3.4c0.2,0.6,0.4,1.2,0.7,1.7c0.2,0.5,0.6,0.9,0.9,1.4c0.4,0.6,1.1,1.1,1.8,1.4
		c0.7,0.3,1.5,0.3,2.2,0.4c0.4,0,0.8,0,1.3,0c0.6-0.1,1.2-0.3,1.7-0.5c0.2-0.1,0.3-0.2,0.5-0.3c0.3-0.2,0.6-0.4,0.9-0.6
		c0.1,0.5,0.3,1,0.5,1.4c0.3,0.6,0.9,1,1.5,1.2c0.6,0.2,1.4,0.1,2-0.2c0.6-0.3,1-0.8,1.2-1.5c0.2-0.5,0.1-1,0-1.5l0.1,0.1
		c-0.2-0.5-0.3-1-0.4-1.5c-0.1-0.6-0.3-1.3-0.4-1.9c0-0.7,0-1.4-0.1-2.1c-0.1-0.4-0.1-0.8-0.2-1.2c0-0.4-0.1-0.9-0.1-1.3
		c0-0.2-0.1-0.5-0.1-0.7c0-0.4,0-0.9-0.1-1.3c0-0.2-0.1-0.4-0.2-0.6c0.1-0.5,0-1-0.3-1.5c-0.2-0.3-0.4-0.6-0.6-1
		c-0.3-0.4-0.7-0.8-1.1-1.1c-0.4-0.3-0.9-0.6-1.4-0.8c-0.5-0.2-1.1-0.3-1.7-0.4c-0.4-0.1-0.7-0.1-1.1-0.1c-0.1,0-0.2,0-0.3,0
		C289.4,668.2,288.5,668.5,287.7,669.1 M290.4,673.3c0.3,0,0.5,0,0.8,0.1c0.2,0,0.3,0.1,0.5,0.1c0.1,0,0.1,0.1,0.2,0.1
		c0,0,0.1,0.1,0.1,0.1c0,0.1,0.1,0.1,0.1,0.2l0,0c-0.1,0.4-0.1,0.8-0.2,1.2c-0.3,1.3-0.6,2.7-1.2,3.9c-0.2,0.3-0.3,0.6-0.6,0.9
		c-0.1,0.1-0.2,0.2-0.4,0.3c-0.1,0-0.1,0.1-0.2,0.1c0,0,0,0-0.1,0c-0.3,0-0.5,0-0.8,0c-0.2-0.3-0.3-0.5-0.4-0.8
		c0-0.2-0.1-0.3-0.1-0.5c0-0.9,0.1-1.7,0.2-2.6c0.1-0.5,0.3-1,0.5-1.5c0.2-0.4,0.5-0.8,0.8-1.2c0.2-0.2,0.4-0.3,0.5-0.5
		C290.3,673.3,290.4,673.3,290.4,673.3 M288.6,680.4C288.7,680.4,288.7,680.4,288.6,680.4C288.7,680.5,288.7,680.5,288.6,680.4
		C288.7,680.4,288.7,680.4,288.6,680.4 M288.9,680.5C288.9,680.5,288.9,680.5,288.9,680.5C288.9,680.5,288.9,680.5,288.9,680.5
		C288.9,680.5,288.9,680.5,288.9,680.5"/>
	<path class="st5" d="M261.5,668.1c-0.5,0.5-0.7,1.1-0.7,1.8c0,0.7-0.1,1.4-0.1,2c0,0.6,0,1.3,0,1.9c0,1.3,0,2.7,0,4
		c0,1.2,0,2.5,0,3.7c0,0.6,0.1,1.2,0.1,1.8c0,0.2,0,0.5,0,0.7c0,0.1,0,0.3,0,0.4c0,0.4,0.1,0.9,0.4,1.2c0.2,0.4,0.6,0.7,0.9,0.9
		c0.4,0.2,0.8,0.3,1.3,0.3l0.6-0.1c0.4-0.1,0.8-0.4,1.1-0.7c0.4-0.5,0.5-0.6,0.7-1.2c0-0.1,0.1-0.3,0.1-0.4c0.1-0.2,0.1-0.4,0.1-0.6
		c0.1-0.4,0.1-0.8,0.2-1.2c0.1-0.6,0.2-1.2,0.4-1.8c0.2-0.5,0.5-0.9,0.8-1.3c0.2-0.3,0.4-0.7,0.6-1c0.3-0.3,0.6-0.6,0.9-0.9
		c0.1-0.1,0.2-0.1,0.2-0.1c0.2-0.1,0.4-0.1,0.6-0.2c0.1,0,0.3,0,0.4,0c0.1,0,0.2,0,0.3,0c0,0,0.1,0.1,0.1,0.1c0,0,0,0.1,0.1,0.1
		c0,0.1,0,0.2,0.1,0.2c0.1,0.9,0.1,1.8,0.1,2.7c-0.1,0.9,0,1.7-0.1,2.6c0,0.2,0,0.4-0.1,0.7c0,0.5-0.2,1-0.1,1.5
		c0.1,0.7,0.3,1.3,0.8,1.7c0.5,0.5,1.2,0.7,1.8,0.7c0.7,0,1.3-0.3,1.7-0.8c0.4-0.5,0.8-1.2,0.7-1.8c0-0.1,0-0.2,0-0.3
		c0.1-0.7,0.2-1.5,0.2-2.2c0-0.7,0-1.4,0-2.1c0.1-0.8,0.1-1.5,0-2.2c0-0.7-0.1-1.4-0.3-2.1c-0.3-1-1-1.9-1.8-2.6
		c-0.5-0.5-1-0.7-1.7-0.9c-0.3-0.1-0.5-0.1-0.8-0.2c-0.6-0.1-1.2-0.1-1.8-0.1c-0.9,0.1-1.8,0.4-2.6,0.8c-0.4,0.2-0.7,0.4-1,0.7
		c0-0.6,0-1.2,0-1.8c0-0.7,0.1-1.4,0.1-2.2c0-0.6-0.4-1.3-0.8-1.7c-0.5-0.5-1.2-0.7-1.8-0.7c0,0-0.1,0-0.1,0
		C262.5,667.4,262,667.7,261.5,668.1 M275.6,684.4c0,0,0,0.1,0,0.1C275.6,684.5,275.6,684.5,275.6,684.4"/>
</g>
</svg>
