<?xml version="1.0" encoding="utf-8"?>
<!-- Generator: Adobe Illustrator 21.0.2, SVG Export Plug-In . SVG Version: 6.00 Build 0)  -->
<svg version="1.1" id="Layer_1" xmlns="http://www.w3.org/2000/svg" xmlns:xlink="http://www.w3.org/1999/xlink" x="0px" y="0px"
	 viewBox="0 0 2286.4 1066.1" style="enable-background:new 0 0 2286.4 1066.1;" xml:space="preserve">
<style type="text/css">
	.st0{fill:#3F3F3F;}
	.st1{fill:#262626;}
</style>
<path class="st0" d="M2238.1,382.7c-46.2-61.9-122.6-98.1-207.4-116.9c-68.9-132.7-248.3-238.6-409.1-260.7
	c-146.5-20.2-386,14.3-476.5,199.3c-8.5,17.4-15.3,35.4-20.7,54c-105.7,22.1-221.9,84.7-254.9,211.9c-23.5,90.3-0.3,195.3,57,269.6
	c38.9,50.4,89.1,80.9,142.8,97.5c-0.3,22,2.5,44.5,9.8,67.1c42.6,132.9,198.4,149.1,206.3,149.7c81.6,7.1,173.2-24.2,245.7-81.6
	c20.5,23.6,44.9,44.2,73.7,60c82.5,45.5,184.8,44.1,262.2-1c44.6-26,76.7-64,99.1-107.9C2180.9,888.2,2381.4,574.4,2238.1,382.7z"/>
<path class="st1" d="M1377.7,382.7c-46.2-61.9-122.6-98.1-207.4-116.9C1101.4,133.1,922.1,27.2,761.2,5.1
	c-146.5-20.2-386,14.3-476.5,199.3c-8.5,17.4-15.3,35.4-20.7,54C158.3,280.4,42.1,343.1,9.1,470.2c-23.5,90.3-0.3,195.3,57,269.6
	c38.9,50.4,89.1,80.9,142.8,97.5c-0.3,22,2.5,44.5,9.8,67.1c42.6,132.9,198.4,149.1,206.3,149.7c81.6,7.1,173.2-24.2,245.7-81.6
	c20.5,23.6,44.9,44.2,73.7,60c82.5,45.5,184.8,44.1,262.2-1c44.6-26,76.7-64,99.1-107.9C1320.5,888.2,1521,574.4,1377.7,382.7z"/>
</svg>
