<?xml version="1.0" encoding="utf-8"?>
<!-- Generator: Adobe Illustrator 21.0.2, SVG Export Plug-In . SVG Version: 6.00 Build 0)  -->
<svg version="1.1" id="Layer_1" xmlns="http://www.w3.org/2000/svg" xmlns:xlink="http://www.w3.org/1999/xlink" x="0px" y="0px"
	 viewBox="0 0 566.9 566.9" style="enable-background:new 0 0 566.9 566.9;" xml:space="preserve">
<style type="text/css">
	.st0{fill:#191919;}
	.st1{fill:#262626;}
	.st2{fill:#2C2C2C;}
	.st3{fill:#FF9B34;}
	.st4{fill:#232323;}
	.st5{fill:#F0F0F0;}
	.st6{fill:#FEF9E4;}
</style>
<g>
	<path class="st0" d="M489.8,286.5c-13.9-18.5-36.8-29.4-62.2-35.1c-20.7-39.8-74.5-71.5-122.7-78.2c-43.9-6-115.8,4.3-142.9,59.8
		c-2.5,5.2-4.6,10.6-6.2,16.2c-31.7,6.6-66.5,25.4-76.4,63.5c-7,27.1-0.1,58.6,17.1,80.8c11.7,15.1,26.7,24.3,42.8,29.2
		c-0.1,6.6,0.8,13.3,2.9,20.1c12.8,39.8,59.5,44.7,61.9,44.9c24.5,2.1,51.9-7.3,73.7-24.5c6.2,7.1,13.5,13.2,22.1,18
		c24.7,13.7,55.4,13.2,78.6-0.3c13.4-7.8,23-19.2,29.7-32.4C472.7,438,532.8,343.9,489.8,286.5z"/>
	<path class="st3" d="M402.4,234.6c-7-18.1-29.1-20.3-45.6-18.7c2.6-5.2,0.4-13.8-0.2-19.3c-0.7-6.6-1.3-13.2-1.3-19.8
		c0-15.1-0.6-29.1-6-43.5c-3.5-9.3-8.7-16.8-17-22.1c-6-3.8-11.9-8.2-17.8-12.1c-3.2-2.1-7.3-3.4-10.6-0.1c-0.3-1.3-1.4-2.1-2.5-2.4
		c-1.4,2.7-35.1,1.1-35.7-2.3c-1.2,0.4-2.2,0.7-3,0.9c0.2,0.4,0.4,0.7,0.5,1c-7.2,2.6-14.6,6.7-21.5,10.1c-7.9,3.9-16.3,7-18.1,16.5
		c-2,11.1-4.9,22.2-6.8,33.3c-1.1,6.2-1.1,12.8-3.3,18.8l0.2-0.1c-2.3,5.5-2.3,11.4-3.2,17.2c-1.1,7-4,15.4-0.5,22.3
		c-13.7-0.1-36.2,0.5-37.4,18.4c-0.6,9.8,0.9,22.1,7.4,29.9c5.7,6.7,17.7,10.1,26,12.1c8.4,2.1,16,3.3,24.7,2.6
		c1.6-0.1,6.7-1.5,7.8-0.4c1.8,1.8-0.5,7.9-0.9,10.1c-2.3,12,9,12,18.4,12.2c8.3,0.2,16.7-0.5,25-0.9c5.5-0.2,10.8-0.7,16.1-1.9
		c3.5-0.8,10.9-1.6,13.3-4.7c3.8,3.8,12,1.1,13.5-3.5c15.1,0,26.5,0.5,40.9-5.8c10.3-4.5,20-12.1,27-20.8
		C397.4,254.8,406.4,243.7,402.4,234.6z"/>
	<g>
		<path class="st3" d="M183.8,287.6c-10.4-0.1-19.4,8.1-25.9,15.3c-7.2,7.9-10.8,17.6-13,27.9c-4.8,22.5,14.3,38.5,35.4,40.7
			c10.9,1.1,18.2-5.9,24.1-14.1c6.5-9,8.1-17.6-2.2-24.4c-6.6-4.4-18.2-12.6-24.8-4c-2.4,3.1-2.8,7.3-1.1,10.9
			c0.9,1.9,2.2,3.2,3.9,4.4c1.5,1.1,6,2.1,7,3.6c-3.9,4.8-7.7,3.1-13.2,0.8c-4.9-2.1-10.6-5.6-10.6-11.6c0-5.7,3.3-13.7,6.6-18.2
			c3-4.2,9.2-11.2,14.8-11.1c6.8,0.2,11.5,6.3,17.8,7.1c5.7,0.8,10.8-4.2,11.1-9.8C214.4,292.6,193.3,287.6,183.8,287.6"/>
		<path class="st3" d="M228.5,319.4c-2.2,10.5-2.5,21.4-2.5,32.1c0.1,10.2-1.6,22.6,3.4,32c4.8,9,15.1,12.6,24.8,12.9
			c11.5,0.3,19.7-5.1,24.2-15.8c4.4-10.5,3.9-22.1,4.1-33.2c0.1-8.2,3.6-24.8-3.8-30.7c-3.2-2.5-7.7-2.8-11-0.5
			c-4.3,3-4.4,7.7-4.2,12.5c0.4,11.4,0.8,23.6-0.6,35c-0.6,4.7-1.1,11.1-6.3,12.1c-2.8,0.5-8.6-0.3-10.3-2.9
			c-2.3-3.6-0.8-13.6-0.7-17.7c0.1-6.9-0.2-13.7,0.5-20.6c-0.4,6,0.2-1.9,0.4-3.1c0.2-2.3,0.7-4.4,1.1-6.7c0.6-4.1,0.4-7.8-2.7-10.8
			C239.2,308.4,230.1,312,228.5,319.4"/>
		<path class="st3" d="M308,311.4c-12.1,2.1-6.8,18.6-6.6,26.4c0.4,11.5,2.4,22.9,4.1,34.2c1.1,7.5-0.6,21,7.5,25
			c12,5.9,14.1-10.4,14.9-17.9c0.6-5.9,1.1-11.9,1.6-17.8c0.5-4.9,0-11.6,2.2-16c2.2-4.3,7.6-7.5,11.7-9.6c4.1-2.1,10.2-2.8,13.6-6
			c8.2-7.7-0.5-19.5-10.3-17c-9.8,2.4-19.6,8.3-26.5,15.6C319.8,320.5,317.6,310.9,308,311.4"/>
		<path class="st3" d="M409.7,281.5c-4.9,1.3-7.7,6.7-6.8,11.5c0.5,2.7,2.2,4.9,3.5,7.3c0.8,1.7,1.5,3.4,2.3,5.1
			c0.4,1,2.5,5.9,0.4,0.8c2.3,5.7,4.2,11.3,6,17.1c1.6,5.2,5.3,12.1,5.3,17.7c0,3.3-1.5,4.7-4.8,6.2c-5.1,2.4-7.4,1.7-10.5-2.9
			c-6.7-9.9-9.9-23.9-13.3-35.3c-1.3-4.4-1.8-9.4-5.8-12.4c-3.8-2.8-9.1-2.5-12.3,0.9c-3.4,3.6-2.9,8.2-1.5,12.6
			c1.8,5.6,3.5,11.1,5.5,16.7c4,11.3,7,23.5,14.9,32.8c7.9,9.3,17.8,11.4,29,7.2c9.4-3.5,17.8-11,18.7-21.5
			c1.1-12-5.5-26.6-9.5-37.8C427.6,299.4,422.3,278.1,409.7,281.5L409.7,281.5z"/>
	</g>
	<g>
		<path class="st0" d="M237.3,230.3c-0.1,1.6,0.4,2.1,1.1,2.9c1.5,1.7,3.3,2.8,5,4.2c1.1,0.9,2.1,1.8,3.2,2.7c2.9,2.3,6.3,4,8.9,6.6
			c1.1,1.1,2.3,2,3.4,3c1.4,1.3,2.7,3.2,3.5,4.9c0-0.1,0-0.1,0-0.2c0.6,1.2,1.3,2.4,1.7,3.7c0.4,1.3,0.7,2.7,1.2,4
			c0.5,1.4,1,2.9,1.6,4.3c0.2,0.7,0.9,1.2,1.1,1.8c0.2,0.5-0.1,0.9-0.3,1.4c-0.7,1.5-1.5,2.9-1.9,4.5c-0.2,0.9-0.5,1.8-0.8,2.8
			c-0.4,1.4-0.7,3.1,0.3,4.3c0.7,0.8,2.8,1.4,3.8,0.9c-0.4,0.4-0.3,1.7-0.2,2.3c0.2,0.7,0.6,1.3,1.2,1.7c1.1,0.9,2.6,1.2,3.8,0.5
			c0.5-0.3,0.4-0.4,0.9,0c0.2,0.2,0.5,0.3,0.7,0.4c0.6,0.3,1.4,0.5,2.1,0.3c1.5-0.4,1.9-1.9,2.3-3.2c0,0.5,0.9,1,1.3,1.2
			c0.6,0.3,1.3,0.5,1.9,0.6c1.3,0.2,2.2-1,2.2-2.3c0.7,0.7,2.1,1.3,3.1,1.2c1.5-0.1,1.9-1.9,2.4-3c0,0.3,1.4,0,1.5,0
			c0.7-0.2,1.3-0.4,1.6-1c0.8-1.3,0-2.8,0-4.1c0.4,0.8,1.9,0.8,2.7,0.8c0.8,0,1.5-0.3,1.8-1.1c0.3-0.7,0.1-1.6,0.1-2.4
			c0-1.1-0.4-2.4,0.1-3.4c1-2,2.3-3.9,3.4-5.9c0.5-1,1.1-2,1.6-2.9c0.3-0.5,0.4-0.9,0.9-1.2c0.4-0.3,0.7-0.3,0.8-0.8
			c0.2-0.5,0-0.9,0-1.3c0-0.5,0.3-1.1,0.6-1.6c0.7-1.6,1.5-3.2,2.4-4.7c0.5-0.8,0.8-1.5,1.5-2.3c0.7-0.8,1.4-1.6,2.1-2.4
			c1.4-1.6,3-2.9,5.1-3.6c1.6-0.6,3.2-1.5,4.7-2.4c1.5-0.9,6.8-4.2,9.2-6.2c2.4-2,3.8-3.2,4.4-4.1s-2.8-4.5-7.1-7.2
			c-1.7-1.1-3.7-1.7-5.8-1.7c-0.7,0-1.5,0-2.2,0c-0.2,0-2.6,0-3.1,0.2c-0.3,0.1-0.6,0.4-0.9,0.5c-1,0.5-2.2,2.2-5.7,4.4
			c-3.5,2.2-21.3,12.1-21.5,12.2c-0.3,0.1-0.4,0-0.8-0.2c-0.8-0.3-1.6-0.6-2.4-0.9c-1.1-0.4-2.3-0.9-3.4-1.3
			c-2.4-0.9-4.8-1.9-7.2-2.7c-1.7-0.6-3.4-1.2-5-2c-2.1-1.2-4.1-2.5-5.9-3.9c-1.1-0.8-2.2-1.7-3.2-2.5c-0.7-0.6-2.9-3.8-5.5-4.1
			C255.8,221.9,240.4,222.4,237.3,230.3z"/>
		<path class="st0" d="M275.7,39.7c-3.2,1.3-6.1,3.7-8.2,6.4c-1.1,1.4-1.8,3.2-2.3,4.9c-0.6,2-1.1,4-1.2,6.1c-0.1,2-0.1,3.9-0.1,5.9
			c0,0.4,0,0.8,0,1.2c0,0.6,0.2,2.1-0.2,2.6c-0.3,0.3-1,0.4-1.4,0.5c-1,0.4-1.6,1.1-2.1,2c-1,1.9-0.9,4-0.9,6.1
			c0,2.2,0.4,4.6,1.1,6.7c0.7,2,1.7,3.3,3.6,4.4c0.4,0.2,0.8,0.4,1.1,0.8c0.7,0.7,0.5,2,0.5,2.9c0.1,3.7,0.5,7.2,3.1,10.1
			c1.1,1.2,1.8,3.1,1.4,4.8c-0.2,0.8-0.8,1.5-1.3,2.1c-0.6,0.8-1,1.7-1.5,2.5c-0.7,1.3-1.8,4.2-0.4,5.4c0.7,0.6,2.1,0.7,3.1,0.8
			c0.8,0.1,1.6,0.2,2.4,0.3c2.7,0.2,5.5,0.1,8.2,0.1c1.8,0,3.5-0.3,5.2-0.6c2-0.4,3.7-1.4,5.5-2.2c1.2-0.5,2.3-1.2,3.4-1.8
			c2-1.1,3.2-2.8,4.3-4.8c1.7-2.8,2-6,2.2-9.2c0.1-0.8,0.6-1.5,0.9-2.2c0.5-1.1,0.8-2.3,1-3.5c0.1-0.5,0.1-1.1,0.1-1.6
			c0-0.3,0.1-0.7,0-1c0-0.1-0.3-1.4,0.3-1.7c3.1-1.3,4-5.1,4.5-8.1c0.4-2.3,0.5-4.6,0.6-6.9c0.1-2.2-0.4-3.7-2.6-4.6
			c-0.5-0.2-1.1-0.3-1.4-0.8c-0.4-0.6-0.3-1.8-0.3-2.5c-0.1-2.4-0.1-4.7-0.5-7.1c-0.3-1.8-0.4-3.7-1-5.4c-0.6-1.8-1.5-3.3-2.5-4.9
			c-1.1-1.6-2.2-3.2-3.7-4.3c-1.7-1.3-3.8-2.5-5.9-3.1c-2.2-0.6-4.8-0.7-7.1-0.8c-1.4-0.1-2.9-0.1-4.3,0.1
			C278,39.4,276.7,39.4,275.7,39.7z"/>
	</g>
</g>
<g>
	<path class="st5" d="M430.9,408.7c-0.2,0.2-0.4,0.4-0.4,0.7c-0.1,0.2-0.2,0.5-0.2,0.8c0,0.3,0,0.5,0.1,0.7c0,0,0,0.1,0,0.1
		c0.1,0.1,0.1,0.3,0.2,0.4c0.6,0.9,1.3,1.9,2,2.8c0.7,0.9,1.4,1.8,2,2.7c0.3,0.4,0.7,0.8,1,1.3c0.4,0.5,0.7,0.9,1.1,1.3
		c0.4,0.5,0.9,1,1.3,1.5c0.2,0.2,0.5,0.3,0.7,0.5c0.2,0.1,0.5,0.2,0.7,0.3c0.4,0.1,0.8,0.1,1.2,0c0.6-0.1,1-0.3,1.5-0.6
		c0.5-0.3,1-0.7,1.4-1.1c0.2-0.2,0.3-0.3,0.4-0.5c0.2-0.3,0.4-0.7,0.6-1.1c0.1-0.2,0.2-0.5,0.4-0.7c0.2-0.4,0.3-0.7,0.3-1.1
		c0.1-0.7,0.2-1.4,0.1-2.1c-0.1-1.3-0.7-2.6-1.4-3.7c-0.6-1-1.3-2-2.1-2.8c-0.5-0.4-1-0.8-1.6-1.1c-0.6-0.2-1.2-0.4-1.8-0.5
		c-0.9-0.2-1.8-0.3-2.7-0.1c-0.4,0.1-0.9,0.2-1.2,0.3c-0.4,0.2-0.8,0.3-1.2,0.5c-0.4,0.2-0.8,0.4-1.1,0.6c-0.2,0.1-0.3,0.2-0.5,0.4
		c-0.2,0.1-0.3,0.2-0.4,0.4C431.1,408.5,431,408.6,430.9,408.7 M439,416.1c-0.3-0.4-0.6-0.7-0.8-1c-0.3-0.4-0.6-0.8-0.9-1.3
		c-0.3-0.4-0.5-0.8-0.8-1.1c-0.3-0.4-0.6-0.8-0.9-1.2c-0.2-0.3-0.4-0.6-0.6-0.9c0.4-0.2,0.8-0.3,1.2-0.5c0.2,0,0.4,0,0.6,0
		c0.6,0,1.2,0.1,1.8,0.3c0.2,0.1,0.3,0.1,0.5,0.2c0.2,0.2,0.4,0.3,0.6,0.5c0.5,0.6,1,1.3,1.4,2c0.2,0.5,0.5,1,0.6,1.5
		c0,0.3,0.1,0.5,0.1,0.8c0,0.2-0.1,0.4-0.1,0.6c-0.1,0.2-0.2,0.5-0.3,0.7c-0.1,0.2-0.2,0.4-0.3,0.5c-0.1,0.1-0.1,0.2-0.2,0.3
		c-0.1,0.1-0.2,0.2-0.3,0.2C439.8,417.1,439.4,416.6,439,416.1"/>
	<path class="st5" d="M490.8,349.7c0.2-0.6,0.3-1.2,0.4-1.8c0-0.3,0-0.7-0.1-1c0-0.2-0.1-0.4-0.1-0.6c-0.2-0.5-0.4-1-0.7-1.4
		c-0.3-0.4-0.6-0.8-1-1.1c-0.5-0.5-1.1-0.8-1.8-1c-0.3-0.1-0.7-0.2-1-0.2c-0.2,0-0.5,0-0.7,0.1c-0.2,0.1-0.4,0.2-0.6,0.2
		c-0.3,0.1-0.5,0.2-0.8,0.4c-0.5,0.3-0.9,0.7-1.4,1.1c-0.3,0.3-0.7,0.6-1,1c-0.3,0.3-0.6,0.6-0.9,0.9c-0.4,0.3-0.8,0.5-1.3,0.7
		c-0.1,0-0.2,0.1-0.3,0.1c-0.2,0-0.3,0-0.5,0c-0.1,0-0.3-0.1-0.4-0.1c0,0,0,0-0.1,0c-0.1-0.1-0.2-0.1-0.2-0.2
		c-0.1-0.1-0.1-0.2-0.2-0.3c0-0.1,0-0.1-0.1-0.2c0,0,0,0,0,0c0-0.2,0.1-0.4,0.2-0.6c0.1-0.2,0.3-0.5,0.4-0.7
		c0.2-0.2,0.4-0.5,0.6-0.7c0.2,0,0.3,0,0.5,0c0.1,0,0.3,0,0.4,0.1c1,0.3,2.1-0.4,2.4-1.4c0.3-1-0.4-2.1-1.4-2.4
		c-0.1,0-0.2,0-0.3-0.1c-0.3-0.1-0.6-0.1-0.9-0.1c-0.2,0-0.5,0-0.7,0c-0.6,0-1.1,0.1-1.6,0.4c-0.4,0.2-0.7,0.5-1,0.8
		c-0.5,0.5-0.9,1-1.2,1.5c-0.1,0.2-0.3,0.3-0.4,0.5c-0.2,0.4-0.4,0.8-0.5,1.2c-0.1,0.2-0.1,0.5-0.2,0.7c-0.1,0.3-0.1,0.6-0.1,0.9
		c0,0.4,0.1,0.9,0.2,1.3c0.2,0.7,0.6,1.3,1,1.9c0.1,0.2,0.4,0.3,0.5,0.5c0.2,0.2,0.5,0.4,0.7,0.5c0.2,0.1,0.5,0.2,0.7,0.3
		c0.4,0.1,0.8,0.2,1.3,0.3c0.3,0,0.7,0.1,1,0c0.7,0,1.3-0.2,1.9-0.5c1-0.5,1.9-1.1,2.7-1.9c0.6-0.6,1.1-1.2,1.8-1.7
		c0.1-0.1,0.3-0.2,0.4-0.2c0.2,0.2,0.3,0.3,0.5,0.5c0.1,0.1,0.2,0.3,0.2,0.4c0,0.1,0,0.2,0.1,0.2c0,0.1,0,0.2,0,0.3
		c-0.1,0.3-0.1,0.6-0.2,0.9c-0.1,0.2-0.2,0.4-0.3,0.6c-0.1,0.1-0.3,0.3-0.4,0.4c-0.3,0.2-0.6,0.4-0.9,0.5c-0.1,0-0.3,0.1-0.4,0.1
		c-0.1,0-0.1,0-0.2,0c-1-0.2-2.1,0.4-2.3,1.4c-0.3,1,0.4,2.1,1.4,2.4c0.7,0.2,1.5,0.1,2.2,0c0.5-0.1,0.9-0.3,1.4-0.5
		c1.1-0.5,2-1.3,2.7-2.3c0-0.1,0.1-0.1,0.1-0.2C490.4,350.6,490.6,350.1,490.8,349.7"/>
	<path class="st5" d="M446.3,395.2c-0.3,0.5-0.5,1.1-0.7,1.7c-0.1,0.2-0.1,0.5-0.1,0.8c-0.1,0.4-0.1,0.9-0.1,1.3
		c0,0.7,0.1,1.4,0.3,2c0.2,0.7,0.6,1.3,0.9,1.9c0.4,0.7,0.8,1.2,1.4,1.8c0.8,0.9,1.9,1.6,3,2.1c0.8,0.4,1.7,0.5,2.6,0.5
		c0.7,0.1,1.3,0,2-0.2c0.5-0.1,0.9-0.3,1.4-0.5c0.5-0.3,1-0.6,1.4-1c0.4-0.4,0.7-0.7,0.9-1.2c0.2-0.3,0.3-0.7,0.4-1.1
		c0.1-0.2,0.1-0.4,0.1-0.6c0.1-0.7,0.2-1.3,0.2-2c0-0.4-0.1-0.8-0.2-1.2c-0.1-0.3-0.1-0.5-0.2-0.8c-0.3-1.1-0.9-2.2-1.5-3.2
		c-0.2-0.4-0.4-0.7-0.7-1.1c-0.4-0.5-0.8-0.9-1.2-1.3c-0.4-0.4-0.8-0.7-1.3-1c-0.3-0.2-0.6-0.2-0.9-0.3c-0.1,0-0.2-0.1-0.3-0.1
		c-0.2,0-0.4-0.1-0.6-0.1c-0.5-0.1-1.1-0.1-1.6-0.1c-0.3,0-0.6,0.1-0.8,0.1c-0.3,0.1-0.5,0.2-0.8,0.3c-0.2,0.1-0.4,0.2-0.6,0.3
		c-0.2,0-0.3,0.1-0.5,0.2c-0.7,0.4-1.2,1-1.8,1.6c0,0,0,0-0.1,0.1C446.8,394.5,446.5,394.8,446.3,395.2 M450,396.8
		c0.1-0.1,0.2-0.2,0.3-0.4c0.2-0.1,0.3-0.2,0.4-0.3c0.2-0.2,0.5-0.3,0.7-0.5c0,0,0.1,0,0.1,0c0.2,0,0.4,0,0.5-0.1
		c0.3,0,0.6,0.1,0.9,0.1c0,0,0.1,0,0.1,0c0.1,0.1,0.3,0.2,0.4,0.4c0.2,0.2,0.4,0.4,0.7,0.6c0.3,0.3,0.5,0.7,0.8,1.1
		c0.2,0.3,0.4,0.7,0.6,1c0.2,0.5,0.4,1,0.6,1.5c0.1,0.3,0.1,0.6,0.1,0.8c0,0.3,0,0.6-0.1,0.9c0,0.1-0.1,0.2-0.1,0.3
		c-0.1,0.2-0.3,0.3-0.4,0.5c-0.1,0.1-0.2,0.2-0.4,0.3c-0.2,0.1-0.4,0.2-0.6,0.2c-0.3,0-0.6,0.1-0.8,0.1c-0.3,0-0.6,0-0.9-0.1
		c-0.4-0.1-0.8-0.3-1.2-0.6c-0.4-0.3-0.8-0.6-1.1-0.9c-0.4-0.5-0.7-0.9-1-1.4c-0.1-0.3-0.2-0.5-0.3-0.8c0-0.3-0.1-0.6-0.1-0.8
		c0-0.4,0.1-0.8,0.2-1.1c0-0.1,0.1-0.1,0.1-0.2C449.6,397.2,449.8,397,450,396.8"/>
	<path class="st5" d="M460.2,379c-0.3,0.5-0.5,1.1-0.6,1.7c-0.1,0.3-0.1,0.5-0.1,0.8c0,0.4-0.1,0.9,0,1.3c0,0.7,0.2,1.4,0.4,2
		c0.3,0.7,0.6,1.3,1,1.9c0.4,0.6,0.9,1.2,1.4,1.7c0.9,0.9,2,1.5,3.1,2c0.8,0.3,1.7,0.4,2.6,0.4c0.7,0,1.3-0.1,2-0.2
		c0.5-0.1,0.9-0.3,1.4-0.6c0.5-0.3,1-0.7,1.4-1.1c0.4-0.4,0.6-0.8,0.9-1.2c0.2-0.3,0.3-0.7,0.4-1.1c0.1-0.2,0.1-0.4,0.1-0.6
		c0.1-0.7,0.1-1.3,0.1-2c0-0.4-0.1-0.8-0.2-1.2c-0.1-0.3-0.1-0.5-0.2-0.8c-0.4-1.1-1-2.2-1.6-3.2c-0.2-0.4-0.5-0.7-0.8-1
		c-0.4-0.5-0.8-0.9-1.3-1.2c-0.4-0.4-0.8-0.7-1.3-0.9c-0.3-0.1-0.6-0.2-1-0.3c-0.1,0-0.2,0-0.3-0.1c-0.2,0-0.4-0.1-0.6-0.1
		c-0.5-0.1-1.1-0.1-1.6,0c-0.3,0-0.6,0.1-0.8,0.2c-0.3,0.1-0.5,0.2-0.8,0.3c-0.2,0.1-0.4,0.2-0.6,0.3c-0.2,0.1-0.3,0.1-0.5,0.2
		c-0.7,0.5-1.2,1-1.7,1.6c0,0,0,0-0.1,0.1C460.6,378.3,460.4,378.6,460.2,379 M464.1,380.2c0.1-0.1,0.2-0.2,0.3-0.4
		c0.2-0.1,0.3-0.2,0.4-0.3c0.2-0.2,0.5-0.3,0.7-0.5c0,0,0.1,0,0.1,0c0.2,0,0.4,0,0.5,0c0.3,0,0.6,0.1,0.9,0.2c0,0,0.1,0,0.1,0
		c0.1,0.1,0.3,0.2,0.4,0.4c0.2,0.2,0.4,0.4,0.7,0.6c0.3,0.3,0.5,0.7,0.8,1.1c0.2,0.3,0.4,0.7,0.6,1c0.2,0.5,0.4,1,0.6,1.6
		c0,0.3,0.1,0.6,0.1,0.9c0,0.3-0.1,0.6-0.1,0.9c0,0.1-0.1,0.2-0.1,0.3c-0.1,0.2-0.3,0.3-0.4,0.4c-0.1,0.1-0.2,0.2-0.4,0.3
		c-0.2,0.1-0.4,0.2-0.6,0.2c-0.3,0-0.6,0.1-0.8,0.1c-0.3,0-0.6-0.1-0.9-0.1c-0.4-0.2-0.8-0.4-1.2-0.6c-0.4-0.3-0.8-0.6-1.1-0.9
		c-0.4-0.5-0.7-1-1-1.5c-0.1-0.3-0.2-0.5-0.3-0.8c0-0.3-0.1-0.6-0.1-0.8c0-0.4,0.1-0.8,0.2-1.1c0-0.1,0.1-0.1,0.1-0.2
		C463.7,380.6,463.9,380.4,464.1,380.2"/>
	<path class="st5" d="M468.7,362.2c-1.3,1.9,1.6,3.3,2.6,4.3c1.6,1.5,3.3,2.7,5.1,3.9c1.1,0.8,2.7,2.8,4.3,2.3
		c2.4-0.8,0.5-3.2-0.4-4.3c-0.7-0.9-1.4-1.7-2.1-2.5c-0.6-0.7-1.5-1.5-1.8-2.4c-0.3-0.9,0-2,0.3-2.8c0.3-0.8,1-1.7,1-2.6
		c0-2.1-2.6-2.5-3.6-0.9c-1,1.6-1.5,3.7-1.4,5.6C471.5,361.9,469.9,360.9,468.7,362.2"/>
</g>
<g>
	<path class="st5" d="M109.8,358.2c-0.4-0.5-1-0.8-1.5-1.1c-0.2-0.1-0.5-0.2-0.7-0.3c-0.4-0.2-0.8-0.3-1.2-0.4
		c-0.6-0.2-1.3-0.2-2-0.2c-0.7,0.1-1.4,0.2-2.1,0.4c-0.7,0.2-1.4,0.5-2.1,0.9c-1.1,0.6-2,1.5-2.8,2.5c-0.6,0.7-0.9,1.5-1.1,2.4
		c-0.2,0.6-0.3,1.3-0.3,2c0,0.5,0.1,1,0.2,1.5c0.1,0.6,0.4,1.1,0.7,1.6c0.3,0.4,0.6,0.8,0.9,1.2c0.3,0.3,0.6,0.5,0.9,0.7
		c0.2,0.1,0.3,0.2,0.5,0.3c0.6,0.3,1.2,0.5,1.9,0.7c0.4,0.1,0.8,0.1,1.2,0.1c0.3,0,0.5,0,0.8,0c1.2,0,2.4-0.3,3.5-0.7
		c0.4-0.1,0.8-0.3,1.2-0.4c0.5-0.3,1.1-0.5,1.6-0.9c0.5-0.3,0.9-0.6,1.3-1c0.2-0.2,0.4-0.5,0.6-0.8c0.1-0.1,0.1-0.2,0.1-0.3
		c0.1-0.2,0.2-0.4,0.3-0.6c0.2-0.5,0.4-1,0.4-1.6c0-0.3,0.1-0.6,0.1-0.9c0-0.3-0.1-0.5-0.1-0.8c0-0.2-0.1-0.4-0.2-0.6
		c0-0.2,0-0.4-0.1-0.5c-0.3-0.8-0.7-1.4-1.1-2.1c0,0,0,0,0-0.1C110.3,358.8,110.1,358.5,109.8,358.2 M107.5,361.6
		c0.1,0.1,0.2,0.3,0.3,0.4c0,0.2,0.1,0.3,0.2,0.5c0.1,0.3,0.2,0.6,0.2,0.8c0,0,0,0.1,0,0.1c0,0.2-0.1,0.4-0.1,0.5
		c-0.1,0.3-0.3,0.6-0.4,0.9c0,0-0.1,0.1-0.1,0.1c-0.2,0.1-0.3,0.2-0.5,0.3c-0.2,0.2-0.5,0.3-0.8,0.5c-0.4,0.2-0.8,0.3-1.3,0.4
		c-0.4,0.1-0.8,0.2-1.2,0.3c-0.5,0.1-1.1,0.1-1.6,0.1c-0.3,0-0.6-0.1-0.8-0.2c-0.3-0.1-0.6-0.2-0.9-0.4c-0.1-0.1-0.2-0.1-0.2-0.2
		c-0.1-0.2-0.2-0.3-0.3-0.5c-0.1-0.1-0.1-0.3-0.1-0.4c0-0.2,0-0.5,0-0.7c0-0.3,0.1-0.6,0.2-0.8c0.1-0.3,0.2-0.6,0.4-0.8
		c0.3-0.4,0.6-0.7,0.9-1c0.4-0.3,0.8-0.6,1.2-0.8c0.5-0.2,1.1-0.4,1.7-0.5c0.3,0,0.5-0.1,0.8-0.1c0.3,0,0.6,0.1,0.8,0.2
		c0.4,0.1,0.7,0.3,1,0.5c0.1,0,0.1,0.1,0.2,0.1C107.2,361.1,107.4,361.3,107.5,361.6"/>
	<path class="st5" d="M124.5,376.7c-0.2-0.2-0.4-0.3-0.6-0.5c-1.2-0.8-2.6-1.1-4-1c-0.6,0.1-1.2,0.2-1.7,0.5
		c-0.6,0.3-1.2,0.5-1.7,0.9c-1,0.6-1.9,1.4-2.8,2.3c-1.2,1.2-2.2,2.5-3.3,3.7c-0.7,0.8-0.5,2.1,0.2,2.7c0.4,0.3,0.9,0.5,1.4,0.5
		c0.5,0,1-0.3,1.3-0.7c0.7-0.7,1.3-1.5,2-2.3c0.1-0.2,0.3-0.3,0.4-0.4c0,0.1,0.1,0.2,0.2,0.3c0.3,0.5,0.6,0.9,1,1.2
		c0.2,0.2,0.4,0.3,0.6,0.5c0.3,0.3,0.7,0.5,1,0.7c0.5,0.3,1.2,0.5,1.8,0.6c0.6,0.1,1.1,0.1,1.7,0.1c0.7-0.1,1.5-0.3,2-0.7
		c0.7-0.5,1.2-1.2,1.6-2c0.1-0.2,0.2-0.4,0.3-0.7c0.2-0.4,0.3-0.9,0.3-1.3c0-0.4,0.1-0.8,0-1.2c-0.1-0.4-0.2-0.9-0.4-1.4
		C125.6,377.8,125.1,377.2,124.5,376.7C124.6,376.8,124.6,376.7,124.5,376.7 M122.3,379.9C122.3,379.9,122.3,379.9,122.3,379.9
		c0.1,0.1,0.1,0.2,0.1,0.3c0,0.1,0,0.2,0,0.2c0,0.2,0,0.3-0.1,0.5c-0.1,0.2-0.2,0.4-0.3,0.6c-0.1,0.1-0.2,0.3-0.3,0.4c0,0,0,0,0,0
		c-0.1,0-0.2,0-0.3,0c-0.2,0-0.5-0.1-0.7-0.1c-0.2-0.1-0.3-0.2-0.5-0.2c-0.2-0.2-0.5-0.4-0.7-0.6c-0.1-0.1-0.2-0.2-0.2-0.3
		c-0.1-0.3-0.3-0.6-0.4-0.9c0.1,0,0.1-0.1,0.2-0.1c0.4-0.2,0.8-0.4,1.2-0.5c0.2,0,0.4,0,0.6,0c0.2,0,0.3,0,0.5,0.1
		c0.1,0,0.2,0.1,0.3,0.1C121.8,379.5,122,379.7,122.3,379.9"/>
	<path class="st5" d="M158.8,418.6c0.2-0.2,0.3-0.3,0.5-0.5c0.3-0.3,0.5-0.5,0.7-0.8c0.2-0.3,0.4-0.6,0.7-0.9
		c0.5-0.7,0.9-1.5,1.1-2.3c0.1-0.4,0.1-0.7,0.2-1.1c0-0.4,0-0.7-0.1-1c-0.1-0.6-0.3-1.2-0.6-1.7c-0.3-0.5-0.6-1-1-1.4
		c-0.1-0.1-0.1-0.1-0.2-0.2c-0.2-0.2-0.4-0.3-0.6-0.5c-0.2-0.1-0.5-0.2-0.7-0.3c-0.2-0.1-0.5-0.2-0.7-0.2c0,0,0,0,0,0c0,0,0,0,0.1,0
		c0,0,0,0-0.1,0c0.1-0.3,0.2-0.5,0.2-0.8c0-0.5-0.2-1-0.5-1.4c-0.4-0.4-0.8-0.6-1.4-0.6c-0.5,0-1.1,0.2-1.4,0.5
		c-0.3,0.4-0.7,0.7-1.1,1.1c-0.4,0.4-0.7,0.7-1.1,1.1c-0.4,0.4-0.8,0.8-1.2,1.2c-0.4,0.5-0.8,1-1.2,1.5c-0.6,0.7-1.3,1.4-1.9,2.1
		c-0.3,0.3-0.6,0.7-0.9,1c-0.3,0.3-0.5,0.5-0.7,0.8c-0.5,0.9-0.3,2.1,0.7,2.7c0.9,0.5,2,0.3,2.6-0.6c0.1-0.1,0.2-0.2,0.4-0.4
		c0.4-0.4,0.8-0.9,1.2-1.3c0.4-0.4,0.8-0.9,1.2-1.3c0.3-0.3,0.5-0.6,0.8-0.9c0,0,0,0,0.1,0c0.3-0.2,0.5-0.2,0.8-0.4
		c0.1,0,0.2-0.1,0.3-0.1c0.5-0.2,1.1-0.3,1.7-0.3c0.2,0,0.4,0,0.6,0c0.1,0,0.1,0,0.2,0c0.1,0.1,0.2,0.2,0.3,0.3
		c0.1,0.2,0.2,0.4,0.3,0.6c0.1,0.2,0.1,0.4,0.2,0.6c0,0.1,0,0.1,0,0.2c0,0.2-0.1,0.3-0.1,0.5c-0.3,0.5-0.6,1-1,1.5
		c-0.3,0.3-0.7,0.6-1,1c-0.4,0.3-0.7,0.7-1.1,1c-0.3,0.3-0.7,0.6-1,0.9c-0.3,0.3-0.7,0.6-1,0.9c-0.4,0.3-0.6,0.9-0.6,1.4
		c0,0.5,0.2,1,0.5,1.4c0.4,0.4,0.8,0.6,1.4,0.6c0.2,0,0.3,0,0.5,0c0.3-0.1,0.6-0.2,0.9-0.5c0.5-0.4,1-0.9,1.5-1.3
		C157.6,419.7,158.2,419.1,158.8,418.6z"/>
	<path class="st5" d="M186.2,463.1c0.2-0.2,0.3-0.4,0.5-0.5c0.2-0.3,0.4-0.6,0.6-0.9c0.2-0.3,0.4-0.6,0.6-0.9
		c0.4-0.7,0.8-1.6,0.8-2.4c0-0.4,0.1-0.8,0-1.1c0-0.4-0.1-0.7-0.2-1c-0.2-0.6-0.4-1.1-0.8-1.6c-0.3-0.5-0.7-0.9-1.2-1.3
		c-0.1-0.1-0.1-0.1-0.2-0.2c-0.2-0.2-0.4-0.3-0.6-0.4c-0.2-0.1-0.5-0.2-0.8-0.3c-0.2-0.1-0.5-0.1-0.7-0.1c0,0,0,0,0,0c0,0,0,0,0.1,0
		c0,0,0,0-0.1,0c0.1-0.3,0.1-0.6,0.1-0.8c0-0.5-0.3-1-0.7-1.3c-0.4-0.3-0.9-0.5-1.4-0.5c-0.5,0-1.1,0.3-1.3,0.7
		c-0.3,0.4-0.6,0.8-0.9,1.2c-0.3,0.4-0.6,0.8-1,1.2c-0.3,0.4-0.7,0.8-1,1.3c-0.3,0.5-0.7,1-1,1.6c-0.5,0.8-1.1,1.6-1.7,2.3
		c-0.3,0.4-0.5,0.7-0.8,1.1c-0.2,0.3-0.5,0.6-0.6,0.9c-0.4,1,0,2.1,0.9,2.6c0.9,0.4,2.1,0.1,2.5-0.8c0.1-0.1,0.2-0.3,0.3-0.4
		c0.3-0.5,0.7-0.9,1.1-1.4c0.4-0.5,0.7-1,1-1.5c0.2-0.3,0.5-0.7,0.7-1c0,0,0,0,0.1,0c0.2-0.2,0.5-0.3,0.8-0.5
		c0.1-0.1,0.2-0.1,0.3-0.2c0.5-0.2,1.1-0.4,1.6-0.5c0.2,0,0.4,0,0.6,0c0.1,0,0.1,0,0.2,0c0.1,0.1,0.2,0.2,0.3,0.3
		c0.1,0.2,0.2,0.3,0.3,0.5c0.1,0.2,0.2,0.4,0.2,0.6c0,0.1,0,0.1,0,0.2c0,0.2,0,0.3-0.1,0.5c-0.2,0.6-0.5,1.1-0.9,1.6
		c-0.3,0.4-0.6,0.7-0.9,1.1c-0.3,0.4-0.7,0.8-1,1.2c-0.3,0.3-0.6,0.6-0.9,1c-0.3,0.3-0.6,0.7-0.9,1c-0.4,0.3-0.5,0.9-0.5,1.4
		c0,0.5,0.3,1,0.7,1.3c0.4,0.3,0.9,0.5,1.4,0.5c0.2,0,0.3-0.1,0.5-0.1c0.3-0.1,0.6-0.3,0.8-0.6c0.5-0.5,0.9-1,1.4-1.5
		C185.1,464.3,185.6,463.7,186.2,463.1z"/>
	<path class="st5" d="M202.5,460.3c-1.9,0.5-3.1,2.4-3.9,4c-0.9,1.8-1.1,3.7-0.9,5.7c0.3,4.3,4.5,6.2,8.4,5.5c2-0.3,3-2,3.6-3.7
		c0.7-1.9,0.6-3.6-1.6-4.3c-1.4-0.5-3.9-1.4-4.7,0.5c-0.3,0.7-0.1,1.5,0.3,2c0.3,0.3,0.6,0.5,0.9,0.6c0.3,0.1,1.2,0.1,1.4,0.3
		c-0.5,1.1-1.2,0.9-2.3,0.8c-1-0.1-2.2-0.5-2.5-1.6c-0.3-1-0.1-2.6,0.3-3.6c0.3-0.9,1.1-2.5,2.1-2.7c1.2-0.3,2.4,0.6,3.6,0.4
		c1.1-0.2,1.7-1.3,1.5-2.3C208.2,459.7,204.2,459.9,202.5,460.3"/>
	<path class="st5" d="M132.5,391.3c-0.4,0.2-0.8,0.3-1.1,0.6c-0.1,0.1-0.2,0.2-0.4,0.2c-0.2,0.1-0.4,0.3-0.6,0.5
		c0.1,0,0.1-0.1,0.2-0.1c-0.3,0.2-0.5,0.5-0.8,0.7c-0.3,0.4-0.6,0.8-0.9,1.2c-0.6,0.8-0.9,1.8-1.1,2.7c-0.1,0.4-0.2,0.8-0.2,1.2
		c-0.1,0.6-0.1,1.2-0.1,1.8c0.1,0.4,0.1,0.9,0.3,1.2c0.2,0.4,0.3,0.8,0.6,1.1c0.2,0.3,0.4,0.6,0.6,0.8c-0.1-0.1-0.2-0.3-0.3-0.4
		c0.3,0.3,0.5,0.7,0.9,1c0.3,0.3,0.7,0.5,1,0.8c0.5,0.3,1.2,0.5,1.8,0.7c0.5,0.1,0.9,0.3,1.4,0.3c0.4,0.1,0.8,0.1,1.2,0
		c0.3,0,0.7-0.1,1-0.2c0.5-0.2,0.9-0.5,1.1-0.9c0.3-0.5,0.3-1,0.2-1.5c-0.3-1-1.4-1.6-2.4-1.3c-0.1,0-0.3,0-0.4,0
		c-0.3-0.1-0.5-0.1-0.8-0.2c-0.3-0.1-0.6-0.1-0.8-0.2c-0.2-0.1-0.3-0.2-0.4-0.3c-0.2-0.1-0.3-0.3-0.4-0.4c-0.2-0.2-0.3-0.4-0.4-0.6
		c0-0.1-0.1-0.2-0.1-0.3c0,0,0,0,0-0.1c0.5,0.2,1,0.4,1.5,0.5c0.4,0.1,0.9,0.2,1.3,0.3c0.1,0,0.3,0.1,0.4,0.1
		c0.3,0.1,0.6,0.1,0.9,0.2c0.3,0.1,0.5,0.2,0.8,0.2c0.2,0.1,0.5,0.1,0.7,0.1c0.4,0,0.7-0.1,1.1-0.3c0.2-0.1,0.3-0.3,0.5-0.4
		c0.1-0.1,0.2-0.2,0.3-0.3c0.2-0.3,0.5-0.6,0.6-0.9c0.3-0.7,0.5-1.4,0.5-2.1c0-0.5-0.1-1.1-0.2-1.6c-0.3-1-0.8-2.1-1.6-2.8
		c-0.4-0.4-0.9-0.7-1.3-0.9c-0.4-0.2-0.9-0.4-1.4-0.5l0,0C134.3,391,133.4,390.9,132.5,391.3 M134.4,395c0.1,0,0.2,0.1,0.4,0.1
		c0.2,0.1,0.4,0.2,0.5,0.3c0.1,0.1,0.2,0.1,0.2,0.2c0.1,0.2,0.2,0.3,0.3,0.5c0.1,0.2,0.1,0.4,0.2,0.6c0,0.1,0,0.2,0,0.3
		c-0.2,0-0.4-0.1-0.5-0.1c-0.4-0.1-0.9-0.2-1.3-0.3c-0.4-0.1-0.8-0.2-1.2-0.3c-0.1-0.1-0.3-0.1-0.4-0.2c0.2,0.1,0.3,0.1,0.5,0.2
		c-0.2-0.1-0.3-0.1-0.5-0.2c0,0,0,0-0.1,0c0.2-0.2,0.4-0.4,0.6-0.6c0.1-0.1,0.2-0.1,0.3-0.2c0.1-0.1,0.2-0.1,0.3-0.2
		c0.1,0,0.2-0.1,0.2-0.1c0,0,0,0,0.1,0C134.1,394.9,134.2,395,134.4,395 M131.5,400.4c0.1,0.1,0.1,0.2,0.2,0.3c0,0,0,0,0,0
		C131.7,400.6,131.6,400.5,131.5,400.4"/>
	<path class="st5" d="M162.9,443.6c0.3-0.4,0.5-0.9,0.4-1.4c0-0.1-0.1-0.3-0.1-0.4c0.1-0.1,0.3-0.3,0.4-0.4c0.3-0.2,0.5-0.4,0.8-0.6
		c0.3-0.2,0.6-0.5,0.9-0.7c0.3-0.2,0.6-0.5,0.9-0.7c0.3-0.2,0.7-0.5,1-0.7c0.4-0.3,0.7-0.6,1.1-0.8c0,0,0.1,0,0.1,0.1
		c0.5,0.2,1,0.2,1.5,0.1c0.5-0.2,0.9-0.5,1.1-1c0.1-0.2,0.1-0.3,0.2-0.5c0.1-0.3,0-0.7-0.1-1c-0.1-0.4-0.2-0.7-0.5-1
		c-0.2-0.2-0.4-0.5-0.6-0.7c-0.2-0.2-0.3-0.3-0.5-0.5c0.1,0.1,0.2,0.2,0.3,0.4c-0.2-0.2-0.4-0.4-0.6-0.6c-0.1-0.1-0.2-0.3-0.4-0.4
		c-0.8-0.7-2.1-0.5-2.7,0.2c-0.5,0.6-0.6,1.3-0.3,1.9c-0.3,0.2-0.5,0.4-0.8,0.6c-0.3,0.2-0.7,0.5-1,0.7c-0.3,0.2-0.6,0.5-0.9,0.7
		c-0.3,0.2-0.5,0.5-0.8,0.7c-0.3,0.2-0.6,0.4-0.9,0.7c-0.2,0.1-0.3,0.3-0.5,0.4c-0.3-0.3-0.6-0.4-1-0.5c-0.5-0.1-1,0-1.5,0.3
		c-0.4,0.3-0.7,0.7-0.8,1.2c-0.1,0.5,0,1.1,0.3,1.5c0.3,0.4,0.6,0.8,0.9,1.3c0.1,0.2,0.2,0.3,0.3,0.5c0.2,0.3,0.5,0.6,0.8,0.9
		c0.3,0.3,0.9,0.5,1.4,0.4C162.1,444.3,162.6,444,162.9,443.6z"/>
</g>
<g>
	<path class="st5" d="M241.1,456.1c-0.5,0.3-0.4,0.2-0.7,0.7c-0.1,0.1-0.2,0.5-0.2,0.5c-0.1,0.2-0.1,0.5-0.1,0.7c0,0.5,0,1,0.1,1.5
		c0,0.5,0.1,1,0.2,1.5c0.1,1.2,0.2,2.4,0.3,3.5c0.1,0.6,0.1,1.2,0.2,1.8c0.1,0.6,0.2,1.1,0.3,1.7c0.2,0.6,0.3,1.2,0.4,1.8
		c0.1,0.5,0.3,1,0.4,1.6c0.2,1,1.4,1.7,2.4,1.4c0.5-0.1,0.9-0.4,1.2-0.9c0.3-0.5,0.3-1,0.2-1.5c-0.1-0.5-0.2-1-0.3-1.5
		c-0.1-0.6-0.3-1.1-0.4-1.7c-0.3-1.1-0.4-2.1-0.6-3.2c0-0.2,0-0.3-0.1-0.5c0-0.4-0.1-0.7-0.1-1.1c0.1,0.1,0.1,0.2,0.2,0.3
		c0.2,0.3,0.4,0.7,0.6,1c0.1,0.1,0.2,0.3,0.2,0.4c0.3,0.5,0.7,0.8,1.2,1c0.3,0.1,0.7,0.1,1,0c0.3-0.1,0.6-0.3,0.9-0.5
		c0.1-0.1,0.2-0.3,0.3-0.4c0.2-0.3,0.2-0.6,0.3-1c0-0.1,0-0.2,0-0.3c0-0.1,0-0.3,0-0.4c0.3,0.8,0.5,1.5,0.8,2.3
		c0.3,1.2,0.6,2.4,0.9,3.6c0.3,1,1.3,1.7,2.4,1.4c1-0.3,1.7-1.3,1.4-2.4c-0.2-0.9-0.4-1.8-0.7-2.6c-0.1-0.5-0.3-1.1-0.5-1.6
		c-0.2-0.5-0.3-1-0.5-1.6c-0.2-0.5-0.4-1-0.6-1.6c-0.3-0.7-0.6-1.4-0.9-2c-0.2-0.5-0.5-0.9-0.8-1.3c-0.4-0.5-0.7-1.1-1.1-1.6
		c-0.3-0.3-0.7-0.6-1.2-0.8c-0.7-0.3-1.6-0.1-2,0.5c-0.3,0.3-0.4,0.6-0.6,1c0,0.1,0,0.1-0.1,0.2c-0.1,0.4-0.2,0.7-0.2,1.1
		c-0.1-0.1-0.2-0.2-0.4-0.4c-0.7-0.6-1.5-1.3-2.5-1.4c-0.3,0-0.8,0.1-1.1,0.2C241.3,456,241.2,456.1,241.1,456.1"/>
	<path class="st5" d="M262.4,444.5c-0.5,0.4-0.8,0.9-1.2,1.4c-0.1,0.2-0.3,0.5-0.4,0.7c-0.2,0.4-0.4,0.8-0.5,1.2
		c-0.2,0.6-0.3,1.3-0.3,2c0,0.7,0.1,1.4,0.3,2.1c0.2,0.7,0.4,1.4,0.8,2.1c0.5,1.1,1.4,2.1,2.3,2.9c0.7,0.6,1.5,1,2.3,1.3
		c0.6,0.2,1.3,0.4,2,0.4c0.5,0,1,0,1.5-0.1c0.6-0.1,1.1-0.3,1.7-0.6c0.5-0.2,0.9-0.5,1.3-0.8c0.3-0.3,0.5-0.6,0.7-0.9
		c0.1-0.2,0.2-0.3,0.3-0.5c0.3-0.6,0.6-1.2,0.8-1.9c0.1-0.4,0.2-0.8,0.2-1.2c0-0.3,0.1-0.5,0.1-0.8c0-1.2-0.2-2.4-0.5-3.5
		c-0.1-0.4-0.2-0.8-0.4-1.2c-0.2-0.6-0.5-1.1-0.8-1.6c-0.3-0.5-0.6-0.9-1-1.3c-0.2-0.2-0.5-0.4-0.8-0.6c-0.1-0.1-0.2-0.1-0.3-0.2
		c-0.2-0.1-0.4-0.2-0.6-0.3c-0.5-0.2-1-0.4-1.5-0.5c-0.3-0.1-0.6-0.1-0.9-0.1c-0.3,0-0.5,0-0.8,0.1c-0.2,0-0.4,0.1-0.6,0.1
		c-0.2,0-0.4,0-0.5,0.1c-0.8,0.2-1.5,0.6-2.1,1c0,0,0,0-0.1,0C263,444.1,262.7,444.3,262.4,444.5 M265.7,447
		c0.1-0.1,0.3-0.2,0.4-0.2c0.2,0,0.3-0.1,0.5-0.1c0.3-0.1,0.6-0.1,0.8-0.2c0,0,0.1,0,0.1,0c0.2,0,0.3,0.1,0.5,0.1
		c0.3,0.1,0.6,0.3,0.8,0.5c0,0,0.1,0.1,0.1,0.1c0.1,0.2,0.2,0.3,0.3,0.5c0.1,0.3,0.3,0.5,0.4,0.8c0.1,0.4,0.3,0.9,0.4,1.3
		c0.1,0.4,0.2,0.8,0.2,1.2c0,0.6,0,1.1,0,1.7c-0.1,0.3-0.1,0.6-0.2,0.8c-0.1,0.3-0.3,0.6-0.4,0.8c-0.1,0.1-0.1,0.2-0.2,0.2
		c-0.2,0.1-0.3,0.2-0.5,0.3c-0.1,0-0.3,0.1-0.4,0.1c-0.2,0-0.5,0-0.7,0c-0.3-0.1-0.5-0.1-0.8-0.2c-0.3-0.1-0.6-0.3-0.8-0.4
		c-0.3-0.3-0.6-0.6-0.9-0.9c-0.3-0.4-0.5-0.8-0.7-1.3c-0.2-0.6-0.3-1.1-0.4-1.7c0-0.3,0-0.5,0-0.8c0.1-0.3,0.1-0.5,0.2-0.8
		c0.2-0.3,0.3-0.7,0.6-1c0.1-0.1,0.1-0.1,0.2-0.2C265.2,447.3,265.4,447.2,265.7,447"/>
	<path class="st5" d="M292.2,443.9c-2.1-0.9-2.9,2.2-3.7,3.5c-1.1,1.8-1.9,3.8-2.8,5.8c-0.6,1.3-2.2,3.2-1.3,4.7
		c1.3,2.1,3.3-0.2,4.1-1.3c0.7-0.9,1.4-1.8,2-2.6c0.6-0.7,1.2-1.8,1.9-2.3c0.8-0.5,1.9-0.4,2.8-0.3c0.9,0.1,1.9,0.6,2.7,0.4
		c2.1-0.4,1.9-3.1,0.1-3.7c-1.8-0.6-3.9-0.7-5.7-0.2C293.1,446.6,293.7,444.8,292.2,443.9"/>
	<path class="st5" d="M309.3,459.6c-0.4,0-0.8,0-1.2,0.1c-0.1,0-0.3,0.1-0.4,0.1c-0.3,0-0.5,0.1-0.8,0.2l0.2-0.1
		c-0.3,0.1-0.7,0.2-1,0.4c-0.5,0.2-0.9,0.5-1.3,0.7c-0.8,0.5-1.5,1.3-2.1,2.1c-0.2,0.3-0.5,0.7-0.7,1c-0.3,0.5-0.6,1.1-0.8,1.7
		c-0.1,0.4-0.2,0.8-0.2,1.3c0,0.4,0,0.9,0.1,1.3c0.1,0.3,0.2,0.7,0.3,1c0-0.2-0.1-0.3-0.1-0.5c0.1,0.4,0.2,0.9,0.4,1.3
		c0.2,0.4,0.4,0.7,0.7,1.1c0.4,0.5,0.9,0.9,1.4,1.3c0.4,0.3,0.8,0.6,1.2,0.8c0.3,0.2,0.7,0.4,1.1,0.5c0.3,0.1,0.7,0.2,1,0.2
		c0.5,0,1-0.1,1.4-0.4c0.4-0.3,0.7-0.8,0.7-1.3c0.1-1-0.7-2-1.7-2.1c-0.1,0-0.3-0.1-0.4-0.1c-0.2-0.2-0.5-0.3-0.7-0.5
		c-0.2-0.2-0.5-0.3-0.7-0.5c-0.1-0.1-0.2-0.3-0.3-0.4c-0.1-0.2-0.2-0.4-0.2-0.6c-0.1-0.2-0.1-0.5-0.1-0.8c0-0.1,0-0.2,0-0.4
		c0,0,0,0,0-0.1c0.4,0.4,0.7,0.7,1.2,1c0.4,0.3,0.7,0.6,1.1,0.8c0.1,0.1,0.2,0.2,0.3,0.2c0.3,0.2,0.5,0.4,0.7,0.6
		c0.2,0.2,0.4,0.3,0.6,0.5c0.2,0.1,0.4,0.3,0.7,0.4c0.4,0.1,0.7,0.2,1.1,0.1c0.2,0,0.4-0.1,0.6-0.2c0.1,0,0.3-0.1,0.4-0.2
		c0.3-0.2,0.7-0.4,0.9-0.6c0.5-0.5,1-1.1,1.3-1.7c0.2-0.5,0.3-1.1,0.4-1.6c0.1-1.1,0-2.2-0.4-3.2c-0.2-0.5-0.5-1-0.9-1.4
		c-0.3-0.4-0.7-0.7-1.1-1l0,0C311.1,460.1,310.3,459.7,309.3,459.6 M309.6,463.8c0.1,0.1,0.2,0.1,0.3,0.2c0.1,0.2,0.3,0.3,0.4,0.5
		c0,0.1,0.1,0.2,0.1,0.3c0,0.2,0.1,0.4,0.1,0.6c0,0.2,0,0.4-0.1,0.6c0,0.1-0.1,0.2-0.1,0.3c-0.1-0.1-0.3-0.2-0.4-0.3
		c-0.4-0.3-0.7-0.6-1.1-0.8c-0.3-0.2-0.7-0.5-1-0.8c-0.1-0.1-0.2-0.2-0.3-0.3c0.1,0.1,0.3,0.2,0.4,0.4c-0.1-0.1-0.2-0.2-0.4-0.4
		c0,0,0,0,0,0c0.2-0.1,0.5-0.2,0.7-0.3c0.1,0,0.3,0,0.4-0.1c0.1,0,0.3-0.1,0.4-0.1c0.1,0,0.2,0,0.3,0c0,0,0,0,0,0
		C309.4,463.6,309.5,463.7,309.6,463.8 M299.5,462.9c0.1,0.1,0.2,0.1,0.3,0.2c0,0,0,0,0,0C299.7,463,299.6,463,299.5,462.9"/>
</g>
<g>
	<path class="st5" d="M405.4,433.2c-0.1-0.2-0.2-0.4-0.3-0.6c-0.2-0.3-0.4-0.6-0.6-0.9c-0.2-0.3-0.4-0.6-0.6-0.9
		c-0.5-0.7-1.2-1.3-2-1.7c-0.3-0.2-0.7-0.3-1-0.5c-0.3-0.1-0.7-0.1-1-0.2c-0.6,0-1.2,0-1.8,0.1c-0.6,0.1-1.1,0.3-1.6,0.6
		c-0.1,0-0.2,0.1-0.3,0.1c-0.2,0.1-0.4,0.3-0.6,0.4c-0.2,0.2-0.4,0.4-0.5,0.6c-0.2,0.2-0.3,0.4-0.4,0.6c0,0,0,0,0,0c0,0,0,0,0,0
		c0,0,0,0,0,0c-0.2-0.2-0.5-0.3-0.7-0.4c-0.5-0.2-1-0.1-1.5,0.1c-0.5,0.2-0.8,0.7-0.9,1.1c-0.1,0.4-0.1,1.1,0.1,1.5
		c0.3,0.4,0.5,0.9,0.8,1.3c0.2,0.5,0.5,0.9,0.8,1.3c0.3,0.5,0.5,1,0.8,1.4c0.4,0.5,0.7,1,1.1,1.5c0.5,0.8,1.1,1.6,1.6,2.4
		c0.2,0.4,0.5,0.8,0.7,1.1c0.2,0.3,0.4,0.7,0.6,0.9c0.7,0.8,2,0.8,2.7,0.1c0.7-0.7,0.8-1.9,0.2-2.7c-0.1-0.1-0.2-0.3-0.3-0.4
		c-0.3-0.5-0.6-1-0.9-1.5c-0.3-0.5-0.7-1-1-1.5c-0.2-0.3-0.5-0.7-0.7-1c0,0,0,0,0-0.1c-0.1-0.3-0.1-0.6-0.1-0.9c0-0.1,0-0.2,0-0.3
		c0-0.6,0-1.1,0.1-1.7c0-0.2,0.1-0.4,0.2-0.6c0,0,0.1-0.1,0.1-0.1c0.1-0.1,0.3-0.1,0.4-0.2c0.2-0.1,0.4-0.1,0.6-0.1
		c0.2,0,0.4,0,0.6,0c0.1,0,0.1,0,0.2,0.1c0.2,0.1,0.3,0.2,0.5,0.3c0.4,0.4,0.8,0.9,1.1,1.4c0.3,0.4,0.5,0.8,0.7,1.2
		c0.2,0.4,0.5,0.9,0.7,1.3c0.2,0.4,0.4,0.8,0.6,1.2c0.2,0.4,0.4,0.8,0.6,1.2c0.2,0.5,0.7,0.8,1.1,0.9c0.5,0.2,1,0.1,1.5-0.1
		c0.5-0.2,0.8-0.7,0.9-1.1c0-0.2,0.1-0.3,0.1-0.5c0-0.4-0.1-0.7-0.2-1c-0.3-0.6-0.6-1.2-0.9-1.8
		C406.2,434.7,405.8,433.9,405.4,433.2z"/>
	<path class="st5" d="M356.7,465c-0.9,0.1-1.8,0.2-2.6,0.3c-0.5,0.1-0.9,0.1-1.4,0.1c-0.3,0-0.6,0-1,0c-0.6,0-1.1-0.1-1.7-0.1
		c-0.4-0.1-0.8-0.1-1.2-0.2c-0.2-0.1-0.4,0-0.7,0c-0.3,0.1-0.6,0.2-0.8,0.4c-0.4,0.3-0.7,0.8-0.7,1.3c-0.1,0.5,0.1,1,0.4,1.5
		c0.1,0.1,0.2,0.2,0.3,0.4c0.3,0.2,0.6,0.3,0.9,0.4c0.6,0.1,1.1,0.2,1.7,0.3c0,0,0,0,0,0c0,0.1,0,0.3,0,0.4c0,0.6-0.1,1.3-0.1,1.9
		c0,0.7-0.1,1.4-0.1,2.1c0,0.8,0,1.7,0,2.6c0.1,0.7,0.2,1.5,0.4,2.2c0-0.1-0.1-0.2-0.1-0.4c0,0.1,0,0.2,0.1,0.3
		c0.2,1,1.1,1.8,2.2,1.7c1-0.1,1.9-1.1,1.7-2.2c0-0.2-0.1-0.4-0.1-0.6c0-0.2-0.1-0.3-0.1-0.5c-0.1-0.3-0.1-0.7-0.1-1
		c-0.1-0.5,0-1,0-1.5c0-0.7,0.1-1.5,0.1-2.2c0-0.9,0.1-1.7,0.1-2.6c0-0.1,0-0.1,0-0.2c1.1-0.1,2.2-0.3,3.3-0.4
		c1.1-0.1,1.8-1.1,1.7-2.2C358.7,465.6,357.7,464.9,356.7,465z"/>
	<path class="st5" d="M378.8,447.5c-0.1,0.4-0.2,0.8-0.2,1.3c0,0.3,0,0.7,0,1c0,0.3,0,0.6,0.1,0.9c0.2,0.7,0.4,1.4,0.7,2.1
		c0.3,0.6,0.7,1.2,1.1,1.7c0.5,0.7,1.1,1.4,1.8,1.9c0.4,0.3,0.8,0.4,1.3,0.6c0.4,0.2,0.8,0.2,1.2,0.3c0.6,0.1,1.2,0,1.7-0.2
		c0.5-0.2,1-0.6,1.4-0.9c0.3-0.2,0.5-0.4,0.7-0.7c0.3-0.3,0.5-0.8,0.7-1.2c0.1-0.1,0.1-0.3,0.1-0.4c0.1-0.3,0.1-0.5,0.2-0.8
		c0.3,0.2,0.6,0.4,1,0.6c0.4,0.2,1,0.1,1.5,0c0.5-0.2,0.9-0.6,1-1.1c0.2-0.5,0.2-1,0-1.5c-0.2-0.4-0.4-0.7-0.8-0.9l0.1,0.1
		c-0.3-0.2-0.7-0.4-1-0.6c-0.4-0.3-0.8-0.6-1.2-0.9c-0.4-0.4-0.7-0.8-1.1-1.1c-0.2-0.2-0.5-0.4-0.7-0.6c-0.2-0.2-0.5-0.5-0.8-0.7
		c-0.1-0.1-0.3-0.2-0.4-0.4c-0.2-0.2-0.4-0.5-0.7-0.7c-0.1-0.1-0.3-0.2-0.5-0.3c-0.2-0.3-0.5-0.6-0.9-0.7c-0.3-0.1-0.6-0.2-0.8-0.2
		c-0.4-0.1-0.8-0.1-1.2-0.1c-0.4,0-0.8,0.1-1.2,0.3c-0.4,0.1-0.8,0.4-1.2,0.6c-0.2,0.2-0.5,0.3-0.7,0.5c-0.1,0-0.1,0.1-0.2,0.1
		C379.4,446.1,379,446.7,378.8,447.5 M382.5,448.5c0.2-0.1,0.3-0.2,0.5-0.4c0.1-0.1,0.2-0.1,0.3-0.2c0.1,0,0.1,0,0.2,0
		c0.1,0,0.1,0,0.2,0c0.1,0,0.1,0,0.2,0.1l0,0c0.2,0.3,0.4,0.5,0.5,0.8c0.5,0.9,1,1.8,1.4,2.8c0.1,0.3,0.1,0.5,0.1,0.8
		c0,0.1,0,0.3,0,0.4c0,0.1,0,0.1-0.1,0.2c0,0,0,0,0,0c-0.1,0.1-0.3,0.3-0.5,0.4c-0.2-0.1-0.4-0.2-0.6-0.3c-0.1-0.1-0.2-0.1-0.3-0.2
		c-0.4-0.5-0.8-1-1.2-1.6c-0.2-0.4-0.4-0.7-0.5-1.1c-0.1-0.4-0.1-0.7-0.2-1.1c0-0.2,0-0.4,0.1-0.6
		C382.5,448.5,382.5,448.5,382.5,448.5 M385.1,453.4C385.2,453.4,385.2,453.4,385.1,453.4C385.2,453.4,385.2,453.4,385.1,453.4
		C385.2,453.4,385.2,453.4,385.1,453.4 M385.3,453.4C385.3,453.4,385.4,453.4,385.3,453.4C385.4,453.4,385.3,453.4,385.3,453.4
		C385.3,453.4,385.3,453.4,385.3,453.4"/>
	<path class="st5" d="M362.6,460c-0.1,0.6,0.1,1,0.3,1.5c0.3,0.5,0.5,0.9,0.8,1.4c0.3,0.4,0.5,0.8,0.8,1.2c0.6,0.9,1.1,1.7,1.7,2.5
		c0.5,0.8,1.1,1.6,1.6,2.4c0.3,0.4,0.6,0.7,0.8,1.1c0.1,0.2,0.2,0.3,0.3,0.5c0.1,0.1,0.1,0.2,0.2,0.3c0.2,0.3,0.5,0.5,0.8,0.6
		c0.3,0.1,0.6,0.2,1,0.2c0.4,0,0.7-0.1,1-0.4l0.4-0.3c0.2-0.3,0.4-0.6,0.4-0.9c0-0.5,0-0.6-0.1-1.1c0-0.1-0.1-0.2-0.1-0.3
		c0-0.2-0.1-0.3-0.2-0.5c-0.1-0.3-0.3-0.6-0.4-0.9c-0.2-0.4-0.4-0.9-0.5-1.3c0-0.4,0-0.8,0-1.2c0-0.3,0-0.6,0-0.9
		c0-0.3,0.1-0.6,0.2-1c0-0.1,0.1-0.1,0.1-0.2c0.1-0.1,0.2-0.3,0.3-0.4c0.1-0.1,0.2-0.1,0.3-0.2c0.1,0,0.1-0.1,0.2-0.1
		c0,0,0.1,0,0.1,0c0,0,0.1,0,0.1,0c0,0,0.1,0.1,0.1,0.1c0.4,0.5,0.8,1.1,1.2,1.7c0.3,0.6,0.7,1.1,1.1,1.7c0.1,0.2,0.2,0.3,0.2,0.5
		c0.2,0.3,0.3,0.7,0.6,1c0.3,0.4,0.7,0.7,1.2,0.8c0.5,0.1,1.1,0,1.5-0.3c0.4-0.3,0.7-0.7,0.8-1.2c0.1-0.5,0-1.1-0.3-1.5
		c-0.1-0.1-0.1-0.1-0.1-0.2c-0.3-0.5-0.5-1-0.8-1.5c-0.3-0.5-0.6-0.9-0.9-1.4c-0.3-0.5-0.6-1-0.9-1.4c-0.3-0.4-0.7-0.9-1.1-1.2
		c-0.6-0.5-1.4-0.8-2.2-0.9c-0.5-0.1-1,0-1.5,0.1c-0.2,0.1-0.4,0.1-0.6,0.2c-0.4,0.2-0.8,0.4-1.2,0.7c-0.6,0.4-1,1-1.3,1.6
		c-0.2,0.3-0.3,0.6-0.4,0.9c-0.2-0.4-0.5-0.8-0.8-1.1c-0.3-0.5-0.5-1-0.8-1.4c-0.2-0.4-0.8-0.7-1.2-0.8c-0.5-0.1-1.1,0-1.5,0.3
		c0,0-0.1,0-0.1,0.1C362.9,459.1,362.6,459.5,362.6,460 M378.4,464.5C378.4,464.6,378.5,464.6,378.4,464.5
		C378.5,464.6,378.4,464.6,378.4,464.5"/>
</g>
</svg>
