<?xml version="1.0" encoding="utf-8"?>
<!-- Generator: Adobe Illustrator 21.0.2, SVG Export Plug-In . SVG Version: 6.00 Build 0)  -->
<svg version="1.1" id="Layer_1" xmlns="http://www.w3.org/2000/svg" xmlns:xlink="http://www.w3.org/1999/xlink" x="0px" y="0px"
	 viewBox="0 0 453.5 453.5" style="enable-background:new 0 0 453.5 453.5;" xml:space="preserve">
<style type="text/css">
	.st0{fill:#191919;}
	.st1{fill:#262626;}
	.st2{fill:#2C2C2C;}
	.st3{fill:#FF9B34;}
	.st4{fill:#232323;}
	.st5{fill:#F0F0F0;}
	.st6{fill:#FEF9E4;}
</style>
<g>
	<path class="st3" d="M426.1,247.9c-13.9-18.5-36.8-29.4-62.2-35.1c-20.7-39.8-74.5-71.5-122.7-78.2c-43.9-6-115.8,4.3-142.9,59.8
		c-2.5,5.2-4.6,10.6-6.2,16.2c-31.7,6.6-66.5,25.4-76.4,63.5c-7,27.1-0.1,58.6,17.1,80.8c11.7,15.1,26.7,24.3,42.8,29.2
		c-0.1,6.6,0.8,13.3,2.9,20.1c12.8,39.8,59.5,44.7,61.9,44.9c24.5,2.1,51.9-7.3,73.7-24.5c6.2,7.1,13.5,13.2,22.1,18
		c24.7,13.7,55.4,13.2,78.6-0.3c13.4-7.8,23-19.2,29.7-32.4C408.9,399.5,469.1,305.4,426.1,247.9z"/>
	<path class="st6" d="M338.7,196.1c-7-18.1-29.1-20.3-45.6-18.7c2.6-5.2,0.4-13.8-0.2-19.3c-0.7-6.6-1.3-13.2-1.3-19.8
		c0-15.1-0.6-29.1-6-43.5c-3.5-9.3-8.7-16.8-17-22.1c-6-3.8-11.9-8.2-17.8-12.1c-3.2-2.1-7.3-3.4-10.6-0.1c-0.3-1.3-1.4-2.1-2.5-2.4
		c-1.4,2.7-35.1,1.1-35.7-2.3c-1.2,0.4-2.2,0.7-3,0.9c0.2,0.4,0.4,0.7,0.5,1c-7.2,2.6-14.6,6.7-21.5,10.1c-7.9,3.9-16.3,7-18.1,16.5
		c-2,11.1-4.9,22.2-6.8,33.3c-1.1,6.2-1.1,12.8-3.3,18.8l0.2-0.1c-2.3,5.5-2.3,11.4-3.2,17.2c-1.1,7-4,15.4-0.5,22.3
		c-13.7-0.1-36.2,0.5-37.4,18.4c-0.6,9.8,0.9,22.1,7.4,29.9c5.7,6.7,17.7,10.1,26,12.1c8.4,2.1,16,3.3,24.7,2.6
		c1.6-0.1,6.7-1.5,7.8-0.4c1.8,1.8-0.5,7.9-0.9,10.1c-2.3,12,9,12,18.4,12.2c8.3,0.2,16.7-0.5,25-0.9c5.5-0.2,10.8-0.7,16.1-1.9
		c3.5-0.8,10.9-1.6,13.3-4.7c3.8,3.8,12,1.1,13.5-3.5c15.1,0,26.5,0.5,40.9-5.8c10.3-4.5,20-12.1,27-20.8
		C333.6,216.3,342.6,205.2,338.7,196.1z"/>
	<g>
		<path class="st6" d="M120.1,273.1c-10.4-0.1-19.4,8.1-25.9,15.3c-7.2,7.9-10.8,17.6-13,27.9c-4.8,22.5,14.3,38.5,35.4,40.7
			c10.9,1.1,18.2-5.9,24.1-14.1c6.5-9,8.1-17.6-2.2-24.4c-6.6-4.4-18.2-12.6-24.8-4c-2.4,3.1-2.8,7.3-1.1,10.9
			c0.9,1.9,2.2,3.2,3.9,4.4c1.5,1.1,6,2.1,7,3.6c-3.9,4.8-7.7,3.1-13.2,0.8c-4.9-2.1-10.6-5.6-10.6-11.6c0-5.7,3.3-13.7,6.6-18.2
			c3-4.2,9.2-11.2,14.8-11.1c6.8,0.2,11.5,6.3,17.8,7.1c5.7,0.8,10.8-4.2,11.1-9.8C150.6,278.1,129.6,273.1,120.1,273.1"/>
		<path class="st6" d="M164.8,304.9c-2.2,10.5-2.5,21.4-2.5,32.1c0.1,10.2-1.6,22.6,3.4,32c4.8,9,15.1,12.6,24.8,12.9
			c11.5,0.3,19.7-5.1,24.2-15.8c4.4-10.5,3.9-22.1,4.1-33.2c0.1-8.2,3.6-24.8-3.8-30.7c-3.2-2.5-7.7-2.8-11-0.5
			c-4.3,3-4.4,7.7-4.2,12.5c0.4,11.4,0.8,23.6-0.6,35c-0.6,4.7-1.1,11.1-6.3,12.1c-2.8,0.5-8.6-0.3-10.3-2.9
			c-2.3-3.6-0.8-13.6-0.7-17.7c0.1-6.9-0.2-13.7,0.5-20.6c-0.4,6,0.2-1.9,0.4-3.1c0.2-2.3,0.7-4.4,1.1-6.7c0.6-4.1,0.4-7.8-2.7-10.8
			C175.4,293.9,166.3,297.5,164.8,304.9"/>
		<path class="st6" d="M244.2,296.9c-12.1,2.1-6.8,18.6-6.6,26.4c0.4,11.5,2.4,22.9,4.1,34.2c1.1,7.5-0.6,21,7.5,25
			c12,5.9,14.1-10.4,14.9-17.9c0.6-5.9,1.1-11.9,1.6-17.8c0.5-4.9,0-11.6,2.2-16c2.2-4.3,7.6-7.5,11.7-9.6c4.1-2.1,10.2-2.8,13.6-6
			c8.2-7.7-0.5-19.5-10.3-17c-9.8,2.4-19.6,8.3-26.5,15.6C256.1,306,253.8,296.4,244.2,296.9"/>
		<path class="st6" d="M346,267c-4.9,1.3-7.7,6.7-6.8,11.5c0.5,2.7,2.2,4.9,3.5,7.3c0.8,1.7,1.5,3.4,2.3,5.1c0.4,1,2.5,5.9,0.4,0.8
			c2.3,5.7,4.2,11.3,6,17.1c1.6,5.2,5.3,12.1,5.3,17.7c0,3.3-1.5,4.7-4.8,6.2c-5.1,2.4-7.4,1.7-10.5-2.9
			c-6.7-9.9-9.9-23.9-13.3-35.3c-1.3-4.4-1.8-9.4-5.8-12.4c-3.8-2.8-9.1-2.5-12.3,0.9c-3.4,3.6-2.9,8.2-1.5,12.6
			c1.8,5.6,3.5,11.1,5.5,16.7c4,11.3,7,23.5,14.9,32.8c7.9,9.3,17.8,11.4,29,7.2c9.4-3.5,17.8-11,18.7-21.5
			c1.1-12-5.5-26.6-9.5-37.8C363.8,284.9,358.5,263.6,346,267L346,267z"/>
	</g>
	<g>
		<path class="st3" d="M173.6,191.8c-0.2,4.5,8.9,9.5,12,11.8c4.9,3.5,10.4,7.1,13.2,12.7c0-0.1,0-0.1,0-0.2
			c1.4,2.8,2.3,5.8,3.3,8.8c1.4,4.1,2.4,4.6,0.9,8.7c-0.7,2-4.1,13.5,2.5,10.2c-1,1,0.1,3.3,1,4c1.8,1.5,2.8,0.3,4.5,0.3
			c3,0.1,3.9,1.8,5.3-2.4c0,2,5.4,2.6,5.4-0.5c2.7,2.6,4.3,0.5,5.5-1.8c0,0.6,2.3-0.5,2.3-0.5c1.7-1.1,0.8-2.8,0.8-4.6
			c0.7,1.3,3.3,1,4.1,0.1c1-1.1,0.2-2.4,0.4-3.7c0.8-4.2,3.1-7.6,5.2-11.4c3.1-5.7,5.4-13.1,11.5-17c5.7-3.6,14.6-6.1,18.7-12
			c4.2-6-8.9-11-14-10.5c-4.9,0.4-8.3,4.5-12.5,7c-5.1,3-10.2,5.8-15.4,8.7c-5.4,3-11.1-1.4-16.7-3.4c-4-1.5-7.5-3.4-10.9-6
			c-2.4-1.8-5.6-6.3-8.7-6.6C192.1,183.4,176.6,183.9,173.6,191.8z"/>
		<path class="st3" d="M212,1.2c-3.2,1.3-6.1,3.7-8.2,6.4c-1.1,1.4-1.8,3.2-2.3,4.9c-0.6,2-1.1,4-1.2,6.1c-0.1,2-0.1,3.9-0.1,5.9
			c0,0.4,0,0.8,0,1.2c0,0.6,0.2,2.1-0.2,2.6c-0.3,0.3-1,0.4-1.4,0.5c-1,0.4-1.6,1.1-2.1,2c-1,1.9-0.9,4-0.9,6.1
			c0,2.2,0.4,4.6,1.1,6.7c0.7,2,1.7,3.3,3.6,4.4c0.4,0.2,0.8,0.4,1.1,0.8c0.7,0.7,0.5,2,0.5,2.9c0.1,3.7,0.5,7.2,3.1,10.1
			c1.1,1.2,1.8,3.1,1.4,4.8c-0.2,0.8-0.8,1.5-1.3,2.1c-0.6,0.8-1,1.7-1.5,2.5c-0.7,1.3-1.8,4.2-0.4,5.4c0.7,0.6,2.1,0.7,3.1,0.8
			c0.8,0.1,1.6,0.2,2.4,0.3c2.7,0.2,5.5,0.1,8.2,0.1c1.8,0,3.5-0.3,5.2-0.6c2-0.4,3.7-1.4,5.5-2.2c1.2-0.5,2.3-1.2,3.4-1.8
			c2-1.1,3.2-2.8,4.3-4.8c1.7-2.8,2-6,2.2-9.2c0.1-0.8,0.6-1.5,0.9-2.2c0.5-1.1,0.8-2.3,1-3.5c0.1-0.5,0.1-1.1,0.1-1.6
			c0-0.3,0.1-0.7,0-1c0-0.1-0.3-1.4,0.3-1.7c3.1-1.3,4-5.1,4.5-8.1c0.4-2.3,0.5-4.6,0.6-6.9c0.1-2.2-0.4-3.7-2.6-4.6
			c-0.5-0.2-1.1-0.3-1.4-0.8c-0.4-0.6-0.3-1.8-0.3-2.5c-0.1-2.4-0.1-4.7-0.5-7.1c-0.3-1.8-0.4-3.7-1-5.4c-0.6-1.8-1.5-3.3-2.5-4.9
			c-1.1-1.6-2.2-3.2-3.7-4.3c-1.7-1.3-3.8-2.5-5.9-3.1c-2.2-0.6-4.8-0.7-7.1-0.8c-1.4-0.1-2.9-0.1-4.3,0.1
			C214.3,0.9,213,0.8,212,1.2z"/>
	</g>
</g>
</svg>
