<?xml version="1.0" encoding="utf-8"?>
<!-- Generator: Adobe Illustrator 21.0.2, SVG Export Plug-In . SVG Version: 6.00 Build 0)  -->
<svg version="1.1" id="Layer_1" xmlns="http://www.w3.org/2000/svg" xmlns:xlink="http://www.w3.org/1999/xlink" x="0px" y="0px"
	 viewBox="0 0 566.9 566.9" style="enable-background:new 0 0 566.9 566.9;" xml:space="preserve">
<style type="text/css">
	.st0{fill:#262626;}
	.st1{fill:#2C2C2C;}
	.st2{fill:#F0F0F0;}
	.st3{fill:#232323;}
</style>
<g>
	<path class="st0" d="M489.8,286.5c-13.9-18.5-36.8-29.4-62.2-35.1c-20.7-39.8-74.5-71.5-122.7-78.2c-43.9-6-115.8,4.3-142.9,59.8
		c-2.5,5.2-4.6,10.6-6.2,16.2c-31.7,6.6-66.5,25.4-76.4,63.5c-7,27.1-0.1,58.6,17.1,80.8c11.7,15.1,26.7,24.3,42.8,29.2
		c-0.1,6.6,0.8,13.3,2.9,20.1c12.8,39.8,59.5,44.7,61.9,44.9c24.5,2.1,51.9-7.3,73.7-24.5c6.2,7.1,13.5,13.2,22.1,18
		c24.7,13.7,55.4,13.2,78.6-0.3c13.4-7.8,23-19.2,29.7-32.4C472.7,438,532.8,343.9,489.8,286.5z"/>
	<path class="st2" d="M402.4,234.6c-7-18.1-29.1-20.3-45.6-18.7c2.6-5.2,0.4-13.8-0.2-19.3c-0.7-6.6-1.3-13.2-1.3-19.8
		c0-15.1-0.6-29.1-6-43.5c-3.5-9.3-8.7-16.8-17-22.1c-6-3.8-11.9-8.2-17.8-12.1c-3.2-2.1-7.3-3.4-10.6-0.1c-0.3-1.3-1.4-2.1-2.5-2.4
		c-1.4,2.7-35.1,1.1-35.7-2.3c-1.2,0.4-2.2,0.7-3,0.9c0.2,0.4,0.4,0.7,0.5,1c-7.2,2.6-14.6,6.7-21.5,10.1c-7.9,3.9-16.3,7-18.1,16.5
		c-2,11.1-4.9,22.2-6.8,33.3c-1.1,6.2-1.1,12.8-3.3,18.8l0.2-0.1c-2.3,5.5-2.3,11.4-3.2,17.2c-1.1,7-4,15.4-0.5,22.3
		c-13.7-0.1-36.2,0.5-37.4,18.4c-0.6,9.8,0.9,22.1,7.4,29.9c5.7,6.7,17.7,10.1,26,12.1c8.4,2.1,16,3.3,24.7,2.6
		c1.6-0.1,6.7-1.5,7.8-0.4c1.8,1.8-0.5,7.9-0.9,10.1c-2.3,12,9,12,18.4,12.2c8.3,0.2,16.7-0.5,25-0.9c5.5-0.2,10.8-0.7,16.1-1.9
		c3.5-0.8,10.9-1.6,13.3-4.7c3.8,3.8,12,1.1,13.5-3.5c15.1,0,26.5,0.5,40.9-5.8c10.3-4.5,20-12.1,27-20.8
		C397.4,254.8,406.4,243.7,402.4,234.6z"/>
	<g>
		<path class="st2" d="M157.1,299.9c-10.5,2.3-17.6,12.5-22.5,21.2c-5.4,9.5-6.8,20-6.7,30.8c0.3,23.6,23.1,35.3,44.6,32.7
			c11.2-1.4,16.9-10,21-19.6c4.5-10.5,4.1-19.5-7.7-23.9c-7.6-2.9-21.1-8.5-25.8,1.6c-1.7,3.6-1.1,8,1.4,11.1
			c1.4,1.7,2.9,2.7,4.9,3.5c1.8,0.7,6.5,0.7,7.8,2c-2.8,5.7-7,4.9-13,3.8c-5.3-1-11.8-3.2-13.2-9.2c-1.3-5.7,0.2-14.4,2.5-19.7
			c2.1-4.9,6.6-13.3,12.3-14.4c6.8-1.4,13,3.7,19.5,3.1c5.9-0.5,9.9-6.7,8.9-12.3C188.8,298,166.6,297.7,157.1,299.9"/>
		<path class="st2" d="M220.1,323.5c-2.8,10.6-3.7,21.8-4.2,32.8c-0.5,10.5-2.8,23.1,1.8,32.9c4.4,9.4,14.9,13.8,24.7,14.5
			c11.7,0.9,20.4-4.2,25.6-14.9c5-10.5,5.1-22.4,5.9-33.8c0.6-8.4,5-25.2-2.3-31.7c-3.1-2.8-7.7-3.3-11.3-1c-4.6,2.9-4.9,7.7-5,12.6
			c-0.2,11.7-0.4,24.3-2.5,35.8c-0.9,4.8-1.7,11.4-7.1,12.1c-2.9,0.4-8.8-0.8-10.4-3.5c-2.2-3.8-0.1-14,0.2-18.2
			c0.4-7.1,0.5-14.1,1.6-21.1c-0.8,6.1,0.3-2,0.5-3.2c0.4-2.3,1-4.5,1.5-6.8c0.9-4.1,0.8-8-2.2-11.2
			C231.6,312.8,222,316,220.1,323.5"/>
		<path class="st2" d="M307,320.2c-12.5,1.5-8,18.7-8.1,26.7c-0.2,11.8,1.3,23.6,2.4,35.3c0.8,7.8-1.7,21.5,6.4,26
			c12,6.7,15-10,16.2-17.6c0.9-6,1.7-12.1,2.6-18.1c0.7-5,0.6-11.8,3.1-16.3c2.5-4.3,8.2-7.3,12.5-9.2c4.4-2,10.6-2.3,14.2-5.4
			c8.8-7.5,0.5-20-9.6-18c-10.2,2-20.5,7.4-28,14.6C318.7,330.2,316.9,320.2,307,320.2"/>
		<path class="st2" d="M424.3,315.3c-5.2,0-9.4,4.6-9.8,9.6c-0.2,2.8,0.9,5.5,1.5,8.2c0.4,1.9,0.6,3.8,0.9,5.6
			c0.2,1.1,0.9,6.5,0.2,1c0.8,6.2,1.2,12.3,1.4,18.6c0.3,5.6,2.1,13.4,0.6,18.9c-0.9,3.3-2.8,4.2-6.4,4.9c-5.7,1.1-7.8-0.2-9.7-5.6
			c-4.1-11.6-3.5-26.3-3.9-38.5c-0.2-4.7,0.7-9.9-2.5-13.8c-3-3.8-8.3-4.9-12.5-2.3c-4.3,2.7-5.1,7.4-4.9,12.1c0.3,6,0.6,12,1,18
			c0.9,12.3,0.7,25.1,6.1,36.4c5.4,11.3,14.7,16,26.9,14.8c10.3-1,20.5-6.2,24.2-16.4c4.3-11.6,1.5-27.9,0.5-40
			C437.2,337.8,437.6,315.3,424.3,315.3L424.3,315.3z"/>
	</g>
	<g>
		<path class="st1" d="M237.3,230.3c-0.1,1.6,0.4,2.1,1.1,2.9c1.5,1.7,3.3,2.8,5,4.2c1.1,0.9,2.1,1.8,3.2,2.7c2.9,2.3,6.3,4,8.9,6.6
			c1.1,1.1,2.3,2,3.4,3c1.4,1.3,2.7,3.2,3.5,4.9c0-0.1,0-0.1,0-0.2c0.6,1.2,1.3,2.4,1.7,3.7c0.4,1.3,0.7,2.7,1.2,4
			c0.5,1.4,1,2.9,1.6,4.3c0.2,0.7,0.9,1.2,1.1,1.8c0.2,0.5-0.1,0.9-0.3,1.4c-0.7,1.5-1.5,2.9-1.9,4.5c-0.2,0.9-0.5,1.8-0.8,2.8
			c-0.4,1.4-0.7,3.1,0.3,4.3c0.7,0.8,2.8,1.4,3.8,0.9c-0.4,0.4-0.3,1.7-0.2,2.3c0.2,0.7,0.6,1.3,1.2,1.7c1.1,0.9,2.6,1.2,3.8,0.5
			c0.5-0.3,0.4-0.4,0.9,0c0.2,0.2,0.5,0.3,0.7,0.4c0.6,0.3,1.4,0.5,2.1,0.3c1.5-0.4,1.9-1.9,2.3-3.2c0,0.5,0.9,1,1.3,1.2
			c0.6,0.3,1.3,0.5,1.9,0.6c1.3,0.2,2.2-1,2.2-2.3c0.7,0.7,2.1,1.3,3.1,1.2c1.5-0.1,1.9-1.9,2.4-3c0,0.3,1.4,0,1.5,0
			c0.7-0.2,1.3-0.4,1.6-1c0.8-1.3,0-2.8,0-4.1c0.4,0.8,1.9,0.8,2.7,0.8c0.8,0,1.5-0.3,1.8-1.1c0.3-0.7,0.1-1.6,0.1-2.4
			c0-1.1-0.4-2.4,0.1-3.4c1-2,2.3-3.9,3.4-5.9c0.5-1,1.1-2,1.6-2.9c0.3-0.5,0.4-0.9,0.9-1.2c0.4-0.3,0.7-0.3,0.8-0.8
			c0.2-0.5,0-0.9,0-1.3c0-0.5,0.3-1.1,0.6-1.6c0.7-1.6,1.5-3.2,2.4-4.7c0.5-0.8,0.8-1.5,1.5-2.3c0.7-0.8,1.4-1.6,2.1-2.4
			c1.4-1.6,3-2.9,5.1-3.6c1.6-0.6,3.2-1.5,4.7-2.4c1.5-0.9,6.8-4.2,9.2-6.2c2.4-2,3.8-3.2,4.4-4.1s-2.8-4.5-7.1-7.2
			c-1.7-1.1-3.7-1.7-5.8-1.7c-0.7,0-1.5,0-2.2,0c-0.2,0-2.6,0-3.1,0.2c-0.3,0.1-0.6,0.4-0.9,0.5c-1,0.5-2.2,2.2-5.7,4.4
			c-3.5,2.2-21.3,12.1-21.5,12.2c-0.3,0.1-0.4,0-0.8-0.2c-0.8-0.3-1.6-0.6-2.4-0.9c-1.1-0.4-2.3-0.9-3.4-1.3
			c-2.4-0.9-4.8-1.9-7.2-2.7c-1.7-0.6-3.4-1.2-5-2c-2.1-1.2-4.1-2.5-5.9-3.9c-1.1-0.8-2.2-1.7-3.2-2.5c-0.7-0.6-2.9-3.8-5.5-4.1
			C255.8,221.9,240.4,222.4,237.3,230.3z"/>
		<path class="st1" d="M275.7,39.7c-3.2,1.3-6.1,3.7-8.2,6.4c-1.1,1.4-1.8,3.2-2.3,4.9c-0.6,2-1.1,4-1.2,6.1c-0.1,2-0.1,3.9-0.1,5.9
			c0,0.4,0,0.8,0,1.2c0,0.6,0.2,2.1-0.2,2.6c-0.3,0.3-1,0.4-1.4,0.5c-1,0.4-1.6,1.1-2.1,2c-1,1.9-0.9,4-0.9,6.1
			c0,2.2,0.4,4.6,1.1,6.7c0.7,2,1.7,3.3,3.6,4.4c0.4,0.2,0.8,0.4,1.1,0.8c0.7,0.7,0.5,2,0.5,2.9c0.1,3.7,0.5,7.2,3.1,10.1
			c1.1,1.2,1.8,3.1,1.4,4.8c-0.2,0.8-0.8,1.5-1.3,2.1c-0.6,0.8-1,1.7-1.5,2.5c-0.7,1.3-1.8,4.2-0.4,5.4c0.7,0.6,2.1,0.7,3.1,0.8
			c0.8,0.1,1.6,0.2,2.4,0.3c2.7,0.2,5.5,0.1,8.2,0.1c1.8,0,3.5-0.3,5.2-0.6c2-0.4,3.7-1.4,5.5-2.2c1.2-0.5,2.3-1.2,3.4-1.8
			c2-1.1,3.2-2.8,4.3-4.8c1.7-2.8,2-6,2.2-9.2c0.1-0.8,0.6-1.5,0.9-2.2c0.5-1.1,0.8-2.3,1-3.5c0.1-0.5,0.1-1.1,0.1-1.6
			c0-0.3,0.1-0.7,0-1c0-0.1-0.3-1.4,0.3-1.7c3.1-1.3,4-5.1,4.5-8.1c0.4-2.3,0.5-4.6,0.6-6.9c0.1-2.2-0.4-3.7-2.6-4.6
			c-0.5-0.2-1.1-0.3-1.4-0.8c-0.4-0.6-0.3-1.8-0.3-2.5c-0.1-2.4-0.1-4.7-0.5-7.1c-0.3-1.8-0.4-3.7-1-5.4c-0.6-1.8-1.5-3.3-2.5-4.9
			c-1.1-1.6-2.2-3.2-3.7-4.3c-1.7-1.3-3.8-2.5-5.9-3.1c-2.2-0.6-4.8-0.7-7.1-0.8c-1.4-0.1-2.9-0.1-4.3,0.1
			C278,39.4,276.7,39.4,275.7,39.7z"/>
	</g>
</g>
</svg>
