<?xml version="1.0" encoding="utf-8"?>
<!-- Generator: Adobe Illustrator 21.0.2, SVG Export Plug-In . SVG Version: 6.00 Build 0)  -->
<svg version="1.1" id="Layer_1" xmlns="http://www.w3.org/2000/svg" xmlns:xlink="http://www.w3.org/1999/xlink" x="0px" y="0px"
	 viewBox="0 0 425.2 425.2" style="enable-background:new 0 0 425.2 425.2;" xml:space="preserve">
<style type="text/css">
	.st0{fill:#F89631;}
	.st1{fill:#FF972C;}
</style>
<path class="st0" d="M364.8,119.6c-0.1-5.9-0.6-11.9-1.8-17.7c-0.5-2.3-1.2-4.6-2-6.8c-1-2.6-2-5.1-3.3-7.5c-1.7-3-4.9-6-8-7.6
	c-2.6-1.4-5.5-2.5-8.4-3.2c-5.5-1.3-11.3-1.7-16.9-1.7c-2.4,0-4.8,0-7.2,0v-2.4V72c0.1-4.2,0-8.4,0-12.5c0-6.8-5.7-12.5-12.5-12.5
	c-6.8,0-12.5,5.7-12.5,12.5v11.4c0,0.8,0,1.5-0.1,2.3c-2.1-0.1-4.2-0.2-6.2-0.2c-5.2-0.1-10.3-0.3-15.5-0.3c-10.4,0-20.8,0-31.3,0
	c-5.1,0-10.3-0.3-15.4-0.3c-5,0-10,0-15.1,0c-10.3,0-20.5,0.2-30.8-0.2c-3.7-0.1-7.4-0.2-11.1-0.3c-3.8-0.1-7.6-0.3-11.5-0.6
	c-5.2-0.4-10.5-0.9-15.7-1.5c0.1-3.5,0.4-6.9,0.7-10.4c0.3-3.2-1.5-6.7-3.7-8.8c-2.3-2.3-5.5-3.7-8.8-3.7c-3.3,0-6.5,1.3-8.8,3.7
	l-2,2.5c-1.1,1.9-1.7,4.1-1.7,6.3c-0.3,4-0.6,7.9-0.7,11.9H114c-4.4,0-8.9,0-13.2,0.5c-6.8,0.8-13.5,2.6-19.6,5.6
	c-5.9,2.9-10.6,7.7-13.5,13.5c-1.5,3.1-2.9,6.2-4.2,9.3c-0.2,0.5-0.4,1-0.6,1.5c-0.7,1.8-0.8,3.7-1.1,5.6c-0.2,1.2-0.2,2.3-0.2,3.5
	v30.3c0,5.3,0,10.6,0.1,15.9c0,2.6,0.1,5.2,0.3,7.7c0.2,2.5,0.5,4.9,0.6,7.4c0.1,5.2,0.1,10.5,0.1,15.7v15.3c0,20.7,0,41.4,0,62.1
	c0,10.5,0.2,21.1-1.1,31.5c-0.3,2.5-0.6,5.1-0.7,7.6c-0.1,2.5-0.1,4.9-0.3,7.4c-0.1,2.4-0.1,4.8-0.2,7.2c-0.1,2.6-0.1,5.2-0.1,7.8
	c0.1,4.7,0.4,9.4,1.6,13.9c0.7,2.7,2,5.4,3.1,7.9c0.9,1.9,1.8,3.7,2.8,5.5c1,1.7,2.1,3.4,3.2,5c2.2,3.1,4.6,5.9,8,7.9
	c4.5,2.6,9.7,2.8,14.7,3.5c-0.6-0.1-1.3-0.2-1.9-0.3c1.2,0.2,2.4,0.3,3.5,0.5c0.7,0.1,1.3,0.2,2,0.3c-0.5-0.1-1.1-0.1-1.6-0.2
	c3.4,0.5,6.8,1.1,10.3,1.4c2.5,0.2,4.9,0.4,7.4,0.5c5.3,0.3,10.6,0.7,16,1.1c10.4,0.6,20.7,0.4,31.1,0.4c1.3,0,2.7,0,4,0
	c3.7,0,7.4,0,11.2,0c5.4,0,10.8,0.3,16.1,0.3c10.6,0.1,21.1,0.2,31.7,0.6c5.3,0.2,10.6,0.4,16,0.5c5.2,0.1,10.4,0.1,15.6,0.3
	c5.2,0.3,10.3,0.6,15.5,0.8c5.2,0.2,10.4,0.2,15.6,0.3c5.3,0.1,10.5,0.6,15.7,1c5.2,0.3,10.5,0.3,15.7,0.3c4.9,0,9.9,0,14.8,0
	c2.5,0,4.9,0,7.4-0.2c1.5-0.1,3.1-0.3,4.5-0.6c1.7-0.3,3.2-1.1,4.8-1.8c3.2-1.5,5.6-4.7,7.4-7.5c3.3-5,5.6-10.6,6.9-16.4
	c1.4-6,1.4-12,1.4-18.1v-29.9v-63.2V179v-29.8C364.9,139.4,365,129.5,364.8,119.6z M86.6,109.6c0.1-0.5,0.3-0.9,0.4-1.3
	c1.1-2.5,2.2-5,3.6-7.3c0.1-0.1,0.3-0.3,0.4-0.4c0.8-0.5,1.6-1,2.4-1.4c2.9-1.1,6-1.9,9-2.5c3.2-0.3,6.4-0.3,9.6-0.3
	c3.7,0,7.4,0,11.1,0c3.6,0,7.2,0.1,10.8-0.1c3.8-0.2,7.7-0.3,11.5-0.3c0.1,0,0.2,0,0.2,0c0.8,0,1.6-0.1,2.3-0.2
	c1,0.1,2.1,0.2,3.1,0.3c5.3,0.3,10.5,0.8,15.8,0.9c10.2,0.3,20.5,0.4,30.7,0.4c3,0,6.1,0,9.1,0c7.2,0,14.4-0.1,21.6,0.1
	c9.5,0.3,19,0.3,28.5,0.3c11.1,0,22.3,0,33.4,0.4c3.3,0.1,6.6,0.3,9.8,0.2c0.1,0,0.2,0,0.3,0c0.9,0.4,1.9,0.8,2.8,1
	c3.1,0.7,6.2,0.7,9.4,0.7c2.5,0,5,0,7.5,0c4,0,8,0,12,0.3c1.5,0.3,3,0.7,4.5,1.1c0.1,0.1,0.1,0.2,0.2,0.3c1.1,2.9,1.9,6,2.5,9.1
	c0.4,4.3,0.5,8.6,0.5,13c0,3.9,0,7.8,0,11.6c-5.2-0.6-10.3-1.3-15.5-1.9c-5.1-0.7-10.2-1.3-15.3-1.9c-5.3-0.6-10.5-0.9-15.8-1.4
	c-5.3-0.5-10.5-1-15.8-1.3c-5.1-0.3-10.3-0.3-15.4-0.3c-5.2,0-10.3,0-15.5-0.3c-5.3-0.3-10.6-0.3-15.9-0.5
	c-10.8-0.4-21.6-0.6-32.3-0.7c-4.4,0-8.8,0-13.2,0c-6.3,0-12.6,0-18.9,0c-10.5,0-20.9,0-31.4,0.2c-4.4,0.1-8.7,0.2-13,0.4
	c-2,0.1-4.1,0.1-6.1,0.1c-2,0.1-4,0.3-6,0.5c-4,0.4-8.1,0.8-12.1,1.2c-3.7,0.3-7.3,0.8-10.9,1.3c0-1,0-2.1,0-3.1v-10.6
	C86.6,114.7,86.5,112.1,86.6,109.6z M339.7,343c-0.5,2.6-1.1,5.2-2,7.7c-0.4,0.8-0.9,1.7-1.3,2.5c-0.9,0-1.7,0-2.6,0
	c-2.5,0-5.1,0-7.6,0c-5,0-10,0-15,0c-5.3,0-10.6-0.4-15.9-0.8c-5-0.4-10.1-0.5-15.1-0.6c-10.6-0.1-21.1-1-31.6-1.3
	c-5.1-0.1-10.3-0.1-15.4-0.2c-5.4-0.2-10.9-0.4-16.3-0.5c-5.2-0.1-10.3-0.3-15.5-0.4c-5.3,0-10.5,0-15.8-0.2
	c-10.5-0.3-21-0.2-31.5-0.2h-12.4c-4.6,0-9.1-0.2-13.7-0.5c-4.2-0.3-8.5-0.6-12.7-0.9c-3.8-0.3-7.6-0.5-11.3-0.9
	c-1.8-0.3-3.7-0.5-5.5-0.8c-1.4-0.2-2.8-0.4-4.2-0.6c1.1,0.1,2.2,0.3,3.3,0.4c-1.6-0.2-3.1-0.4-4.7-0.6c-0.4-0.1-0.8-0.1-1.2-0.2
	c-1.8-2.6-3.4-5.4-4.8-8.3c-0.6-1.6-1.1-3.3-1.5-5c-0.4-4.4-0.3-8.8-0.1-13.2c0.2-4.9,0.3-9.8,0.5-14.6c0.1-2.6,0.4-5.1,0.7-7.7
	c0.3-2.7,0.5-5.4,0.7-8c0.4-5,0.3-10.1,0.3-15.2c0-20.7,0-41.5,0-62.2v-30.7c0-2.8,0-5.6-0.1-8.4c-0.1-2.5-0.4-5-0.6-7.4
	c-0.2-2.8-0.3-5.6-0.3-8.3c2.1-0.3,4.3-0.6,6.4-0.9c4.4-0.5,8.7-0.8,13.1-1.2c2.6-0.3,5.2-0.6,7.8-0.8c2.5-0.2,5.1-0.2,7.6-0.2
	c5.1-0.1,10.3-0.2,15.4-0.4c5.2-0.2,10.4-0.2,15.6-0.2c10.6,0,21.2,0,31.9,0c10.7,0,21.4-0.1,32.1,0.2c5.2,0.2,10.5,0.4,15.7,0.5
	c5.4,0.1,10.9,0.3,16.3,0.5c10.4,0.4,20.7,0,31.1,0.7c6.4,0.4,12.8,1.2,19.1,1.6c6.3,0.5,12.5,1.3,18.8,2c7.4,1,14.8,1.9,22.2,2.8
	v7.7v61.8v62v27.4v11.8C339.9,335.2,340,339.2,339.7,343z"/>
</svg>
