<?xml version="1.0" encoding="utf-8"?>
<!-- Generator: Adobe Illustrator 21.0.2, SVG Export Plug-In . SVG Version: 6.00 Build 0)  -->
<svg version="1.1" id="Layer_1" xmlns="http://www.w3.org/2000/svg" xmlns:xlink="http://www.w3.org/1999/xlink" x="0px" y="0px"
	 viewBox="0 0 425.2 425.2" style="enable-background:new 0 0 425.2 425.2;" xml:space="preserve">
<style type="text/css">
	.st0{fill:#F89631;}
	.st1{fill:#FF972C;}
</style>
<g>
	<path class="st0" d="M282.7,239c-0.8-26.9-1.3-53.6-3.3-80.4c-1.5-19.9-2.7-39.9-2.7-59.8c0-9.8-0.1-19.5-0.5-29.3
		c-0.5-12.1-1.6-22.4-10.5-31.5c-18.2-18.7-46.4-13.1-70-12.3c-16.3,0.6-32.4,1-48.7,0.9c-12.2,0-24.3,1-36.5,0.9
		c-11.6,0-24.4-0.1-35.6,3.2c-10.6,3.1-22,10-27,20.2c-5.6,11.4-0.1,23.3,0.4,34.8c0.6,12.6,0.3,25.3-0.5,37.8
		c-0.9,13.2,0.3,26.5,0.4,39.7c0.3,46.9,0.3,93.7,0.3,140.6c0,13.5,0,27.1,0,40.6c0,12.9,0.9,24.8,6.4,36.7
		c5.7,12.3,15.9,14.1,28.2,14.8c23.5,1.4,46.6,4,70.2,4c20.7,0,41.4,0.4,62.1,0.8c22.2,0.5,56.3,1.6,64.4-24.6
		c4.3-14.1,3.1-30.1,3.1-44.7c0-20.2,0-40.4,0-60.6C282.9,260.3,283,249.6,282.7,239z M86.7,58.8c28.2-3.1,57.4-2.2,85.8-2.2
		c12.6,0,25.2-0.9,37.8-1.2c10-0.3,29.2-4.9,35.4,5.6c-42.3-0.6-84.5,0-126.8-0.6c-12.6-0.2-25.3,0-37.9,0
		C82.8,59.7,84.7,59.1,86.7,58.8z M78.1,120.3c1.1-9.8,0.5-20.1,0.3-30c45.4,0,90.8,0.6,136.2,0.6c10.7,0,21.3-0.1,32,0.1
		c-0.2,47.8,5.6,95.6,5.9,143.5c0.3,34.2,0.3,68.4,0.3,102.6c-29.4,1-59.3-1.6-88.7-2.4c-28.5-0.7-57.1-0.5-85.6-0.8
		c0-40.5,0-80.9,0-121.4c0-14.9-0.3-29.8-0.3-44.7C78.2,152,76.4,135.9,78.1,120.3z M246.7,368.8c-13,3.9-28,2.1-41.4,1.7
		c-15.3-0.5-30.7-0.5-46-0.5c-13.7,0-27.3-0.4-41-0.9c-6.6-0.2-13.1-1.4-19.6-2.1c-4-0.4-17.1,0.7-18.3-3.2
		c28.7,0.4,57.5,0.3,86.2,0.9c28.2,0.6,56.5,3.1,84.6,2.4C250.9,367.8,247.1,368.6,246.7,368.8z"/>
	<path class="st0" d="M219.7,206.3c-9.6-7.5-26-3.5-37.5-4.1c-4-0.2-11.7,0.9-14.5-1.2c-1.3-1-2.5-4.7-3.5-6.2
		c-1.6-2.3-3.6-4.4-5.6-6.3c-8.8-8.1-20.6-11.6-32.4-9.4c-10.9,2-18.8,10.5-23.5,20.1c-10.4,20.8,2.1,48,26.3,50.3
		c12.5,1.2,23.7-1.8,31.9-11.6c1.8-2.2,3.4-4.5,4.7-7c1.8-3.6,1-3.3,4.6-4c4.1-0.8,9.2,0.1,13.4,0.3c0.1,9.2,2.3,21.8,14.5,20.4
		c11.5-1.2,10.6-11.6,10.5-20.1C219.7,228.1,229,215.6,219.7,206.3z M144.9,212.9c-1.2,6.8-3.5,12-11.1,11.7
		c-5.7-0.2-10.2-3.3-10.1-9.5c0.1-4.8,3.8-10.9,8.6-11.6C137.2,202.8,145.9,207.5,144.9,212.9z"/>
	<path class="st0" d="M310.6,179.3c-6.9,1.9-10.7,9.4-8.5,16.1c1.1,3.4,3.4,4.3,5.5,6.8c2.1,2.5,3.4,7.3,3.9,10.4
		c-0.1-0.4-0.1-0.8-0.2-1.2c0.8,5.7,2,11.9-0.7,17.2c-2.6,5.1-4.5,9.7-1.2,15.2c2.7,4.5,7.8,6.8,13,5.9c6.2-1.2,8.9-6.2,11.3-11.4
		c5.1-10.7,4.4-24.6,0.9-35.8C331.6,192.4,323.9,175.7,310.6,179.3"/>
	<path class="st0" d="M336.6,158.6c-7,7-2.7,14.8,2.9,20.5c7.3,7.3,11.6,18.4,13.8,28.4c2.1,9.9,2.6,20.1-0.4,29.7
		c-1.5,4.9-3.4,9.3-6.1,13.7c-2.5,4.2-7,6-9.3,10.2c-4.3,7.7,0.9,17.3,9.5,18.4c9.7,1.2,17.6-9.4,21.9-16.7
		c11.2-19.2,13.1-40.2,8.5-61.7C375,189.3,355.4,139.8,336.6,158.6"/>
</g>
</svg>
