<?xml version="1.0" encoding="utf-8"?>
<!-- Generator: Adobe Illustrator 21.0.2, SVG Export Plug-In . SVG Version: 6.00 Build 0)  -->
<svg version="1.1" id="Layer_1" xmlns="http://www.w3.org/2000/svg" xmlns:xlink="http://www.w3.org/1999/xlink" x="0px" y="0px"
	 viewBox="0 0 425.2 425.2" style="enable-background:new 0 0 425.2 425.2;" xml:space="preserve">
<style type="text/css">
	.st0{fill:#F89631;}
	.st1{fill:#FF972C;}
</style>
<g>
	<path class="st0" d="M134.2,67.8c-0.2,5.9-0.3,11.8-0.3,17.7c-12.5,0-25.3-0.8-37.6,2.1c-14.5,3.4-25,16.5-28.8,30.8
		c-2.2,8.5-1.3,18.3-1.3,27.1c0,7.7,0,15.4,0,23.1c0,29.9-0.3,59.8-0.3,89.7c0,15.9-0.6,31.9,0.5,47.7c1,15.1,1.6,36.5,13.3,47.7
		c12.5,12.1,29.2,10.7,45.4,10.7c18.3,0,36.4,0.6,54.6,1.4c36,1.5,72.3,3.5,108.3,3.6c15.9,0.1,35.1,1.8,49.8-5.7
		c15.3-7.8,17.7-26,19-41.4c1.5-18,0.4-36.6,0.4-54.6c0-31,1.2-62,1.2-93c0-19.1,4.4-42.3-2.7-60.5c-3.1-7.8-7.6-18-15.3-22
		c-8.5-4.4-19-4.7-28.3-5.4c0.1-9.8,2.9-26.1-10.1-28.8c-16.5-3.5-16.2,18.7-16.5,29.1c-28.3,0-56.6-0.5-84.9-0.6
		c-9.8,0-19.5-0.1-29.3-0.5c-2.3-0.1-4.5-0.2-6.8-0.4c-4.1-0.3-4.5,0.7-5.4-2.9c-1-4.1,0.3-9.4,0.3-13.6
		C158.8,52.4,134.6,50.7,134.2,67.8 M203.7,111.3c19.3,0,38.7,0.6,58,0.6c9,0,17.9,0,26.9,0c5.5,0,10.9-0.8,16.3-0.8
		c5.8,0.1,17.8-0.7,22.6,2.9c5.3,4,6.1,15.5,6.2,21.1c0.2,9.6-0.5,19.1-0.6,28.7c-0.2,18.5-0.3,37-0.5,55.5
		c-0.2,19-0.6,37.9-0.6,56.9c0,18.8,2.1,39.1-2.2,57.6c-2,8.4-6.9,9.2-14.9,9.8c-9.8,0.7-19.8,0.7-29.6,0.5
		c-19.1-0.4-38.2-1.7-57.3-2c-33.2-0.5-66.3-2.9-99.6-2.9c-8.9,0-27.3,3.7-32.3-4.9c-4.1-7.1-4.1-19.4-4.7-27.2
		c-0.7-9.8-0.6-19.6-0.6-29.4c0-26.3,0.3-52.6,0.3-78.9c0-17.6,0-35.1,0-52.7c0-8.7-1.3-18.6,2.9-26.3c2-3.7,3.1-6.2,6.8-7.7
		c4.3-1.8,9.6-1.6,14.1-1.7c5.2-0.1,10.4,0,15.7,0L203.7,111.3z"/>
	<path class="st0" d="M211.1,130.6c-3.1,0.1-5.1,0.7-7.8,2c-1.6,0.8-3,2.2-4,3.7c-3.3,1.4-6.4,3-9.5,4.8
		c-5.9,3.4-11.3,7.8-15.6,13.2c-2.2,2.9-4.5,5.7-6.3,8.9c-1.7,3.1-3.2,6.5-4.3,9.8c-0.2,0.6-0.4,1.2-0.6,1.8c-0.6,2-0.8,4-1.1,6
		c-0.2,1.4-0.3,2.9-0.4,4.3c-0.2,3.1-0.3,6.4,0.1,9.5c0.3,2.5,0.6,5.1,1.4,7.5c0.8,2.3,1.9,4.5,3.2,6.6c1.3,2.1,2.8,4.1,4.3,6
		c1.7,2.1,3.4,4.2,5.3,6.2c3.3,3.3,6.9,6.3,10.8,8.7c2.2,1.3,4.6,2.2,6.9,3.2c1.6,0.7,3.3,1.2,5.1,1.6c2.7,0.6,5.6,1,8.4,1.1
		c2.8,0.2,5.5,0.2,8.3,0.3c3,0,6.1,0.2,9.2-0.2c3.8-0.5,7.5-1.1,11-2.4c3.4-1.3,6.7-2.7,9.6-4.7c1.7-1.2,3.4-2.5,5-3.8
		c1.3-1,2.5-2.1,3.5-3.4c2.6-3.2,5.2-6.6,7-10.3c3.9-7.8,5.1-16.9,5.6-25.5c0.4-6,0.2-12.1-0.9-18c-0.5-2.5-1.7-4.8-2.7-7.1
		c-0.6-1.2-1.1-2.5-1.8-3.7c-2.2-4.1-5.1-8.1-8.5-11.3c-2.3-2.1-4.8-3.8-7.3-5.5c-3.1-2.1-6.5-3.7-10-5c-3-1.2-6-2-9.1-2.7
		c-3.3-0.7-6.7-1.1-10.1-1.3c-1.2-0.1-2.3-0.1-3.5-0.1c-0.3,0-0.6,0-0.9,0C211.5,130.6,211.3,130.6,211.1,130.6 M215.6,158
		c0.1,0,0.3,0.1,0.4,0.1c0.9,0.4,1.8,0.8,2.7,1.1c2.2,0.6,4.4,0.6,6.6,0c0.8-0.2,1.5-0.5,2.2-0.8c2.4,1.2,4.7,2.6,6.9,4.2
		c0.9,0.8,1.7,1.6,2.5,2.5c0.9,1.4,1.8,2.8,2.6,4.2c0.5,1,1,2,1.5,3c0.2,0.6,0.3,1.1,0.5,1.7c0.4,5.3,0.2,10.6-0.3,15.8
		c-0.5,3-1.1,6-2,8.9c-0.9,1.8-2,3.6-3.2,5.2c-0.8,0.9-1.7,1.7-2.6,2.5c-1.5,1.1-3.1,2-4.7,2.8c-1.9,0.7-3.8,1.2-5.7,1.6
		c-3,0.2-6,0.1-9,0c-2.6,0-5.1-0.1-7.7-0.3c-1.7-0.3-3.3-0.8-4.9-1.4c-1.4-0.7-2.7-1.5-4-2.4c-2.8-2.4-5.3-5.1-7.7-8
		c-1-1.4-1.9-2.8-2.7-4.2c-0.1-0.4-0.2-0.8-0.3-1.2c-0.1-2.1,0-4.2,0-6.3c0-1.3,0.1-2.5,0.2-3.8c0.3-1.5,0.9-3,1.4-4.5
		c0.5-1.1,1.1-2.2,1.7-3.3c0.7-1.3,1.5-2.4,2.4-3.6c1.7-2.1,3.5-4.2,5.6-6c3.3-2.4,6.7-4.5,10.4-6.2c1.9-0.7,3.8-1.2,5.8-1.6
		C214.4,158,215,158,215.6,158"/>
	<path class="st0" d="M183.3,248.5c-3.6,0.2-7.3,0.7-10.8,1.4c-4.9,1-9.6,2.5-14.2,4.3c-2.4,0.9-4.8,1.8-7.2,2.7
		c-3.2,1.3-6.6,2.6-9.6,4.3c-4.2,2.4-8.5,4.9-12.5,7.6c-1.5,1-3.1,2.1-4.5,3.3c-1.2,1-2.2,2.3-2.9,3.7c-1.4,2.9-1.8,4.9-2,8.1
		c-0.2,2.6-0.4,5.2-0.6,7.8c-0.3,2.9-0.4,5.8-0.7,8.6c0.1-0.5,0.1-0.9,0.2-1.4c-0.3,2.7-0.6,5.4-0.8,8.2c-0.1,1-0.1,2-0.2,3
		c0,0.6-0.1,1.3-0.1,1.9c0,3.9,1.7,7.5,4.3,10.3c2.8,2.9,6.7,3.9,10.6,4.1c1.2,0.1,2.3-0.2,3.5-0.3c1.3-0.2,2.6-0.3,4-0.5
		c2.6-0.3,5.2-0.5,7.8-0.7c5.4-0.5,10.8-0.8,16.2-0.9c5.3-0.1,10.7-0.3,16-0.3c10.6,0,21.2,0,31.8,0c10.5,0,21,0.1,31.5,0.5
		c4.2,0.2,8.3,0.6,12.4,0.9c4.4,0.3,8.8,0.6,13.2,0.9c4.2,0.3,8.3,0.7,12.4,0.9c3.1,0.2,13.6,0.7,16.7,0.9
		c14.4,1,19.1-6.5,18.4-13.2c-0.8-8.1-1.5-20.9-1.7-22.3c-0.4-2.5-0.8-4.6-2.2-6.9c-1.6-2.5-3.3-4.3-6-5.5c-1.6-0.7-3.6-1.6-5.2-2.2
		c-1-0.4-2.1-0.8-3.1-1.2c-4.1-1.8-8-4-11.9-6c-5.3-2.7-11-5-16.6-7.1c-2.3-0.9-4.6-1.6-6.9-2.4c-2.4-0.9-4.8-1.8-7.3-2.6
		c-4.9-1.7-9.9-3.3-15-4.7c-2.4-0.7-4.8-1.3-7.3-1.8c-2.5-0.5-5-1-7.5-1.4c-6.2-1-12.4-1.4-18.6-1.7c-5.2-0.3-10.4-0.3-15.5-0.3
		c-0.9,0-1.8,0-2.7,0C187,248.4,185.1,248.4,183.3,248.5 M200.1,273.5c6.4,0.1,12.9,0.5,19.3,1.1c1.7,0.3,3.3,0.7,5,1
		c2.2,0.4,4.4,0.8,6.6,1.4c4.3,1.1,8.5,2.4,12.7,3.8c4.3,1.4,8.5,2.9,12.7,4.5c3.6,1.3,7.1,2.5,10.6,3.9c1.8,0.8,3.5,1.5,5.2,2.4
		c2.2,1,4.3,2.2,6.5,3.3c2.1,1.1,4.2,2.3,6.4,3.2c1.9,0.8,3.8,1.6,5.6,2.4c0.1,0.6,0.2,1.1,0.3,1.7c0.1,0.3,0.1,0.6,0.2,0.9
		c-2-0.2-4.1-0.4-6.1-0.6c-2.4-0.2-4.8-0.3-7.3-0.5c-2.5-0.1-5-0.4-7.4-0.6c-5.1-0.4-10.2-0.7-15.3-1.1c-5.2-0.4-10.3-0.8-15.5-1
		c-10.5-0.4-20.9-0.3-31.4-0.3c-10.7,0-21.4-0.1-32,0c-3.7,0-7.3,0.1-11,0.2c-3.4,0.1-6.9,0.1-10.3,0.3c-3.5,0.2-6.9,0.6-10.4,0.9
		c-0.5,0-0.9,0.1-1.4,0.1c0.4-3.9,0.7-7.7,1-11.6c1.5-0.9,3.1-1.9,4.6-2.8c3-1.9,6.1-3.6,9.3-5c7.5-2.9,14.9-5.8,22.8-7.2
		C187.2,273.2,193.7,273.3,200.1,273.5"/>
</g>
</svg>
