<?xml version="1.0" encoding="utf-8"?>
<!-- Generator: Adobe Illustrator 21.0.2, SVG Export Plug-In . SVG Version: 6.00 Build 0)  -->
<svg version="1.1" id="Layer_1" xmlns="http://www.w3.org/2000/svg" xmlns:xlink="http://www.w3.org/1999/xlink" x="0px" y="0px"
	 viewBox="0 0 425.2 425.2" style="enable-background:new 0 0 425.2 425.2;" xml:space="preserve">
<style type="text/css">
	.st0{fill:#F89631;}
	.st1{fill:#FF972C;}
</style>
<path class="st0" d="M192.2,193.4c-13.5-5.9-25.4-13.7-23.2-30.3c2-15.6,13.7-25.3,27.5-30.3c5.1-1.5,10.3-1.9,15.6-2.2
	c0.3,0,0.5,0,0.8,0c9.9-0.7,22.9-0.1,31.5,5.6c9,5.9,15,13.3,17.4,23.6c2.1,9.1,13.5,13.5,20.6,6.8c7.8-7.3,3-19.9-1.6-27.6
	c-5.1-8.5-11.9-16-20-21.8c-4.2-3-8.9-6-13.8-7.6c-2.1-0.7-4.3-1.1-6.5-1.5c-4.6-0.8-4.3-0.7-4.5-5.5c-0.3-7.5,1.3-19.4-4.4-25.2
	c-6.3-6.5-17.6-4-20.7,4.6c-2,5.5-1.5,13.2-1.9,18.9c-0.2,2.4,0.3,4.4-1.5,5.4c-1.4,0.7-4.2,0.3-5.8,0.5c-4.7,0.4-9,1.4-13.4,2.9
	c0.5-0.2,1-0.3,1.5-0.5c-26,8.3-46.5,30.8-46,59.2c0.2,12.9,6.1,25.8,15.4,34.7c9.5,9,23.9,14.4,36.1,18.7
	c13.4,4.7,27.7,7,40.9,12.4c5.4,2.2,11,4.7,14.2,9.6c3.5,5.4,7.9,12.6,8.4,19.1c0.6,7.1-1.1,13.4-5.2,19.2
	c-3.3,4.6-10.3,6.2-15.8,7.4c-12.8,2.8-28.9,2.7-41.6-0.6c-11.3-3-26.4-9.8-31.3-21.3c-2.2-5.2-3.1-10.4-9.1-12.7
	c-5.3-2-11.5-0.1-14.7,4.6c-6.7,9.7,3.4,25.4,10.5,32.2c9.3,9,20.5,15.6,32.7,19.7c4.9,1.6,10.1,2.8,15.5,3.6
	c0.1,3.6,0.2,7.2,0.4,10.7c0-0.6-0.1-1.3-0.1-1.9c0.6,9.8-3.5,26.6,11.1,28.1c15.5,1.6,14.3-18,13.7-28.1c0,0.4,0.1,0.9,0.1,1.3
	c-0.2-2.8,0-5.9,0-9c0.6,0,1.2,0,1.7-0.1c12.6-0.7,26.4-3.6,37.5-9.8c10.1-5.6,17.7-20.4,19-31.6c1.7-14.9-1.8-26.9-9.1-39.9
	C257.5,205.4,220,205.6,192.2,193.4z"/>
</svg>
